<svg width="28" height="28" viewBox="0 0 28 28" fill="none" xmlns="http://www.w3.org/2000/svg">
<path d="M26.7667 0H21.3125C21.0855 0 20.9015 0.183968 20.9015 0.410976C20.9015 0.637983 21.0855 0.821952 21.3125 0.821952H26.7667C26.9934 0.821952 27.1777 1.0063 27.1777 1.23293V9.50456C27.1777 9.73118 26.9934 9.91554 26.7667 9.91554H15.4591V9.71795C15.4591 8.91623 14.8069 8.26409 14.0052 8.26409C13.2035 8.26409 12.5513 8.91629 12.5513 9.71795V9.91554H8.36508C8.13812 9.91554 7.9541 10.0995 7.9541 10.3265C7.9541 10.5535 8.13812 10.7375 8.36508 10.7375H12.5513V17.9798L11.5752 16.8859C10.9727 16.2106 10.1081 15.8233 9.20311 15.8233C8.86585 15.8233 8.56162 15.9964 8.3893 16.2863C8.21698 16.5763 8.21042 16.9263 8.37164 17.2225L10.0083 20.2292C10.4141 20.9745 10.9316 21.6492 11.5465 22.2343L13.2907 23.8939V24.7743C12.864 24.8629 12.5425 25.2416 12.5425 25.6942V27.0604C12.5425 27.5785 12.964 28 13.4821 28H19.9619C20.48 28 20.9015 27.5785 20.9015 27.0604V25.6942C20.9015 25.2514 20.5933 24.8802 20.1805 24.7813V23.8677C20.5551 23.3952 21.7165 21.6612 21.7165 18.3301V15.82C21.7165 15.0183 21.0643 14.3662 20.2626 14.3662C19.9947 14.3662 19.7434 14.439 19.5276 14.5659C19.3134 14.0296 18.7887 13.6496 18.1768 13.6496C17.9088 13.6496 17.6577 13.7225 17.4419 13.8494C17.2277 13.3131 16.7029 12.9331 16.091 12.9331C15.8646 12.9331 15.6502 12.9851 15.459 13.0778V10.7376H26.7667C27.4465 10.7376 27.9995 10.1845 27.9995 9.50472V1.23287C27.9996 0.553054 27.4465 0 26.7667 0V0ZM16.091 13.7549C16.4395 13.7549 16.723 14.0384 16.723 14.3868V15.1034C16.723 15.3304 16.907 15.5144 17.134 15.5144C17.361 15.5144 17.545 15.3304 17.545 15.1034C17.545 14.7549 17.8285 14.4714 18.1769 14.4714C18.5253 14.4714 18.8088 14.7549 18.8088 15.1034V15.8199C18.8088 16.0469 18.9928 16.2309 19.2198 16.2309C19.4468 16.2309 19.6308 16.0469 19.6308 15.8199C19.6308 15.4714 19.9143 15.188 20.2628 15.188C20.6112 15.188 20.8947 15.4714 20.8947 15.8199V18.3301C20.8947 21.8608 19.4843 23.4211 19.4715 23.4349C19.3991 23.5112 19.3587 23.6124 19.3587 23.7177V24.7545H18.3659C18.1389 24.7545 17.9549 24.9384 17.9549 25.1654C17.9549 25.3925 18.1389 25.5764 18.3659 25.5764H19.9619C20.0268 25.5764 20.0797 25.6292 20.0797 25.6942V27.0604C20.0797 27.1253 20.0268 27.1781 19.9619 27.1781H13.4821C13.4172 27.1781 13.3644 27.1253 13.3644 27.0604V25.6942C13.3644 25.6292 13.4172 25.5764 13.4821 25.5764H16.722C16.949 25.5764 17.133 25.3925 17.133 25.1654C17.133 24.9384 16.949 24.7545 16.722 24.7545H14.1126V23.7177C14.1126 23.6051 14.0665 23.4975 13.9849 23.4199L12.113 21.6388C11.5602 21.1128 11.095 20.5063 10.7302 19.8362L9.09351 16.8295C9.05485 16.7258 9.09346 16.6608 9.20305 16.6451C9.87407 16.6451 10.5151 16.9323 10.9619 17.433L12.6399 19.3137C12.878 19.5938 13.3846 19.4151 13.3731 19.0401V9.71795C13.3731 9.36948 13.6566 9.08598 14.0051 9.08598C14.3535 9.08598 14.637 9.36948 14.637 9.71795V14.3868C14.637 14.6138 14.821 14.7978 15.048 14.7978C15.275 14.7978 15.459 14.6138 15.459 14.3868C15.4591 14.0384 15.7426 13.7549 16.091 13.7549Z" fill="#0FB3AF"/>
<path d="M6.72157 9.91548H1.23287C1.00625 9.91548 0.821897 9.73113 0.821897 9.50451V1.23287C0.821897 1.00625 1.00625 0.821897 1.23287 0.821897H19.669C19.896 0.821897 20.08 0.637928 20.08 0.410921C20.08 0.183914 19.896 0 19.669 0H1.23287C0.553054 0 0 0.553054 0 1.23287V9.50451C0 10.1843 0.553054 10.7374 1.23287 10.7374H6.72157C6.94853 10.7374 7.13255 10.5534 7.13255 10.3264C7.13255 10.0994 6.94858 9.91548 6.72157 9.91548Z" fill="#0FB3AF"/>
<path d="M16.7046 5.05981C16.9461 4.82449 17.0314 4.47908 16.9272 4.15839C16.823 3.83771 16.5509 3.60835 16.2172 3.55984L15.2603 3.42082C15.2416 3.41809 15.2253 3.40633 15.2169 3.38932L14.7889 2.5222C14.6397 2.21983 14.3376 2.03198 14.0003 2.03198C13.6631 2.03198 13.3609 2.21978 13.2117 2.5222L12.7837 3.38938C12.7753 3.40633 12.7591 3.41814 12.7405 3.42082L11.7834 3.55984C11.4497 3.60835 11.1777 3.83771 11.0735 4.15839C10.9693 4.47908 11.0546 4.82449 11.296 5.05981L11.9885 5.73487C12.0021 5.7481 12.0082 5.76708 12.005 5.78578L11.8416 6.73887C11.7846 7.07115 11.9186 7.40075 12.1914 7.59894C12.4642 7.79718 12.8191 7.82283 13.1176 7.66593L13.9735 7.21591C13.9903 7.20705 14.0103 7.20705 14.027 7.21591L14.8831 7.66593C15.0129 7.73413 15.1533 7.76787 15.2931 7.76787C15.4747 7.76787 15.6551 7.71094 15.8092 7.59894C16.082 7.40075 16.216 7.07115 16.159 6.73887L15.9956 5.78578C15.9923 5.76713 15.9985 5.7481 16.0121 5.73487L16.7046 5.05981ZM15.4384 5.14638C15.2311 5.34845 15.1365 5.63944 15.1855 5.92474L15.349 6.87794C15.3506 6.88757 15.355 6.91316 15.3261 6.93411C15.2973 6.95511 15.2741 6.94297 15.2655 6.93848L14.4096 6.48851C14.2814 6.42108 14.1409 6.38745 14.0003 6.38745C13.8597 6.38745 13.7192 6.42114 13.5911 6.48846L12.7351 6.93848C12.7265 6.94297 12.7035 6.95522 12.6745 6.93411C12.6456 6.91311 12.6499 6.88751 12.6516 6.87789L12.8151 5.92474C12.864 5.63938 12.7695 5.34839 12.5622 5.14638L11.8697 4.47137C11.8627 4.46453 11.8441 4.44638 11.8551 4.41242C11.8662 4.3784 11.8919 4.37463 11.9015 4.37326L12.8586 4.23424C13.1451 4.19257 13.3926 4.01265 13.5207 3.75316L13.9487 2.88604C13.953 2.87723 13.9645 2.85399 14.0002 2.85399C14.036 2.85399 14.0474 2.87729 14.0518 2.88604L14.4798 3.7531C14.6078 4.01271 14.8554 4.19257 15.142 4.2343L16.0989 4.37331C16.1086 4.37474 16.1344 4.37845 16.1453 4.41247C16.1564 4.44643 16.1378 4.46459 16.1308 4.47142L15.4384 5.14638Z" fill="#0FB3AF"/>
<path d="M7.96517 6.73936L7.80171 5.78627C7.79848 5.76762 7.80466 5.74859 7.81828 5.73535L8.51073 5.06029C8.75218 4.82497 8.83743 4.47957 8.73325 4.15888C8.62908 3.83819 8.35706 3.60883 8.0233 3.56033L7.06638 3.42131C7.04762 3.41858 7.03144 3.40682 7.02302 3.38981L6.59503 2.52269C6.44579 2.22032 6.14364 2.03247 5.80644 2.03247C5.46924 2.03247 5.16703 2.22027 5.01779 2.52269L4.58986 3.38981C4.58144 3.40682 4.5652 3.41858 4.54655 3.42131L3.58952 3.56033C3.25582 3.60883 2.9838 3.83819 2.87962 4.15888C2.77545 4.47957 2.8607 4.82497 3.10215 5.06029L3.79465 5.73535C3.80822 5.74859 3.8144 5.76757 3.81117 5.78627L3.64771 6.73936C3.59072 7.0717 3.72476 7.4013 3.99754 7.59943C4.27038 7.79773 4.62525 7.82327 4.92373 7.66642L5.7797 7.2164C5.79643 7.20759 5.81645 7.20759 5.83324 7.2164L6.68926 7.66642C6.81909 7.73462 6.95952 7.76836 7.0993 7.76836C7.28087 7.76836 7.46128 7.71143 7.61544 7.59943C7.88812 7.40124 8.02215 7.07164 7.96517 6.73936ZM7.24461 5.14675C7.03723 5.34882 6.94268 5.63982 6.99162 5.92517L7.15509 6.87832C7.15673 6.88795 7.16116 6.91354 7.13223 6.93454C7.10335 6.95565 7.08027 6.9434 7.07163 6.93891L6.21567 6.48889C6.08753 6.42152 5.94699 6.38788 5.80644 6.38788C5.66589 6.38788 5.52529 6.42157 5.39721 6.48889L4.5413 6.93891C4.53266 6.9434 4.50964 6.95559 4.48071 6.93454C4.45178 6.91359 4.45615 6.88795 4.45785 6.87832L4.62131 5.92517C4.67025 5.63982 4.5757 5.34882 4.36838 5.14681L3.67593 4.47175C3.66893 4.46491 3.65033 4.44675 3.66133 4.41279C3.67237 4.37878 3.69813 4.37501 3.70776 4.37364L4.66484 4.23462C4.95129 4.19295 5.19881 4.01308 5.32694 3.75354L5.75492 2.88641C5.75924 2.87761 5.77073 2.85437 5.80649 2.85437C5.84226 2.85437 5.85374 2.87766 5.85806 2.88641L6.28605 3.75348C6.41413 4.01308 6.66159 4.19295 6.9482 4.23468L7.90518 4.37369C7.91486 4.37511 7.94056 4.37883 7.95161 4.41285C7.96265 4.44681 7.94406 4.46497 7.93706 4.4718L7.24461 5.14675Z" fill="#0FB3AF"/>
<path d="M24.8985 5.0598C25.1399 4.82449 25.2252 4.47908 25.121 4.15839C25.0168 3.83771 24.7447 3.60835 24.411 3.55984L23.4542 3.42082C23.4354 3.41809 23.4192 3.40633 23.4108 3.38932L22.9828 2.5222C22.8335 2.21983 22.5314 2.03198 22.1942 2.03198C21.857 2.03198 21.5548 2.21978 21.4055 2.5222L20.9776 3.38927C20.9691 3.40628 20.9529 3.41809 20.9342 3.42082L19.9772 3.55984C19.6434 3.60835 19.3715 3.83771 19.2673 4.15845C19.1631 4.47913 19.2484 4.82454 19.4898 5.0598L20.1823 5.73487C20.1958 5.7481 20.2021 5.76708 20.1988 5.78578L20.0354 6.73887C19.9784 7.07121 20.1124 7.40081 20.3852 7.599C20.6579 7.79724 21.0128 7.82289 21.3114 7.66599L22.1673 7.21596C22.184 7.20721 22.2041 7.20711 22.2208 7.21596L23.0768 7.66599C23.2067 7.73418 23.3471 7.76792 23.4869 7.76792C23.6684 7.76792 23.8489 7.71099 24.003 7.599C24.2757 7.40081 24.4098 7.07121 24.3527 6.73893L24.1893 5.78583C24.1861 5.76719 24.1923 5.74815 24.2059 5.73492L24.8985 5.0598ZM23.6322 5.14637C23.4249 5.34844 23.3304 5.63944 23.3794 5.92474L23.5428 6.87794C23.5444 6.88757 23.5488 6.91316 23.5199 6.93411C23.4911 6.95511 23.4679 6.94297 23.4593 6.93848L22.6034 6.48851C22.4753 6.42108 22.3347 6.38745 22.1942 6.38745C22.0536 6.38745 21.913 6.42114 21.7849 6.48846L20.9289 6.93848C20.9204 6.94297 20.8973 6.95516 20.8684 6.93411C20.8395 6.91316 20.8439 6.88757 20.8455 6.87789L21.0089 5.9249C21.0579 5.63955 20.9634 5.3485 20.7561 5.14637L20.0636 4.47126C20.0567 4.46448 20.038 4.44632 20.0491 4.41236C20.0602 4.37835 20.0859 4.37457 20.0955 4.3732L21.0526 4.23419C21.339 4.19252 21.5864 4.01265 21.7147 3.7531L22.1427 2.88598C22.147 2.87718 22.1585 2.85393 22.1942 2.85393C22.2299 2.85393 22.2414 2.87723 22.2458 2.88598L22.6737 3.75305C22.8018 4.01265 23.0493 4.19252 23.3359 4.23424L24.2929 4.37326C24.3025 4.37468 24.3283 4.3784 24.3393 4.41242C24.3504 4.44638 24.3317 4.46453 24.3247 4.47137L23.6322 5.14637Z" fill="#0FB3AF"/>
</svg>
