<svg width="14" height="15" viewBox="0 0 14 15" fill="none" xmlns="http://www.w3.org/2000/svg">
<path d="M7 14.1484C5.61553 14.1484 4.26215 13.7379 3.11101 12.9687C1.95987 12.1996 1.06266 11.1063 0.532846 9.82722C0.00303298 8.54814 -0.13559 7.14067 0.134506 5.78281C0.404603 4.42494 1.07129 3.17766 2.05026 2.19869C3.02922 1.21973 4.2765 0.55304 5.63437 0.282944C6.99224 0.0128472 8.3997 0.15147 9.67879 0.681284C10.9579 1.2111 12.0511 2.1083 12.8203 3.25945C13.5895 4.41059 14 5.76397 14 7.14844C14 9.00495 13.2625 10.7854 11.9497 12.0982C10.637 13.4109 8.85652 14.1484 7 14.1484ZM7 1.14844C5.81331 1.14844 4.65328 1.50033 3.66658 2.15962C2.67989 2.81891 1.91085 3.75598 1.45673 4.85234C1.0026 5.9487 0.88378 7.15509 1.11529 8.31898C1.3468 9.48287 1.91825 10.552 2.75736 11.3911C3.59648 12.2302 4.66557 12.8016 5.82946 13.0331C6.99335 13.2647 8.19975 13.1458 9.2961 12.6917C10.3925 12.2376 11.3295 11.4686 11.9888 10.4819C12.6481 9.49517 13 8.33513 13 7.14844C13 5.55714 12.3679 4.03102 11.2426 2.9058C10.1174 1.78058 8.5913 1.14844 7 1.14844Z" fill="#727272"/>
<path d="M9.295 10.1486L6.5 7.35356V2.64856H7.5V6.93856L10 9.44356L9.295 10.1486Z" fill="#727272"/>
</svg>
