<svg width="503" height="288" viewBox="0 0 503 288" fill="none" xmlns="http://www.w3.org/2000/svg">
<path d="M133.887 0.316402L65.1963 15.1553L85.5021 109.153L154.192 94.3143L133.887 0.316402Z" fill="white"/>
<path d="M154.179 94.3318L154.067 93.8733C153.993 93.5634 153.894 93.1172 153.77 92.5471C153.497 91.3077 153.113 89.6469 152.617 87.4283C151.638 82.9292 150.2 76.3975 148.379 68.1306C144.772 51.5968 139.703 28.1471 133.605 0.396612L133.952 0.619707L65.2757 15.4927L65.5236 15.1085C73.0841 50.2211 80.0868 82.7309 85.7633 109.118L85.4534 108.907L135.365 98.2732L149.258 95.3358L152.977 94.5797L154.216 94.3318C154.216 94.3318 153.82 94.4434 152.977 94.6293L149.37 95.4349L135.563 98.4839L85.5526 109.428H85.2923V109.18C79.5786 82.7929 72.5387 50.2954 64.9287 15.1952V14.873H65.2386L133.927 0H134.212L134.274 0.28507C140.223 28.1471 145.255 51.6836 148.8 68.267C150.547 76.5215 151.936 83.0408 152.878 87.5275C153.349 89.7336 153.696 91.444 153.943 92.6091L154.204 93.9104C154.202 94.0512 154.194 94.1919 154.179 94.3318Z" fill="#263238"/>
<path d="M111.233 24.9865C111.233 25.1724 103.797 26.92 94.6125 28.9155C85.4284 30.9109 77.8928 32.3734 77.8556 32.1999C77.8184 32.0264 85.2921 30.2788 94.4761 28.2834C103.66 26.2879 111.233 24.813 111.233 24.9865Z" fill="#263238"/>
<path d="M131.064 29.2625C131.064 29.4361 119.612 32.0636 105.42 35.125C91.2289 38.1863 79.6652 40.5412 79.628 40.3677C79.5908 40.1942 91.0802 37.5666 105.284 34.5053C119.488 31.4439 131.064 29.089 131.064 29.2625Z" fill="#263238"/>
<path d="M132.935 37.7774C132.935 37.9509 121.495 40.5784 107.292 43.6522C93.088 46.7259 81.549 49.0189 81.4871 48.8949C81.4251 48.771 92.9269 46.0938 107.131 43.0201C121.334 39.9463 132.898 37.6038 132.935 37.7774Z" fill="#263238"/>
<path d="M134.782 46.3045C134.782 46.4781 123.33 49.1056 109.139 52.167C94.9477 55.2283 83.384 57.5832 83.3468 57.4097C83.3096 57.2362 94.7866 54.6086 109.003 51.5473C123.219 48.4859 134.782 46.131 134.782 46.3045Z" fill="#263238"/>
<path d="M136.617 54.8192C136.617 54.9927 125.177 57.6203 110.973 60.6941C96.7693 63.7678 85.2056 66.1103 85.2056 65.9368C85.2056 65.7633 96.6454 63.1357 110.849 60.062C125.053 56.9882 136.579 54.6457 136.617 54.8192Z" fill="#263238"/>
<path d="M138.5 63.3465C138.5 63.52 127.048 66.1476 112.857 69.2089C98.6655 72.2703 87.1017 74.6252 87.0645 74.4517C87.0274 74.2781 98.5044 71.6506 112.72 68.5768C126.937 65.5031 138.426 63.173 138.5 63.3465Z" fill="#263238"/>
<path d="M140.298 71.8612C140.298 72.0347 128.858 74.6623 114.654 77.7361C100.45 80.8098 88.9238 83.1523 88.9238 82.9788C88.9238 82.8053 100.364 80.1777 114.567 77.104C128.771 74.0302 140.26 71.6877 140.298 71.8612Z" fill="#263238"/>
<path d="M118.36 85.5196C118.36 85.6931 112.237 87.1804 104.602 88.8288C96.9677 90.4772 90.7458 91.6671 90.7087 91.4936C90.6715 91.3201 96.8314 89.8452 104.466 88.1967C112.101 86.5483 118.323 85.3461 118.36 85.5196Z" fill="#263238"/>
<path d="M455.246 240.93L472.833 286.069L480.158 274.233L490.309 287.569L502.43 276.043L490.879 264.925L501.538 257.724L455.246 240.93Z" fill="#0FB3AF"/>
<path d="M448.639 247.61C446.629 249.267 444.486 250.756 442.231 252.06C440.093 253.544 437.833 254.846 435.477 255.952C437.491 254.305 439.634 252.821 441.884 251.514C444.025 250.029 446.284 248.723 448.639 247.61Z" fill="#263238"/>
<path d="M450.003 238.513C449.034 238.384 448.084 238.134 447.177 237.769C445.466 237.224 443.112 236.393 440.571 235.29C438.03 234.187 435.749 233.245 434.126 232.477C433.219 232.119 432.354 231.662 431.548 231.114C432.497 231.324 433.42 231.64 434.299 232.055L440.806 234.695L447.338 237.286C448.268 237.598 449.161 238.009 450.003 238.513Z" fill="#263238"/>
<path d="M455.308 218.025C455.63 218.82 455.847 219.653 455.952 220.504C456.25 222.053 456.609 224.222 456.906 226.615C457.204 229.007 457.402 231.2 457.489 232.812C457.603 233.667 457.603 234.534 457.489 235.39C456.927 232.521 456.514 229.625 456.25 226.714C455.781 223.836 455.467 220.936 455.308 218.025Z" fill="#263238"/>
<path d="M479.637 228.127C479.712 228.3 476.464 229.701 472.796 232.056C469.127 234.411 466.227 236.456 466.115 236.294C466.004 236.133 466.723 235.625 467.863 234.745C469.336 233.59 470.866 232.51 472.449 231.51C474.639 229.988 477.069 228.844 479.637 228.127Z" fill="#263238"/>
<path d="M46.3009 248.626C46.162 246.786 45.8844 244.959 45.4705 243.161C44.9407 241.074 44.1054 239.078 42.9917 237.236C41.514 234.791 39.5831 232.649 37.3028 230.928C34.3354 228.68 30.8511 227.214 27.1696 226.664C23.4881 226.114 19.7274 226.498 16.2327 227.779C14.2199 228.5 12.3272 229.519 10.6182 230.804C8.80601 232.108 7.22283 233.703 5.93316 235.526C3.13123 239.319 1.61927 243.911 1.61927 248.626C1.61927 253.342 3.13123 257.934 5.93316 261.727C7.22769 263.542 8.81025 265.133 10.6182 266.437C12.3243 267.726 14.2177 268.746 16.2327 269.461C19.7274 270.743 23.4881 271.126 27.1696 270.576C30.8511 270.026 34.3354 268.56 37.3028 266.313C39.5797 264.592 41.51 262.456 42.9917 260.017C44.1059 258.171 44.9411 256.17 45.4705 254.08C45.8838 252.285 46.1614 250.462 46.3009 248.626C46.3009 248.626 46.3009 248.75 46.3009 248.986V250.064C46.3045 250.646 46.2547 251.227 46.1522 251.799C46.074 252.59 45.9331 253.373 45.7308 254.142C45.2242 256.275 44.3878 258.315 43.2519 260.19C41.6166 262.967 39.4095 265.365 36.7769 267.224C34.1443 269.083 31.1465 270.361 27.9824 270.973C23.9818 271.727 19.8524 271.398 16.022 270.019C13.952 269.296 12.0076 268.255 10.2587 266.933C8.39395 265.597 6.76103 263.964 5.42502 262.099C2.53602 258.199 0.976562 253.474 0.976562 248.62C0.976562 243.767 2.53602 239.042 5.42502 235.142C6.11887 234.217 6.86801 233.336 7.66835 232.502C8.48541 231.717 9.35054 230.985 10.2587 230.308C12.0137 228.995 13.9566 227.955 16.022 227.222C19.8521 225.84 23.9833 225.515 27.9824 226.28C31.1468 226.887 34.1455 228.161 36.7785 230.018C39.4115 231.876 41.6184 234.273 43.2519 237.05C44.3857 238.926 45.2218 240.967 45.7308 243.099C45.9331 243.867 46.074 244.65 46.1522 245.441C46.2543 246.018 46.304 246.603 46.3009 247.189V248.255C46.3133 248.564 46.3009 248.626 46.3009 248.626Z" fill="#263238"/>
<path d="M23.8057 259.918C23.4866 256.163 23.379 252.393 23.4834 248.626C23.379 244.86 23.4866 241.09 23.8057 237.335C24.1404 241.089 24.2522 244.859 24.1403 248.626C24.2522 252.393 24.1404 256.164 23.8057 259.918Z" fill="#263238"/>
<path d="M35.0966 248.626C31.3461 248.946 27.5806 249.053 23.8179 248.949C20.0512 249.054 16.2815 248.946 12.5269 248.626C16.2811 248.3 20.0512 248.192 23.8179 248.304C27.5805 248.192 31.3465 248.3 35.0966 248.626Z" fill="#263238"/>
<path d="M420.059 151.766H100.203C83.9185 151.766 70.7173 164.967 70.7173 181.252V184.487C70.7173 200.771 83.9185 213.972 100.203 213.972H420.059C436.343 213.972 449.544 200.771 449.544 184.487V181.252C449.544 164.967 436.343 151.766 420.059 151.766Z" fill="white"/>
<path d="M365.624 151.208V213.972H418.609C426.933 213.972 434.917 210.666 440.804 204.782C446.691 198.897 450 190.915 450.003 182.59C450.003 178.468 449.191 174.386 447.613 170.578C446.036 166.77 443.723 163.31 440.807 160.396C437.892 157.481 434.431 155.17 430.622 153.594C426.813 152.017 422.731 151.207 418.609 151.208H365.624Z" fill="#3C3C3B"/>
<path d="M414.89 180.843C414.773 179.768 414.595 178.7 414.357 177.645C413.591 174.788 411.889 172.27 409.524 170.494C407.79 169.187 405.755 168.336 403.607 168.02C401.459 167.704 399.266 167.932 397.229 168.684C396.048 169.11 394.94 169.716 393.944 170.481C392.897 171.254 391.973 172.182 391.205 173.233C389.578 175.45 388.701 178.129 388.701 180.88C388.701 183.631 389.578 186.309 391.205 188.527C391.963 189.587 392.888 190.516 393.944 191.279C394.938 192.034 396.041 192.631 397.216 193.051C398.924 193.669 400.742 193.926 402.554 193.804C404.367 193.683 406.134 193.187 407.744 192.347C409.355 191.507 410.773 190.341 411.909 188.924C413.045 187.507 413.875 185.869 414.345 184.115C414.583 183.056 414.761 181.984 414.878 180.905C414.953 182.004 414.853 183.109 414.581 184.177C413.885 187.134 412.191 189.76 409.784 191.613C407.999 192.998 405.892 193.909 403.659 194.26C401.427 194.611 399.142 194.391 397.018 193.621C395.78 193.194 394.618 192.575 393.572 191.787C392.468 190.986 391.498 190.016 390.697 188.911C388.982 186.589 388.057 183.779 388.057 180.892C388.057 178.006 388.982 175.195 390.697 172.873C392.289 170.71 394.49 169.07 397.018 168.164C399.294 167.351 401.746 167.163 404.12 167.618C406.642 168.104 408.971 169.307 410.826 171.084C412.682 172.86 413.985 175.134 414.581 177.633C414.852 178.68 414.956 179.763 414.89 180.843Z" fill="white"/>
<path d="M427.186 199.384C424.531 197.867 421.98 196.173 419.551 194.315C417.002 192.62 414.575 190.748 412.288 188.713C414.947 190.225 417.498 191.919 419.923 193.782C422.472 195.478 424.899 197.35 427.186 199.384Z" fill="white"/>
<path d="M338.332 177.038H106.748V190.349H338.332V177.038Z" fill="#EBEBEB"/>
<path d="M420.075 213.861C420.075 213.861 420.806 213.861 422.219 213.725C423.097 213.672 423.971 213.56 424.834 213.39C426.037 213.202 427.225 212.933 428.392 212.584C431.654 211.594 434.723 210.051 437.464 208.023L438.703 207.106C439.1 206.759 439.484 206.387 439.881 206.028C440.718 205.279 441.505 204.476 442.236 203.624C443.041 202.781 443.674 201.752 444.442 200.773L445.409 199.174L445.904 198.344L446.326 197.464C447.569 194.993 448.446 192.354 448.929 189.631C449.028 188.912 449.139 188.18 449.251 187.449C449.362 186.718 449.338 185.949 449.375 185.193C449.375 183.681 449.375 182.095 449.375 180.508C449.198 173.014 446.156 165.871 440.874 160.551C435.593 155.23 428.473 152.135 420.98 151.903C412.527 151.828 403.554 151.903 394.159 151.903L100.232 152.002C93.1069 152.029 86.2351 154.645 80.8968 159.364C75.6146 164.014 72.2084 170.43 71.3161 177.41C71.1957 178.264 71.1253 179.125 71.1054 179.988C71.1054 180.843 71.0435 181.711 71.1054 182.578C71.0838 184.303 71.1499 186.028 71.3037 187.747C71.6819 191.153 72.6773 194.463 74.2411 197.513C77.3193 203.592 82.4149 208.412 88.6555 211.147C91.7252 212.456 94.9933 213.24 98.323 213.464C99.9714 213.576 101.645 213.564 103.281 213.564H166.193L298.34 213.638L387.416 213.737L411.647 213.799H417.943H420.087H417.943H411.647L387.416 213.861L298.34 213.96L166.193 214.035H103.268C101.595 214.035 99.9342 214.035 98.2362 213.935C93.0658 213.611 88.0712 211.934 83.7517 209.074C79.4322 206.214 75.939 202.27 73.6214 197.637C72.024 194.521 71.0076 191.14 70.6221 187.66C70.4591 185.917 70.3887 184.167 70.4114 182.417C70.4114 181.55 70.4114 180.682 70.4733 179.802C70.4876 178.918 70.5579 178.037 70.684 177.162C71.5902 170.029 75.0671 163.472 80.463 158.72C85.9388 153.884 92.9886 151.21 100.294 151.196L394.221 151.295C403.628 151.295 412.577 151.295 421.054 151.357C428.64 151.6 435.844 154.743 441.182 160.138C446.52 165.534 449.586 172.772 449.747 180.36C449.747 181.971 449.747 183.533 449.747 185.069C449.747 185.838 449.66 186.594 449.61 187.338C449.561 188.081 449.387 188.825 449.276 189.544C448.783 192.291 447.889 194.951 446.623 197.439L446.202 198.331L445.694 199.149C445.359 199.707 445.037 200.24 444.702 200.773C444.008 201.76 443.263 202.712 442.471 203.624C441.742 204.486 440.951 205.294 440.104 206.04C439.695 206.412 439.298 206.784 438.865 207.119L437.625 208.048C434.86 210.072 431.765 211.602 428.478 212.572C427.304 212.914 426.107 213.175 424.896 213.353C424.029 213.514 423.151 213.613 422.269 213.65C420.806 213.849 420.075 213.861 420.075 213.861Z" fill="#263238"/>
<path d="M255.935 175.303C254.807 173.989 254.696 172.824 257.236 172.65C262.826 172.142 266.941 169.7 267.598 168.288C268.255 166.875 266.47 165.499 264.958 166.342C263.221 167.095 261.391 167.612 259.517 167.879C258.011 168.133 256.474 168.133 254.968 167.879C253.667 167.68 252.489 167.457 251.498 167.246C251.498 167.246 245.586 166.007 243.033 163.974L230.515 177.348L236.389 183.979C237.269 185.216 238.451 186.207 239.822 186.858C241.193 187.509 242.708 187.798 244.223 187.697C249.255 187.201 256.034 183.594 256.034 183.594C256.951 182.181 265.057 187.189 267.672 189.06C270.287 190.932 272.209 190.461 272.109 188.664C272.047 187.424 264.19 181.5 261.562 179.703C259.53 178.433 257.643 176.946 255.935 175.265" fill="#FFBE9D"/>
<path d="M248.585 186.916C248.585 187.003 248.226 187.151 247.569 187.139C246.724 187.085 245.914 186.783 245.24 186.272C244.566 185.76 244.057 185.062 243.776 184.264C243.578 183.656 243.64 183.247 243.714 183.235C244.192 184.175 244.844 185.016 245.635 185.714C246.531 186.302 247.533 186.711 248.585 186.916Z" fill="#EB996E"/>
<path d="M253.543 184.97C253.543 185.044 253.183 185.181 252.564 185.144C251.758 185.064 250.991 184.758 250.353 184.26C249.714 183.762 249.23 183.092 248.957 182.33C248.771 181.748 248.808 181.363 248.883 181.351C248.957 181.339 249.403 182.727 250.754 183.755C251.615 184.303 252.556 184.713 253.543 184.97Z" fill="#EB996E"/>
<path d="M267.04 45.8333C267.561 56.8145 280.959 71.861 290.924 74.3398C296.154 75.5792 302.178 75.0215 306.33 78.5414C313.456 84.5774 309.292 97.1326 314.089 105.189C317.038 110.147 322.901 112.625 326.222 117.323C331.738 125.181 328.032 137.054 320.509 142.904C312.985 148.754 302.946 149.87 293.514 149.622C272.754 149.089 251.498 142.495 236.501 127.783C229.449 120.867 201.872 99.5371 211.49 48.9566" fill="#263238"/>
<path d="M341.951 124.412L263.037 100.987C259.359 99.3796 255.502 98.2187 251.548 97.5293L224.9 97.7028C221.381 97.7146 217.902 98.4442 214.675 99.847L142.851 123.706C137.534 125.391 133.865 130.845 133.865 137.054C133.865 144.701 139.381 150.911 146.185 150.911H179.401L179.265 151.394L294.63 151.828L338.666 151.915C345.47 151.915 350.986 145.656 350.986 137.922C350.936 131.626 347.268 126.11 341.951 124.412Z" fill="#0FB3AF"/>
<path d="M326.135 132.952C325.896 132.976 325.655 132.976 325.416 132.952L323.384 132.716C321.624 132.493 319.071 132.208 315.947 131.911C307.709 131.116 299.435 130.769 291.159 130.87C282.897 130.991 274.647 131.554 266.445 132.555C263.297 132.939 260.744 133.286 259.009 133.559L256.976 133.844C256.743 133.887 256.506 133.908 256.27 133.906C256.486 133.811 256.716 133.748 256.951 133.72L258.959 133.311C260.707 132.964 263.247 132.543 266.396 132.072C274.612 130.938 282.89 130.313 291.184 130.2C299.464 130.098 307.743 130.512 315.972 131.44C319.133 131.799 321.686 132.159 323.409 132.456L325.429 132.803C325.67 132.819 325.908 132.869 326.135 132.952Z" fill="#263238"/>
<g opacity="0.6">
<path opacity="0.6" d="M307.619 113.778C307.559 113.876 307.484 113.964 307.396 114.038L306.702 114.769C306.082 115.402 305.165 116.344 303.913 117.484C302.403 118.875 300.8 120.163 299.117 121.338C296.882 122.932 294.387 124.124 291.742 124.858C288.498 125.663 285.098 125.595 281.889 124.66C278.261 123.537 274.776 121.998 271.502 120.074C267.941 117.946 264.175 116.182 260.261 114.807C256.052 113.362 251.448 113.598 247.408 115.464C243.256 117.335 239.724 120.186 235.869 122.243C234.915 122.776 233.899 123.185 232.919 123.631C231.925 124.018 230.912 124.353 229.883 124.635C227.902 125.201 225.866 125.554 223.81 125.689C216.642 126.209 209.513 124.249 203.62 120.136C201.456 118.484 199.418 116.673 197.522 114.72C196.085 113.276 194.502 111.984 192.8 110.865C191.329 109.938 189.684 109.323 187.966 109.056C188.42 109.063 188.872 109.113 189.317 109.205C190.595 109.478 191.819 109.964 192.936 110.642C194.676 111.743 196.296 113.022 197.77 114.46C199.676 116.373 201.718 118.146 203.88 119.764C209.709 123.757 216.728 125.637 223.772 125.094C225.787 124.956 227.781 124.607 229.722 124.053C230.726 123.77 231.715 123.435 232.684 123.049C233.638 122.615 234.63 122.218 235.559 121.685C239.364 119.665 242.884 116.802 247.148 114.869C251.331 112.95 256.092 112.71 260.447 114.199C264.398 115.597 268.197 117.391 271.787 119.554C275.014 121.467 278.449 123.006 282.025 124.139C285.146 125.078 288.461 125.172 291.63 124.412C294.234 123.713 296.699 122.572 298.918 121.041C300.605 119.909 302.216 118.667 303.74 117.323C304.979 116.22 305.958 115.315 306.615 114.72L307.346 114.026C307.52 113.84 307.607 113.766 307.619 113.778Z" fill="white"/>
</g>
<g opacity="0.2">
<path opacity="0.2" d="M184.979 132.791L234.865 142.185L229.102 151.58L227.59 151.605L184.979 132.791Z" fill="black"/>
</g>
<g opacity="0.6">
<path opacity="0.6" d="M335.989 122.937C336.016 123.189 336.016 123.442 335.989 123.693C335.961 124.425 335.887 125.153 335.766 125.875C334.971 130.408 332.566 134.502 328.993 137.403C325.42 140.304 320.919 141.818 316.319 141.665C313.795 141.507 311.299 141.049 308.883 140.302C306.404 139.595 303.987 138.814 301.62 138.343C299.359 137.839 297.03 137.718 294.729 137.984C291.446 138.378 288.292 139.496 285.495 141.258C282.698 143.02 280.327 145.381 278.554 148.172L277.91 149.25C277.753 149.564 277.617 149.837 277.501 150.068C277.399 150.305 277.27 150.53 277.117 150.737C277.185 150.491 277.272 150.251 277.377 150.019C277.489 149.771 277.6 149.486 277.736 149.163L278.344 148.048C279.687 145.696 281.481 143.632 283.624 141.975C286.816 139.464 290.635 137.878 294.667 137.389C297.032 137.107 299.428 137.22 301.756 137.724C304.173 138.195 306.59 138.963 309.081 139.682C311.461 140.419 313.92 140.872 316.406 141.033C319.528 141.136 322.626 140.464 325.424 139.078C328.223 137.691 330.635 135.634 332.444 133.088C333.962 130.915 335.024 128.457 335.567 125.862C335.927 123.991 335.914 122.925 335.989 122.937Z" fill="white"/>
</g>
<path d="M142.913 149.312C142.913 149.312 233.093 189.073 232.696 188.193C232.3 187.313 247.012 161.198 247.012 161.198L173.948 125.082L142.913 149.312Z" fill="#0FB3AF"/>
<path d="M184.359 130.237C184.998 130.45 185.619 130.711 186.218 131.018L191.176 133.361C195.365 135.356 201.091 138.157 207.449 141.293C213.807 144.429 219.509 147.292 223.636 149.399L228.507 151.877C229.116 152.163 229.701 152.499 230.254 152.881C229.613 152.682 228.991 152.425 228.395 152.113L223.438 149.77C219.261 147.775 213.522 144.974 207.164 141.838C200.806 138.703 195.105 135.839 190.977 133.732L186.106 131.254C185.499 130.96 184.914 130.621 184.359 130.237Z" fill="#263238"/>
<g opacity="0.6">
<path opacity="0.6" d="M204.115 142.309C203.999 143.246 203.714 144.153 203.272 144.987C202.076 147.29 200.197 149.169 197.893 150.366C196.346 151.219 194.672 151.822 192.936 152.15C190.915 152.462 188.859 152.462 186.838 152.15C182.256 151.357 177.821 149.869 173.688 147.738C169.571 145.654 165.257 143.985 160.81 142.756C158.882 142.271 156.898 142.041 154.91 142.074C153.176 142.121 151.457 142.413 149.804 142.942C147.386 143.658 145.209 145.021 143.508 146.883C142.928 147.597 142.386 148.342 141.884 149.114C142.224 148.24 142.71 147.431 143.322 146.722C144.994 144.743 147.195 143.281 149.668 142.508C151.352 141.937 153.109 141.611 154.886 141.541C156.926 141.482 158.964 141.699 160.946 142.186C165.419 143.408 169.752 145.094 173.874 147.218C177.955 149.317 182.323 150.804 186.838 151.63C188.801 151.934 190.799 151.934 192.762 151.63C194.467 151.335 196.115 150.775 197.646 149.969C199.898 148.844 201.766 147.075 203.012 144.887C203.438 144.054 203.806 143.193 204.115 142.309Z" fill="white"/>
</g>
<g opacity="0.6">
<path opacity="0.6" d="M242.401 169.589C242.401 169.7 240.405 169.378 237.183 169.316C235.299 169.298 233.415 169.397 231.543 169.614C229.254 169.893 226.988 170.34 224.764 170.952C222.552 171.597 220.39 172.4 218.294 173.357C216.588 174.159 214.932 175.066 213.336 176.071C210.622 177.806 209.11 179.132 209.036 179.033C209.327 178.662 209.664 178.328 210.04 178.042C211.004 177.196 212.023 176.414 213.089 175.699C214.666 174.616 216.323 173.655 218.046 172.824C222.261 170.785 226.799 169.497 231.457 169.019C233.359 168.827 235.273 168.777 237.183 168.87C238.467 168.914 239.747 169.046 241.013 169.267C241.488 169.311 241.955 169.419 242.401 169.589Z" fill="white"/>
</g>
<g opacity="0.2">
<path opacity="0.2" d="M253.518 97.3558C252.031 101.52 254.262 106.032 256.443 109.874C257.833 112.633 259.593 115.189 261.674 117.472C262.717 118.613 263.98 119.532 265.389 120.171C266.797 120.81 268.32 121.157 269.866 121.19C273.919 121.053 277.538 118.066 281.591 118.302C284.343 118.463 286.747 120.087 289.028 121.624C292.896 124.431 297.091 126.757 301.521 128.552C305.991 130.34 310.917 130.649 315.576 129.432C317.885 128.792 319.993 127.571 321.696 125.885C323.399 124.199 324.642 122.105 325.305 119.802" fill="black"/>
</g>
<path d="M253.853 96.2156C254.064 91.3571 254.324 86.9696 254.324 86.9696C254.324 86.9696 265.181 85.5938 265.64 74.5754C266.098 63.557 265.008 38.0003 265.008 38.0003L245.09 28.3577L223.611 45.7095L226.97 96.5255C227.206 100.049 228.814 103.34 231.449 105.692C234.083 108.044 237.535 109.269 241.062 109.106C244.418 108.939 247.589 107.524 249.956 105.139C252.322 102.755 253.712 99.5721 253.853 96.2156Z" fill="#FFBE9D"/>
<path d="M263.136 57.9671C263.134 58.2376 263.052 58.5014 262.9 58.7254C262.748 58.9495 262.534 59.1238 262.284 59.2268C262.034 59.3297 261.759 59.3566 261.494 59.3041C261.228 59.2516 260.984 59.122 260.792 58.9316C260.6 58.7412 260.468 58.4984 260.413 58.2335C260.358 57.9686 260.383 57.6934 260.484 57.4423C260.584 57.1913 260.757 56.9755 260.98 56.8219C261.202 56.6684 261.465 56.5839 261.736 56.579C262.105 56.579 262.459 56.7248 262.722 56.9848C262.984 57.2448 263.133 57.5978 263.136 57.9671Z" fill="#263238"/>
<path d="M264.475 55.0174C264.301 55.2033 263.235 54.3233 261.785 54.2738C260.335 54.2242 259.195 54.9678 259.034 54.7695C258.872 54.5712 259.133 54.3357 259.616 53.9887C260.259 53.5331 261.035 53.3061 261.822 53.3442C262.607 53.3875 263.357 53.6782 263.966 54.1746C264.413 54.5712 264.561 54.9306 264.475 55.0174Z" fill="#263238"/>
<path d="M246.677 57.9672C246.677 58.2407 246.596 58.508 246.444 58.7357C246.293 58.9634 246.078 59.1414 245.825 59.2471C245.573 59.3529 245.295 59.3818 245.027 59.3302C244.758 59.2786 244.511 59.1488 244.316 58.9572C244.121 58.7655 243.986 58.5205 243.93 58.2529C243.874 57.9852 243.898 57.7069 243.999 57.4529C244.1 57.1989 244.274 56.9804 244.499 56.8249C244.724 56.6695 244.99 56.5839 245.264 56.579C245.448 56.5774 245.63 56.612 245.801 56.6809C245.971 56.7498 246.127 56.8516 246.258 56.9805C246.389 57.1094 246.493 57.2628 246.565 57.4321C246.637 57.6014 246.675 57.7832 246.677 57.9672Z" fill="#263238"/>
<path d="M248.015 55.3025C247.842 55.4884 246.776 54.6084 245.313 54.5588C243.851 54.5092 242.723 55.2529 242.574 55.0546C242.425 54.8563 242.673 54.6208 243.157 54.2737C243.795 53.8199 244.568 53.593 245.35 53.6292C246.139 53.6645 246.893 53.961 247.495 54.472C247.953 54.8563 248.102 55.2157 248.015 55.3025Z" fill="#263238"/>
<path d="M253.593 68.0809C254.399 67.8501 255.233 67.7251 256.072 67.7091C256.443 67.7091 256.815 67.6223 256.877 67.3496C256.923 66.9223 256.841 66.4912 256.642 66.1102C256.307 65.1063 255.948 64.0652 255.563 62.9621C254.566 60.2894 253.767 57.5471 253.171 54.7572C254.372 57.3421 255.375 60.0145 256.171 62.7514C256.53 63.8545 256.877 64.908 257.199 65.9119C257.433 66.4108 257.494 66.9734 257.373 67.5108C257.319 67.6482 257.234 67.7713 257.124 67.8702C257.014 67.9692 256.883 68.0413 256.741 68.0809C256.53 68.1329 256.314 68.1579 256.096 68.1553C255.262 68.2434 254.42 68.2184 253.593 68.0809Z" fill="#263238"/>
<path d="M248.71 69.6053C247.197 68.6138 252.911 72.0841 255.935 72.0221C255.419 72.7999 254.65 73.376 253.758 73.6536C252.867 73.9312 251.907 73.8934 251.04 73.5466C247.842 72.2204 248.71 69.6053 248.71 69.6053Z" fill="white"/>
<path d="M254.324 86.9694C249.18 86.8276 244.188 85.1911 239.959 82.2596C239.959 82.2596 243.343 90.3282 254.138 89.6961L254.324 86.9694Z" fill="#EB996E"/>
<path d="M211.899 56.5791C211.899 66.1598 209.358 91.5058 226.771 95.0009L226.189 60.1734C226.189 60.1734 243.107 52.1915 246.02 35.571L246.119 35.6701C247.197 38.149 249.131 43.5652 247.953 47.9527L263.805 51.8569L265.627 53.5177C265.627 53.5177 271.266 41.1236 260.384 29.9688C249.502 18.8141 240.194 26.8827 234.357 26.2506C230.477 25.7796 217.005 25.8664 211.539 49.0434L211.899 56.5791Z" fill="#263238"/>
<path d="M226.623 60.5081C225.148 59.591 223.128 60.347 221.963 61.6236C221.028 62.6372 220.448 63.9273 220.311 65.2992C220.173 66.6712 220.485 68.0507 221.2 69.2299C221.915 70.409 222.993 71.3239 224.273 71.8365C225.553 72.3491 226.965 72.4317 228.296 72.0719" fill="#FFBE9D"/>
<path d="M226.288 68.7625C226.288 68.8369 225.793 68.9236 225.049 68.7625C224.526 68.6309 224.042 68.3752 223.639 68.0171C223.235 67.659 222.924 67.2089 222.731 66.7051C222.527 66.1141 222.554 65.4677 222.806 64.8955C223.01 64.4471 223.337 64.065 223.748 63.7924C224.442 63.3463 224.987 63.3834 224.987 63.4578C224.987 63.5322 224.553 63.6933 224.033 64.1643C223.699 64.4398 223.457 64.8098 223.337 65.2257C223.218 65.6415 223.227 66.0838 223.363 66.4944C223.531 66.9114 223.782 67.2895 224.102 67.6051C224.422 67.9207 224.803 68.167 225.223 68.3287C225.83 68.5766 226.288 68.6633 226.288 68.7625Z" fill="#EB996E"/>
<path d="M224.838 70.9438C224.536 71.0038 224.268 71.1739 224.084 71.4211C223.901 71.6682 223.816 71.9747 223.846 72.2809C223.876 72.5871 224.019 72.8712 224.247 73.0778C224.475 73.2844 224.772 73.3989 225.08 73.3989C225.387 73.3989 225.684 73.2844 225.912 73.0778C226.14 72.8712 226.283 72.5871 226.313 72.2809C226.343 71.9747 226.259 71.6682 226.075 71.4211C225.892 71.1739 225.623 71.0038 225.321 70.9438" fill="#0FB3AF"/>
<path d="M256.939 151.89V133.683C256.939 133.683 229.907 139.285 229.412 151.667L256.939 151.89Z" fill="#FFBE9D"/>
<path d="M254.125 94.2944C254.58 99.9018 257.101 105.14 261.201 108.993C265.301 112.845 270.686 115.037 276.311 115.141C280.302 115.203 284.504 114.261 288.147 115.885C291.32 117.31 293.365 120.372 295.857 122.789C298.829 125.592 302.499 127.547 306.484 128.449C310.469 129.352 314.623 129.169 318.513 127.92C321.797 126.817 326.991 124.462 327.598 121.066C328.069 118.475 324.896 115.897 323.037 114.051C321.073 112.291 318.822 110.883 316.381 109.886C297.121 100.838 276.46 94.2696 255.216 93.1417" fill="#263238"/>
</svg>
