<svg width="638" height="315" viewBox="0 0 638 315" fill="none" xmlns="http://www.w3.org/2000/svg">
<g clip-path="url(#clip0_1_406)">
<path d="M50.9272 314.828H0C0.363896 313.708 0.971748 312.683 1.77977 311.827C2.5878 310.97 3.57588 310.303 4.67286 309.874C6.97598 309.066 9.48084 309.036 11.8028 309.788C11.3804 309.668 10.8027 308.927 10.501 308.565C9.74693 307.845 9.23487 306.909 9.03534 305.886C8.94674 305.292 8.98058 304.686 9.13476 304.105C9.28894 303.524 9.56023 302.981 9.93197 302.509C10.5966 301.761 11.4371 301.189 12.3777 300.846C13.3184 300.503 14.3297 300.4 15.3204 300.545L15.6135 300.588C15.9964 300.646 16.3721 300.744 16.7343 300.881C18.294 301.543 19.7021 302.516 20.8727 303.741C21.0968 303.956 21.3124 304.189 21.5193 304.421C21.5193 304.421 18.2086 301.673 17.4327 299.589C14.5531 293.645 20.6313 285.021 28.2009 287.468C31.3102 288.914 33.834 291.375 35.3568 294.446C29.3217 285.4 39.3313 279.896 42.9006 288.045C40.6935 281.326 43.9783 274.262 50.66 278.242L50.9359 278.362L50.9272 314.828Z" fill="#479DA3"/>
<path d="M50.9272 314.828H20.9243C21.1401 314.169 21.4984 313.566 21.9737 313.061C22.449 312.557 23.0297 312.163 23.6746 311.907C25.0351 311.437 26.512 311.422 27.8819 311.864C27.6052 311.156 27.6172 310.369 27.9154 309.669C28.2136 308.97 28.7742 308.416 29.4768 308.126C30.1683 307.924 30.8946 307.871 31.6079 307.971C32.3213 308.07 33.0054 308.32 33.6152 308.703C32.4734 308.092 31.6118 307.064 31.2098 305.834C29.4855 302.337 33.0979 297.219 37.5552 298.693C39.3866 299.544 40.8734 300.994 41.7711 302.802C38.2018 297.469 44.1162 294.23 46.2112 299.029C44.1679 293.782 48.1079 290.707 50.9272 291.887V314.828Z" fill="#7BBFBA"/>
<path d="M19.8123 286.15C20.3711 286.594 21.0736 286.818 21.7866 286.779C21.6934 286.028 21.3609 285.327 20.8383 284.78C20.2829 284.336 19.5829 284.112 18.8726 284.151C18.9652 284.9 19.2943 285.6 19.8123 286.15Z" fill="#479DA3"/>
<path d="M42.9611 294.558C43.3976 295.246 44.073 295.749 44.8578 295.97C45.0332 295.126 44.9335 294.247 44.5733 293.464C44.1428 292.777 43.4734 292.274 42.6938 292.051C42.5093 292.893 42.6031 293.773 42.9611 294.558Z" fill="#7BBFBA"/>
<path d="M22.2607 283.281C22.0903 284.323 22.25 285.392 22.7176 286.339C23.552 285.73 24.1588 284.86 24.4419 283.867C24.6123 282.825 24.4526 281.756 23.985 280.809C23.1506 281.418 22.5438 282.288 22.2607 283.281Z" fill="#479DA3"/>
<path d="M228.134 226.434H243.445V198.092H228.134V226.434Z" fill="white"/>
<path d="M96.3541 176.461L202.881 176.4L265.663 247.565H217.409H81.8786H33.624L96.3541 176.461Z" fill="#3C3C3B"/>
<path d="M38.9949 310.52H109.433L109.433 247.565H38.9949L38.9949 310.52Z" fill="white"/>
<path d="M38.9948 310.52H46.6938L46.6938 247.565H38.9948L38.9948 310.52Z" fill="#0FB3AF"/>
<path d="M101.725 310.52H109.424L109.424 247.565H101.725L101.725 310.52Z" fill="#0FB3AF"/>
<path d="M101.734 256.74H46.6938V257.386H101.734V256.74Z" fill="#E1ECEF"/>
<path d="M101.734 265.604H46.6938V266.25H101.734V265.604Z" fill="#E1ECEF"/>
<path d="M101.734 274.477H46.6938V275.123H101.734V274.477Z" fill="#E1ECEF"/>
<path d="M101.734 283.342H46.6938V283.988H101.734V283.342Z" fill="#E1ECEF"/>
<path d="M101.734 292.214H46.6938V292.861H101.734V292.214Z" fill="#E1ECEF"/>
<path d="M101.734 301.079H46.6938V301.725H101.734V301.079Z" fill="#E1ECEF"/>
<path d="M109.424 256.74H101.725V257.386H109.424V256.74Z" fill="#078E87"/>
<path d="M109.424 265.604H101.725V266.25H109.424V265.604Z" fill="#078E87"/>
<path d="M109.424 274.477H101.725V275.123H109.424V274.477Z" fill="#078E87"/>
<path d="M109.424 283.342H101.725V283.988H109.424V283.342Z" fill="#078E87"/>
<path d="M109.424 292.214H101.725V292.861H109.424V292.214Z" fill="#078E87"/>
<path d="M109.424 301.079H101.725V301.725H109.424V301.079Z" fill="#078E87"/>
<path d="M46.6853 256.74H38.9863V257.386H46.6853V256.74Z" fill="#078E87"/>
<path d="M46.6853 265.604H38.9863V266.25H46.6853V265.604Z" fill="#078E87"/>
<path d="M46.6853 274.477H38.9863V275.123H46.6853V274.477Z" fill="#078E87"/>
<path d="M46.6853 283.342H38.9863V283.988H46.6853V283.342Z" fill="#078E87"/>
<path d="M46.6853 292.214H38.9863V292.861H46.6853V292.214Z" fill="#078E87"/>
<path d="M46.6853 301.079H38.9863V301.725H46.6853V301.079Z" fill="#078E87"/>
<path d="M52.2204 297.96H96.4746V271.333H52.2204V297.96Z" fill="white"/>
<path d="M189.863 310.52H260.3V247.565H189.863V310.52Z" fill="white"/>
<path d="M260.301 256.74H190.466V257.386H260.301V256.74Z" fill="#E1ECEF"/>
<path d="M260.301 265.604H190.466V266.25H260.301V265.604Z" fill="#E1ECEF"/>
<path d="M260.301 274.477H190.466V275.123H260.301V274.477Z" fill="#E1ECEF"/>
<path d="M260.301 283.342H190.466V283.988H260.301V283.342Z" fill="#E1ECEF"/>
<path d="M260.301 292.214H190.466V292.861H260.301V292.214Z" fill="#E1ECEF"/>
<path d="M260.301 301.079H190.466V301.725H260.301V301.079Z" fill="#E1ECEF"/>
<path d="M201.898 310.512H248.273V260.496H201.898V310.512Z" fill="#F43D4F"/>
<path d="M201.89 262.701L248.273 270.222V260.504H201.89V262.701Z" fill="#B72E41"/>
<path d="M189.863 310.52H192.949L191.018 247.565H189.863V310.52Z" fill="#9BB8CC"/>
<path d="M209.546 310.52H240.505V271.333H209.546V310.52Z" fill="white"/>
<path d="M226.185 308.341H238.264V273.133H226.185V308.341Z" fill="#445C77"/>
<path d="M211.908 308.341H223.987V273.133H211.908V308.341Z" fill="#445C77"/>
<path d="M86.9737 295.884H94.4141V273.133H86.9737V295.884Z" fill="#606060"/>
<path d="M63.6095 295.884H84.8184V273.133H63.6095V295.884Z" fill="#606060"/>
<path d="M54.005 295.884H61.4453V273.133H54.005V295.884Z" fill="#606060"/>
<path d="M52.229 270.988H96.4746H97.1298L97.673 297.96H96.4746V271.333H52.229V270.988Z" fill="#898981"/>
<path d="M209.537 270.79H240.497H240.799H241.187L241.566 310.52H240.497V271.333H209.537V270.79Z" fill="#B72E41"/>
<path d="M96.4746 297.745H52.229V298.374L97.673 300.295V297.745H96.4746Z" fill="#898981"/>
<path d="M189.863 248.599L260.301 252.45V247.565H189.863V248.599Z" fill="#9BB8CC"/>
<path d="M101.725 247.565V252.028L46.6938 249.021V247.565H101.725Z" fill="#898981"/>
<path d="M46.694 247.565V249.021L38.9863 248.599V247.565H46.694Z" fill="#078E87"/>
<path d="M109.424 247.565V252.45L101.725 252.028V247.565H109.424Z" fill="#078E87"/>
<path d="M226.34 205.268H245.239V201.848H226.34V205.268Z" fill="#0F3554"/>
<path d="M243.446 205.276V208.007L228.134 206.258V205.276H243.446Z" fill="#9BB8CC"/>
<path d="M109.424 310.52H189.863V212.642L149.644 181.285L109.424 212.642V310.52Z" fill="white"/>
<path d="M149.644 181.285L189.863 212.642V219.732L151.523 190.115L109.424 222.936V212.642L149.644 181.285Z" fill="#898981"/>
<path d="M103.036 213.477L149.644 178.528L196.217 213.822L191.682 218.362L149.644 185.584L107.786 218.224L103.036 213.477Z" fill="white"/>
<path d="M165.024 308.341H177.103V273.133H165.024V308.341Z" fill="#445C77"/>
<path d="M150.747 308.341H162.826V273.133H150.747V308.341Z" fill="#606060"/>
<path d="M136.47 308.341H148.548V273.133H136.47V308.341Z" fill="#606060"/>
<path d="M122.184 308.341H134.263V273.133H122.184V308.341Z" fill="#606060"/>
<path d="M120.77 270.988H180.034L180.948 310.52H179.086V271.333H120.77V270.988Z" fill="#9BB8CC"/>
<path d="M150.747 248.478H162.826V213.271H150.747V248.478Z" fill="#606060"/>
<path d="M136.47 248.478H148.548V213.271H136.47V248.478Z" fill="#606060"/>
<path d="M134.513 211.134H165.636L166.559 250.658H164.697V211.47H134.513V211.134Z" fill="#9BB8CC"/>
<path d="M118.003 253.656H181.276V250.408H118.003V253.656Z" fill="#3C3C3B"/>
<path d="M118.011 253.647H181.276V250.399L183.707 253.647V256.705L118.011 254.371V253.647Z" fill="#9BB8CC"/>
<path d="M177.491 250.399H178.517V241.544H177.491V250.399Z" fill="#7BBFBA"/>
<path d="M143.212 250.399H144.238V241.544H143.212V250.399Z" fill="#7BBFBA"/>
<path d="M154.635 250.399H155.661V241.544H154.635V250.399Z" fill="#7BBFBA"/>
<path d="M131.788 250.399H132.814V241.544H131.788V250.399Z" fill="#7BBFBA"/>
<path d="M166.067 250.399H167.093V241.544H166.067V250.399Z" fill="#7BBFBA"/>
<path d="M120.365 250.399H121.391V241.544H120.365V250.399Z" fill="#7BBFBA"/>
<path d="M177.491 242.379H178.517V241.544H177.491V242.379Z" fill="#4A938C"/>
<path d="M143.212 242.379H144.238V241.544H143.212V242.379Z" fill="#4A938C"/>
<path d="M154.635 242.379H155.661V241.544H154.635V242.379Z" fill="#4A938C"/>
<path d="M131.788 242.379H132.814V241.544H131.788V242.379Z" fill="#4A938C"/>
<path d="M166.067 242.379H167.093V241.544H166.067V242.379Z" fill="#4A938C"/>
<path d="M120.365 242.379H121.391V241.544H120.365V242.379Z" fill="#4A938C"/>
<path d="M119.434 241.552H179.922V239.304L119.434 239.829V241.552Z" fill="#7BBFBA"/>
<path d="M36.7879 314.836H264.93V310.52H36.7879V314.836Z" fill="#7BBFBA"/>
<path d="M3.61241 307.281H53.5396V305.912H3.61241V307.281Z" fill="#B6CCD8"/>
<path d="M3.61241 312.864H53.5396V311.494H3.61241V312.864Z" fill="#B6CCD8"/>
<path d="M49.8066 314.828H52.1776C52.2115 314.829 52.2454 314.823 52.2772 314.811C52.309 314.799 52.3382 314.781 52.363 314.758C52.3878 314.735 52.4078 314.707 52.4219 314.676C52.4359 314.645 52.4437 314.612 52.4448 314.578V304.24C52.4448 304.184 52.4267 304.13 52.3931 304.085L51.1947 302.638C51.1697 302.606 51.1377 302.58 51.1011 302.562C51.0645 302.544 51.0243 302.535 50.9835 302.535C50.9427 302.535 50.9025 302.544 50.8659 302.562C50.8293 302.58 50.7972 302.606 50.7723 302.638L49.5911 304.111C49.555 304.155 49.5338 304.209 49.5308 304.266V314.604C49.5394 314.669 49.5728 314.729 49.6241 314.771C49.6754 314.812 49.7407 314.833 49.8066 314.828Z" fill="white"/>
<path d="M44.8146 314.828H47.2028C47.2368 314.829 47.2706 314.823 47.3025 314.811C47.3343 314.799 47.3634 314.781 47.3882 314.758C47.4131 314.735 47.4331 314.707 47.4471 314.676C47.4612 314.645 47.4689 314.612 47.4701 314.578V304.24C47.4701 304.184 47.4519 304.13 47.4183 304.085L46.2199 302.638C46.195 302.606 46.1629 302.58 46.1263 302.562C46.0897 302.544 46.0495 302.535 46.0087 302.535C45.9679 302.535 45.9277 302.544 45.8911 302.562C45.8545 302.58 45.8225 302.606 45.7975 302.638L44.6077 304.111C44.5684 304.153 44.5468 304.209 44.5474 304.266V314.604C44.5559 314.668 44.5881 314.726 44.6375 314.767C44.687 314.809 44.7502 314.83 44.8146 314.828Z" fill="white"/>
<path d="M39.8229 314.828H42.2111C42.2451 314.829 42.2789 314.823 42.3108 314.811C42.3426 314.799 42.3717 314.781 42.3965 314.758C42.4214 314.735 42.4414 314.707 42.4554 314.676C42.4694 314.645 42.4772 314.612 42.4784 314.578V304.24C42.4784 304.184 42.4602 304.13 42.4266 304.085L41.2282 302.638C41.2033 302.606 41.1712 302.58 41.1346 302.562C41.098 302.544 41.0578 302.535 41.017 302.535C40.9762 302.535 40.936 302.544 40.8994 302.562C40.8628 302.58 40.8308 302.606 40.8058 302.638L39.616 304.111C39.5767 304.153 39.5551 304.209 39.5557 304.266V314.604C39.5642 314.668 39.5964 314.726 39.6458 314.767C39.6953 314.809 39.7585 314.83 39.8229 314.828Z" fill="white"/>
<path d="M34.8307 314.828H37.2189C37.2529 314.829 37.2867 314.823 37.3186 314.811C37.3504 314.799 37.3795 314.781 37.4044 314.758C37.4292 314.735 37.4492 314.707 37.4632 314.676C37.4773 314.645 37.4851 314.612 37.4862 314.578V304.24C37.4867 304.183 37.4651 304.127 37.4258 304.085L36.236 302.638C36.2111 302.606 36.179 302.58 36.1424 302.562C36.1058 302.544 36.0656 302.535 36.0248 302.535C35.984 302.535 35.9438 302.544 35.9072 302.562C35.8706 302.58 35.8386 302.606 35.8136 302.638L34.6152 304.111C34.5816 304.156 34.5635 304.21 34.5635 304.266V314.604C34.572 314.668 34.6042 314.726 34.6536 314.767C34.7031 314.809 34.7663 314.83 34.8307 314.828Z" fill="white"/>
<path d="M29.839 314.828H32.2272C32.2612 314.829 32.295 314.823 32.3269 314.811C32.3587 314.799 32.3878 314.781 32.4127 314.758C32.4375 314.735 32.4575 314.707 32.4715 314.676C32.4856 314.645 32.4934 314.612 32.4945 314.578V304.24C32.495 304.183 32.4734 304.127 32.4341 304.085L31.2444 302.638C31.2194 302.606 31.1873 302.58 31.1507 302.562C31.1141 302.544 31.0739 302.535 31.0331 302.535C30.9924 302.535 30.9521 302.544 30.9155 302.562C30.8789 302.58 30.8469 302.606 30.8219 302.638L29.6235 304.111C29.5899 304.156 29.5718 304.21 29.5718 304.266V314.604C29.5803 314.668 29.6125 314.726 29.6619 314.767C29.7114 314.809 29.7746 314.83 29.839 314.828Z" fill="white"/>
<path d="M24.8473 314.828H27.2355C27.2695 314.829 27.3033 314.823 27.3352 314.811C27.367 314.799 27.3961 314.781 27.421 314.758C27.4458 314.735 27.4658 314.707 27.4798 314.676C27.4939 314.645 27.5017 314.612 27.5028 314.578V304.24C27.4997 304.184 27.4785 304.129 27.4424 304.085L26.2526 302.638C26.2277 302.606 26.1956 302.58 26.159 302.562C26.1224 302.544 26.0822 302.535 26.0414 302.535C26.0007 302.535 25.9604 302.544 25.9238 302.562C25.8872 302.58 25.8552 302.606 25.8302 302.638L24.6318 304.111C24.5982 304.156 24.5801 304.21 24.5801 304.266V314.604C24.5886 314.668 24.6208 314.726 24.6702 314.767C24.7197 314.809 24.7829 314.83 24.8473 314.828Z" fill="white"/>
<path d="M19.8552 314.828H22.2433C22.2773 314.829 22.3111 314.823 22.343 314.811C22.3748 314.799 22.4039 314.781 22.4288 314.758C22.4536 314.735 22.4736 314.707 22.4876 314.676C22.5017 314.645 22.5095 314.612 22.5106 314.578V304.24C22.5075 304.184 22.4864 304.129 22.4502 304.085L21.2605 302.638C21.2355 302.606 21.2035 302.58 21.1668 302.562C21.1302 302.544 21.09 302.535 21.0492 302.535C21.0085 302.535 20.9682 302.544 20.9316 302.562C20.895 302.58 20.863 302.606 20.838 302.638L19.6396 304.111C19.606 304.156 19.5879 304.21 19.5879 304.266V314.604C19.5964 314.668 19.6286 314.726 19.678 314.767C19.7275 314.809 19.7907 314.83 19.8552 314.828Z" fill="white"/>
<path d="M14.8548 314.828H17.2516C17.2856 314.829 17.3194 314.823 17.3513 314.811C17.3831 314.8 17.4122 314.781 17.4371 314.758C17.4619 314.735 17.4819 314.707 17.4959 314.676C17.51 314.645 17.5178 314.612 17.5189 314.578V304.24C17.5158 304.184 17.4947 304.129 17.4585 304.085L16.2601 302.638C16.236 302.606 16.2048 302.58 16.1689 302.562C16.133 302.544 16.0934 302.535 16.0532 302.535C16.0131 302.535 15.9735 302.544 15.9376 302.562C15.9016 302.58 15.8704 302.606 15.8463 302.638L14.6479 304.111C14.6143 304.156 14.5962 304.21 14.5962 304.266V314.604C14.6027 314.667 14.6331 314.725 14.6811 314.767C14.7292 314.809 14.7913 314.83 14.8548 314.828Z" fill="white"/>
<path d="M9.86297 314.828H12.2597C12.2933 314.829 12.3267 314.823 12.3581 314.811C12.3894 314.799 12.418 314.781 12.4421 314.758C12.4663 314.734 12.4855 314.706 12.4986 314.676C12.5117 314.645 12.5184 314.611 12.5184 314.578V304.24C12.5184 304.185 12.5002 304.13 12.4667 304.085L11.2683 302.638C11.2442 302.606 11.2129 302.58 11.177 302.562C11.1411 302.544 11.1015 302.535 11.0614 302.535C11.0212 302.535 10.9816 302.544 10.9457 302.562C10.9098 302.58 10.8785 302.606 10.8544 302.638L9.65605 304.111C9.61992 304.155 9.59878 304.21 9.5957 304.266V314.604C9.60425 314.668 9.63641 314.726 9.68586 314.768C9.73531 314.809 9.79848 314.83 9.86297 314.828Z" fill="white"/>
<path d="M4.87127 314.828H7.25943C7.2934 314.829 7.32726 314.823 7.35908 314.811C7.39091 314.799 7.42006 314.781 7.44488 314.758C7.46971 314.735 7.48971 314.707 7.50375 314.676C7.51778 314.645 7.52558 314.612 7.52669 314.578V304.24C7.52669 304.184 7.50854 304.13 7.47497 304.085L6.27658 302.638C6.2516 302.606 6.21958 302.58 6.18296 302.562C6.14635 302.544 6.10612 302.535 6.06535 302.535C6.02458 302.535 5.98435 302.544 5.94774 302.562C5.91112 302.58 5.8791 302.606 5.85412 302.638L4.66436 304.111C4.62823 304.155 4.60708 304.209 4.604 304.266V314.604C4.61255 314.668 4.64471 314.726 4.69416 314.767C4.74361 314.809 4.80679 314.83 4.87127 314.828Z" fill="white"/>
<path d="M467.88 198.393V170.586H486.632V184.808L467.88 198.393Z" fill="white"/>
<path d="M467.88 198.393V170.586H486.632V184.808L467.88 198.393Z" fill="white"/>
<path d="M486.632 183.912V184.808L467.88 198.393V183.912H486.632Z" fill="#0FB3AF"/>
<path d="M482.718 176.314H484.184V172.92H482.718V176.314Z" fill="#0F3554"/>
<path d="M478.589 176.314H480.054V172.92H478.589V176.314Z" fill="#0F3554"/>
<path d="M474.459 176.314H475.924V172.92H474.459V176.314Z" fill="#0F3554"/>
<path d="M470.338 176.314H471.803V172.92H470.338V176.314Z" fill="#0F3554"/>
<path d="M614.144 314.905H638C637.85 314.33 637.576 313.793 637.198 313.334C636.82 312.874 636.346 312.502 635.81 312.243C634.742 311.816 633.553 311.801 632.474 312.2C632.672 312.131 632.939 311.718 633.086 311.546C633.444 311.14 633.68 310.641 633.767 310.107C633.853 309.471 633.699 308.827 633.336 308.298C633.05 307.909 632.664 307.606 632.219 307.421C631.774 307.236 631.287 307.176 630.81 307.247H630.672C630.49 307.273 630.313 307.326 630.146 307.402C629.399 307.768 628.74 308.291 628.215 308.935C628.111 309.044 628.008 309.165 627.904 309.297C628.698 308.56 629.35 307.685 629.827 306.713C631.172 303.534 628.327 298.908 624.783 300.217C623.273 301.051 622.09 302.372 621.429 303.965C624.257 299.106 619.559 296.16 617.895 300.519C618.929 296.918 617.386 293.153 614.274 295.264L614.144 295.333V314.905Z" fill="#479DA3"/>
<path d="M614.144 314.905H628.197C628.109 314.565 627.948 314.249 627.725 313.978C627.501 313.707 627.221 313.489 626.904 313.337C626.271 313.096 625.571 313.096 624.938 313.337C625.073 312.97 625.072 312.566 624.934 312.199C624.797 311.832 624.532 311.527 624.188 311.339C623.866 311.231 623.522 311.203 623.186 311.255C622.85 311.308 622.532 311.44 622.257 311.64C622.81 311.292 623.211 310.747 623.378 310.116C624.171 308.238 622.516 305.515 620.412 306.291C619.521 306.779 618.825 307.557 618.438 308.496C620.102 305.636 617.334 303.896 616.351 306.472C617.308 303.655 615.489 302.009 614.144 302.638V314.905Z" fill="#7BBFBA"/>
<path d="M628.715 299.528C628.592 299.645 628.447 299.735 628.289 299.793C628.13 299.85 627.961 299.875 627.792 299.864C627.836 299.472 627.991 299.102 628.241 298.796C628.363 298.679 628.508 298.589 628.667 298.531C628.825 298.474 628.994 298.449 629.163 298.46C629.119 298.852 628.964 299.223 628.715 299.528Z" fill="#479DA3"/>
<path d="M617.878 304.042C617.695 304.392 617.387 304.66 617.015 304.792C616.935 304.34 616.98 303.876 617.145 303.448C617.327 303.098 617.635 302.83 618.007 302.698C618.087 303.15 618.042 303.614 617.878 304.042Z" fill="#7BBFBA"/>
<path d="M627.577 297.995C627.654 298.55 627.58 299.116 627.361 299.632C626.959 299.286 626.679 298.821 626.559 298.305C626.482 297.75 626.556 297.184 626.775 296.668C627.177 297.014 627.457 297.479 627.577 297.995Z" fill="#479DA3"/>
<path d="M386.191 315H421.315V237.03L386.191 259.066V315Z" fill="#F43D4F"/>
<path d="M386.191 271.548L421.315 245.119V237.03L386.191 259.117V271.548Z" fill="#B72E41"/>
<path d="M421.316 314.879H615.3V231.439L519.937 161.669L421.316 231.439V314.879Z" fill="white"/>
<path d="M519.48 160.463L615.386 232.007V241.638L521.024 171.757L421.316 245.119V234.566L519.48 160.463Z" fill="#898981"/>
<path d="M519.48 159.507L623.05 233.739L617.713 240.079L519.48 166.787L386.123 266.319L381.148 259.703L519.48 159.507Z" fill="#3C3C3B"/>
<path d="M421.316 250.382H407.806V251.028H421.316V250.382Z" fill="#B72E41"/>
<path d="M421.316 261.125H392.977V261.771H421.316V261.125Z" fill="#B72E41"/>
<path d="M421.315 271.875H386.191V272.522H421.315V271.875Z" fill="#B72E41"/>
<path d="M421.315 282.627H386.191V283.273H421.315V282.627Z" fill="#B72E41"/>
<path d="M421.315 293.377H386.191V294.024H421.315V293.377Z" fill="#B72E41"/>
<path d="M421.315 304.128H386.191V304.775H421.315V304.128Z" fill="#B72E41"/>
<path d="M386.192 295.324H407.306V273.978H386.192V295.324Z" fill="white"/>
<path d="M386.191 293.524H405.486V275.778H386.191V293.524Z" fill="#445C77"/>
<path d="M407.305 273.977H408.978V297.082H386.191V295.324H407.305V273.977Z" fill="#B72E41"/>
<path d="M383.571 315H421.316V311.821H383.571V315Z" fill="#0F3554"/>
<path d="M519.368 240.01H548.336V202.787H519.368V240.01Z" fill="white"/>
<path d="M534.93 238.038H546.448V204.467H534.93V238.038Z" fill="#606060"/>
<path d="M521.308 238.038H532.826V204.467H521.308V238.038Z" fill="#606060"/>
<path d="M490.555 240.01H519.523V202.787H490.555V240.01Z" fill="white"/>
<path d="M506.117 238.038H517.635V204.467H506.117V238.038Z" fill="#606060"/>
<path d="M492.504 238.038H504.022V204.467H492.504V238.038Z" fill="#606060"/>
<path d="M491.253 212.108H547.224V211.186H491.253V212.108Z" fill="white"/>
<path d="M549.431 240.019H548.328V202.787H548.957L549.431 240.019Z" fill="#9BB8CC"/>
<path d="M595.884 256.171H578.658V256.473H595.884V256.171Z" fill="#F43D4F"/>
<path d="M527.981 314.879H578.658V269.119H527.981V314.879Z" fill="#7BBFBA"/>
<path d="M459.044 256.171H441.818V256.473H459.044V256.171Z" fill="#F43D4F"/>
<path d="M599.057 256.481V263.132L595.884 263.046V256.481H599.057Z" fill="#898981"/>
<path d="M438.636 256.481H441.818V258.583L438.636 258.489V256.481Z" fill="#9BB8CC"/>
<path d="M578.658 256.481V262.546L527.973 261.073V256.481H578.658Z" fill="#898981"/>
<path d="M510.747 256.481V260.573L459.043 259.083V256.481H510.747Z" fill="#898981"/>
<path d="M595.884 256.481V263.046L597.125 314.879H578.658V262.546V256.481H595.884Z" fill="#0FB3AF"/>
<path d="M459.043 256.481V259.083V314.879H440.274L441.818 258.583V256.481H459.043Z" fill="#F43D4F"/>
<path d="M527.972 256.481V261.056V314.879H510.747V260.556V256.481H527.972Z" fill="#0FB3AF"/>
<path d="M595.884 256.481V256.705V258.514H578.658V256.688V256.481H595.884Z" fill="#078E87"/>
<path d="M459.044 256.481V256.567V258.514H441.818V256.55V256.481H459.044Z" fill="#B72E41"/>
<path d="M527.972 256.481V256.636V258.532H510.747V256.619V256.481H527.972Z" fill="#078E87"/>
<path d="M459.043 314.879H510.747V310.141H459.043V314.879Z" fill="#7BBFBA"/>
<path d="M459.043 314.879H510.747V310.141H459.043V314.879Z" fill="#7BBFBA"/>
<path d="M463.604 310.141H506.177V305.403H463.604V310.141Z" fill="#7BBFBA"/>
<path d="M463.604 310.141H506.177V309.349H463.604V310.141Z" fill="#479DA3"/>
<path d="M473.821 305.403H495.969V266.319H473.821V305.403Z" fill="white"/>
<path d="M473.424 266.905L496.374 267.904V266.319H473.424V266.905Z" fill="#9BB8CC"/>
<path d="M497.03 265.38H495.969V305.395H497.03V265.38Z" fill="#9BB8CC"/>
<path d="M473.829 265.38H472.769V305.395H473.829V265.38Z" fill="#9BB8CC"/>
<path d="M492.538 293.636H477.261V302.595H492.538V293.636Z" fill="#606060"/>
<path d="M477.261 291.818V271.686H479.847C480.436 270.89 481.203 270.243 482.087 269.797C482.971 269.351 483.948 269.119 484.938 269.119C485.929 269.119 486.905 269.351 487.79 269.797C488.674 270.243 489.441 270.89 490.029 271.686H492.616V291.818H477.261Z" fill="#606060"/>
<path d="M469.579 266.311H500.211V264.131H469.579V266.311Z" fill="#606060"/>
<path d="M578.658 271.221H527.981V271.867H578.658V271.221Z" fill="#479DA3"/>
<path d="M578.658 273.934H527.981V274.581H578.658V273.934Z" fill="#479DA3"/>
<path d="M578.658 276.648H527.981V277.294H578.658V276.648Z" fill="#479DA3"/>
<path d="M578.658 279.362H527.981V280.008H578.658V279.362Z" fill="#479DA3"/>
<path d="M578.658 282.075H527.981V282.721H578.658V282.075Z" fill="#479DA3"/>
<path d="M578.658 284.789H527.981V285.435H578.658V284.789Z" fill="#479DA3"/>
<path d="M578.658 287.502H527.981V288.149H578.658V287.502Z" fill="#479DA3"/>
<path d="M578.658 290.216H527.981V290.862H578.658V290.216Z" fill="#479DA3"/>
<path d="M578.658 292.921H527.981V293.567H578.658V292.921Z" fill="#479DA3"/>
<path d="M578.658 295.635H527.981V296.281H578.658V295.635Z" fill="#479DA3"/>
<path d="M578.658 298.348H527.981V298.994H578.658V298.348Z" fill="#479DA3"/>
<path d="M578.658 301.062H527.981V301.708H578.658V301.062Z" fill="#479DA3"/>
<path d="M578.658 303.775H527.981V304.421H578.658V303.775Z" fill="#479DA3"/>
<path d="M578.658 306.489H527.981V307.135H578.658V306.489Z" fill="#479DA3"/>
<path d="M578.658 309.202H527.981V309.848H578.658V309.202Z" fill="#479DA3"/>
<path d="M578.658 311.916H527.981V312.562H578.658V311.916Z" fill="#479DA3"/>
<path d="M527.981 269.119H578.658V267.112H527.981V269.119Z" fill="#606060"/>
<path d="M587.392 239.683H593.677V231.111H587.392V239.683Z" fill="#7BBFBA"/>
<path d="M551.888 239.683H558.174V231.111H551.888V239.683Z" fill="#7BBFBA"/>
<path d="M480.873 239.683H487.158V231.111H480.873V239.683Z" fill="#7BBFBA"/>
<path d="M516.377 239.683H522.662V231.111H516.377V239.683Z" fill="#7BBFBA"/>
<path d="M445.37 239.683H451.655V231.111H445.37V239.683Z" fill="#7BBFBA"/>
<path d="M587.392 232.119H593.677V231.111H587.392V232.119Z" fill="#479DA3"/>
<path d="M551.888 232.119H558.174V231.111H551.888V232.119Z" fill="#479DA3"/>
<path d="M480.873 232.119H487.158V231.111H480.873V232.119Z" fill="#479DA3"/>
<path d="M516.377 232.119H522.662V231.111H516.377V232.119Z" fill="#479DA3"/>
<path d="M445.37 232.119H451.655V231.111H445.37V232.119Z" fill="#479DA3"/>
<path d="M444.387 231.111L594.858 231.111V230.104L444.387 230.104V231.111Z" fill="#7BBFBA"/>
<path d="M438.636 256.481H599.057L599.764 239.278L438.636 239.683V256.481Z" fill="#3C3C3B"/>
<path d="M520.066 192.337V185.084C521.946 185.216 523.71 186.035 525.024 187.384L520.066 192.337Z" fill="#606060"/>
<path d="M525.67 188.125C526.686 189.457 527.234 191.085 527.231 192.759H521.023L525.67 188.125Z" fill="#606060"/>
<path d="M514.342 187.074C515.646 185.885 517.321 185.182 519.084 185.084V191.812L514.342 187.074Z" fill="#606060"/>
<path d="M518.652 192.777H511.815C511.815 190.95 512.47 189.183 513.66 187.797L518.652 192.777Z" fill="#606060"/>
<path d="M510.712 193.983H528.817C528.827 191.426 527.908 188.953 526.231 187.022C529.809 189.813 529.602 194.655 529.602 194.663H510.712V193.983Z" fill="#9BB8CC"/>
<path d="M602.065 283.247H609.23V270.687H602.065V283.247Z" fill="#606060"/>
<path d="M610.23 269.584V284.212H600.781V284.737H610.653V269.584H610.23Z" fill="#9BB8CC"/>
<path d="M427.92 283.247H435.084V270.687H427.92V283.247Z" fill="#445C77"/>
<path d="M436.084 269.584V284.212H426.635V284.737H436.507V269.584H436.084Z" fill="#9BB8CC"/>
<path d="M621.602 314.879H626.801L625.818 301.389H622.585L621.602 314.879Z" fill="#3C3C3B"/>
<path d="M623.352 314.879L625.05 314.828V256.43L623.352 256.481V314.879Z" fill="#3C3C3B"/>
<path d="M621.516 256.43H626.878L628.852 246.712H619.55L621.516 256.43Z" fill="#3C3C3B"/>
<path d="M622.516 254.681H625.887L627.128 248.564H621.274L622.516 254.681Z" fill="white"/>
<path d="M621.516 244.249H626.878L628.852 246.712H619.55L621.516 244.249Z" fill="#3C3C3B"/>
<path d="M621.119 256.481H627.275C627.408 256.479 627.535 256.424 627.629 256.329C627.722 256.234 627.775 256.106 627.775 255.973C627.775 255.841 627.722 255.713 627.628 255.62C627.535 255.526 627.407 255.473 627.275 255.473H621.119C620.986 255.473 620.857 255.526 620.762 255.619C620.667 255.713 620.613 255.84 620.61 255.973C620.613 256.107 620.667 256.235 620.762 256.33C620.857 256.425 620.985 256.479 621.119 256.481Z" fill="#3C3C3B"/>
<path d="M622.516 301.889H625.878C626.012 301.886 626.139 301.832 626.232 301.737C626.326 301.642 626.378 301.514 626.378 301.38C626.378 301.248 626.326 301.121 626.232 301.027C626.138 300.933 626.011 300.881 625.878 300.881H622.516C622.382 300.881 622.254 300.933 622.159 301.027C622.064 301.12 622.009 301.247 622.007 301.38C622.009 301.514 622.064 301.642 622.159 301.737C622.253 301.832 622.382 301.886 622.516 301.889Z" fill="#3C3C3B"/>
<path d="M622.731 244.249C622.731 244.538 622.817 244.821 622.978 245.062C623.139 245.303 623.368 245.491 623.636 245.602C623.904 245.712 624.199 245.741 624.483 245.685C624.767 245.628 625.028 245.489 625.233 245.284C625.438 245.079 625.578 244.818 625.635 244.534C625.691 244.25 625.662 243.956 625.551 243.688C625.44 243.421 625.252 243.192 625.011 243.031C624.77 242.87 624.487 242.784 624.197 242.784C623.808 242.784 623.436 242.938 623.161 243.213C622.886 243.488 622.731 243.86 622.731 244.249Z" fill="#3C3C3B"/>
<path d="M594.013 311.864C595.875 305.955 603.497 305.024 606.032 310.727C609.178 309.866 611.713 310.986 613.791 313.312C614.456 312.629 615.329 312.186 616.272 312.052C617.216 311.918 618.178 312.101 619.007 312.571C620.455 307.996 626.37 307.273 628.318 311.709C631.275 310.9 633.491 312.347 635.293 314.94H584.34C587.306 312.407 590.444 310.865 594.013 311.864Z" fill="#479DA3"/>
<path d="M606.713 314.879C608.221 312.657 610.161 311.434 612.705 312.106C614.377 308.306 619.455 308.927 620.697 312.864C623.076 312.183 625.163 313.208 627.137 314.879H606.713Z" fill="#7BBFBA"/>
<path d="M606.092 309.332C606.274 309.634 606.554 309.865 606.885 309.986C606.981 309.647 606.957 309.285 606.816 308.961C606.633 308.658 606.354 308.425 606.023 308.298C605.926 308.64 605.951 309.005 606.092 309.332Z" fill="#479DA3"/>
<path d="M607.739 308.608C607.586 308.626 607.443 308.689 607.326 308.788C607.209 308.888 607.125 309.02 607.083 309.167C607.041 309.315 607.044 309.471 607.092 309.617C607.139 309.763 607.229 309.891 607.349 309.986C607.469 310.081 607.615 310.138 607.768 310.151C607.921 310.163 608.074 310.13 608.208 310.055C608.342 309.98 608.451 309.868 608.521 309.731C608.591 309.595 608.618 309.441 608.601 309.289C608.753 309.27 608.897 309.208 609.013 309.108C609.13 309.009 609.214 308.877 609.256 308.729C609.298 308.582 609.295 308.425 609.247 308.28C609.2 308.134 609.111 308.005 608.99 307.91C608.87 307.815 608.724 307.758 608.571 307.746C608.418 307.734 608.265 307.767 608.131 307.842C607.997 307.916 607.889 308.029 607.819 308.165C607.749 308.302 607.721 308.456 607.739 308.608Z" fill="#479DA3"/>
<path d="M622.835 311.468C622.914 311.517 623.004 311.545 623.097 311.551C623.19 311.556 623.282 311.538 623.367 311.499C623.451 311.46 623.524 311.4 623.579 311.325C623.635 311.251 623.671 311.163 623.684 311.071C623.697 310.979 623.687 310.886 623.655 310.798C623.623 310.711 623.57 310.633 623.5 310.572C623.431 310.51 623.347 310.467 623.256 310.446C623.166 310.425 623.071 310.427 622.981 310.451C622.818 310.764 622.767 311.122 622.835 311.468Z" fill="#7BBFBA"/>
<path d="M624.645 311.115C624.295 311.452 624.073 311.899 624.016 312.381C624.261 312.407 624.508 312.383 624.743 312.309C624.978 312.235 625.195 312.113 625.38 311.951C625.566 311.789 625.716 311.591 625.821 311.368C625.925 311.146 625.983 310.904 625.99 310.658C625.502 310.65 625.027 310.811 624.645 311.115Z" fill="#7BBFBA"/>
<path d="M321.703 97.9907H308.693C308.346 97.9885 308.014 97.8498 307.769 97.6047C307.523 97.3596 307.385 97.0279 307.382 96.6813C307.382 96.3332 307.52 95.9993 307.766 95.7524C308.011 95.5054 308.344 95.3656 308.693 95.3633H321.703C322.051 95.3656 322.384 95.5054 322.63 95.7524C322.875 95.9993 323.013 96.3332 323.013 96.6813C323.011 97.0279 322.872 97.3596 322.627 97.6047C322.381 97.8498 322.049 97.9885 321.703 97.9907Z" fill="#416793"/>
<path d="M328.6 96.6812C328.6 96.9419 328.523 97.1967 328.378 97.4135C328.233 97.6302 328.027 97.7992 327.786 97.8989C327.545 97.9987 327.28 98.0248 327.024 97.9739C326.768 97.9231 326.533 97.7975 326.348 97.6132C326.164 97.4289 326.038 97.194 325.987 96.9383C325.936 96.6827 325.962 96.4177 326.062 96.1768C326.162 95.936 326.331 95.7301 326.548 95.5853C326.765 95.4405 327.02 95.3632 327.281 95.3632C327.455 95.362 327.627 95.3954 327.787 95.4612C327.948 95.527 328.094 95.6241 328.216 95.7467C328.339 95.8693 328.436 96.0151 328.502 96.1755C328.568 96.3359 328.601 96.5078 328.6 96.6812Z" fill="#416793"/>
<path d="M33.8569 39.3341C34.123 36.0883 35.6002 33.0609 37.9957 30.8524C40.3912 28.644 43.5298 27.4158 46.7892 27.4116C47.4851 27.409 48.1801 27.4638 48.867 27.5753C51.7983 28.0146 54.1778 27.0498 55.2296 24.3362C56.4892 21.0411 58.5438 18.1078 61.2109 15.7971C63.8781 13.4863 67.0751 11.8696 70.5181 11.0905C73.961 10.3115 77.5432 10.3942 80.9465 11.3314C84.3497 12.2685 87.4686 14.0311 90.026 16.4625C91.6383 17.9183 93.8195 17.8666 95.0093 15.8767C97.3026 11.2466 100.926 7.40512 105.415 4.84322C109.905 2.28133 115.058 1.11545 120.214 1.49463C125.37 1.8738 130.296 3.7808 134.362 6.97185C138.428 10.1629 141.449 14.493 143.04 19.4087C143.462 20.7353 145.074 22.3462 147.799 21.3211C151.19 19.9251 154.947 19.6841 158.49 20.6355C162.032 21.5869 165.162 23.6777 167.395 26.5846C168.602 27.9371 170.189 28.0318 171.637 26.6363C173.539 24.4168 176.006 22.7527 178.777 21.8203C181.549 20.8879 184.521 20.722 187.379 21.3401C190.237 21.9582 192.874 23.3373 195.011 25.3313C197.149 27.3253 198.706 29.8599 199.519 32.6665C199.614 32.9558 199.776 33.2185 199.992 33.4332C200.209 33.6479 200.472 33.8084 200.763 33.9016C201.053 33.9949 201.361 34.0182 201.662 33.9698C201.962 33.9213 202.248 33.8023 202.494 33.6227C203.868 32.7419 205.426 32.1875 207.048 32.0023C208.67 31.817 210.313 32.0057 211.851 32.5539C213.388 33.1021 214.78 33.9952 215.918 35.1646C217.057 36.334 217.912 37.7486 218.417 39.2997L33.8569 39.3341Z" fill="white"/>
<path d="M58.333 34.3033C54.6861 28.7986 49.8408 27.8854 49.7891 27.8768L49.8667 27.4547C49.9184 27.4547 54.9361 28.3937 58.6951 34.0707L58.333 34.3033Z" fill="#D1DFE8"/>
<path d="M138.117 30.3406L137.737 30.1425C139.732 26.1464 143.098 23.0001 147.221 21.2781L147.385 21.6743C143.346 23.3442 140.052 26.4242 138.117 30.3406Z" fill="#D1DFE8"/>
<path d="M98.0695 26.3175C96.1875 22.6157 93.5046 19.3787 90.2153 16.8415L90.4567 16.4883C93.805 19.0467 96.5361 22.3232 98.4489 26.0763L98.0695 26.3175Z" fill="#D1DFE8"/>
<path d="M199.217 36.8358L198.872 36.5774C199.992 35.1793 201.371 34.0094 202.933 33.1316L203.14 33.5106C201.637 34.366 200.306 35.4936 199.217 36.8358Z" fill="#D1DFE8"/>
<path d="M108.278 31.6757C107.206 29.9471 105.701 28.5278 103.913 27.5579C102.124 26.5879 100.113 26.101 98.0784 26.1451C96.2535 26.2154 94.4788 26.7612 92.9301 27.7283C91.3815 28.6954 90.1129 30.0503 89.25 31.6585L88.8706 31.4517C89.7679 29.7769 91.0885 28.3661 92.7009 27.3596C94.3132 26.353 96.1613 25.7858 98.0611 25.7144C100.17 25.6629 102.256 26.1648 104.111 27.1699C105.966 28.1751 107.524 29.6484 108.631 31.4431L108.278 31.6757Z" fill="#D1DFE8"/>
<path d="M171.697 35.9831C171.045 34.9242 170.126 34.0546 169.032 33.4606C167.939 32.8667 166.708 32.5691 165.464 32.5976C164.35 32.6403 163.266 32.9737 162.321 33.5646C161.376 34.1555 160.601 34.9834 160.076 35.9659L159.696 35.7591C160.257 34.71 161.082 33.8262 162.092 33.1958C163.101 32.5655 164.258 32.2107 165.447 32.1668C166.758 32.1414 168.054 32.4577 169.206 33.0845C170.358 33.7114 171.326 34.6272 172.016 35.7419L171.697 35.9831Z" fill="#D1DFE8"/>
<path d="M166.981 32.5889L166.636 32.3391C168.208 30.3151 169.907 28.3931 171.723 26.5846L172.025 26.8861C170.227 28.6808 168.542 30.5854 166.981 32.5889Z" fill="#D1DFE8"/>
<path d="M519.118 42.642C519.056 42.243 519.024 41.8398 519.023 41.4359C519.023 40.4521 519.218 39.478 519.595 38.5692C519.972 37.6603 520.524 36.8347 521.221 36.1394C521.917 35.4442 522.744 34.893 523.654 34.5173C524.564 34.1415 525.54 33.9488 526.524 33.9499C527.744 33.9439 528.947 34.2398 530.024 34.8113C530.938 35.2938 532.473 35.4747 533.102 34.0274C533.719 32.5262 534.666 31.1831 535.873 30.0981C537.081 29.0131 538.518 28.214 540.077 27.7604C541.636 27.3068 543.277 27.2102 544.879 27.4779C546.481 27.7456 548.001 28.3707 549.328 29.3066C549.601 29.5281 549.924 29.6805 550.268 29.7511C550.613 29.8216 550.97 29.8081 551.308 29.7117C551.646 29.6154 551.956 29.439 552.212 29.1976C552.468 28.9561 552.661 28.6567 552.777 28.3246C553.859 25.0684 555.982 22.2577 558.819 20.3249C561.656 18.3921 565.05 17.4443 568.479 17.6274C571.908 17.8105 575.182 19.1142 577.797 21.338C580.412 23.5619 582.223 26.5826 582.952 29.9355C583.245 31.3224 584.28 32.2356 586.297 31.9168C586.865 31.8023 587.442 31.7446 588.021 31.7446C589.853 31.7481 591.636 32.3345 593.112 33.4188C594.588 34.503 595.679 36.0288 596.229 37.7747C596.288 37.9867 596.399 38.1805 596.552 38.3387C596.705 38.4968 596.895 38.6142 597.105 38.6801C597.315 38.7461 597.538 38.7585 597.754 38.7162C597.97 38.6739 598.172 38.5783 598.341 38.4381C599.171 37.8826 600.131 37.5523 601.128 37.4797C602.124 37.407 603.122 37.5945 604.024 38.0238C604.925 38.453 605.7 39.1092 606.271 39.9279C606.842 40.7467 607.191 41.6998 607.282 42.6937L519.118 42.642Z" fill="white"/>
<path d="M555.122 35.8709C553.659 33.1061 551.464 30.7965 548.776 29.1946L549.001 28.8242C551.743 30.4709 553.982 32.8364 555.475 35.6642L555.122 35.8709Z" fill="#D1DFE8"/>
<path d="M578.848 37.0599L578.486 36.8273C579.3 35.4963 580.387 34.3529 581.675 33.4724C582.964 32.5918 584.424 31.9942 585.961 31.7189V32.1496C584.5 32.4341 583.115 33.0172 581.891 33.8622C580.667 34.7071 579.631 35.7958 578.848 37.0599Z" fill="#D1DFE8"/>
<path d="M573.399 39.179L573.097 38.8775C573.809 38.1281 574.674 37.5414 575.634 37.1578C576.594 36.7741 577.625 36.6026 578.658 36.655C579.476 36.7017 580.274 36.9264 580.996 37.3132C581.719 37.7001 582.348 38.2398 582.839 38.8947L582.495 39.1532C582.041 38.5461 581.458 38.0461 580.789 37.6888C580.12 37.3316 579.381 37.1256 578.624 37.0857C577.653 37.0407 576.685 37.2043 575.784 37.5654C574.882 37.9266 574.069 38.4768 573.399 39.179Z" fill="#D1DFE8"/>
<path d="M526.903 37.6802L526.593 37.3787C527.305 36.6297 528.17 36.0433 529.13 35.6597C530.09 35.2761 531.121 35.1043 532.154 35.1561C532.972 35.2017 533.77 35.4259 534.493 35.8128C535.215 36.1998 535.844 36.7401 536.335 37.3959L535.99 37.6543C535.536 37.0472 534.954 36.5473 534.285 36.19C533.616 35.8327 532.877 35.6268 532.119 35.5868C531.15 35.5408 530.183 35.704 529.283 36.0652C528.383 36.4265 527.571 36.9773 526.903 37.6802Z" fill="#D1DFE8"/>
<path d="M467.199 64.9107C468.346 64.9107 470.553 65.0916 471.803 63.1878C472.898 61.6577 474.321 60.3918 475.969 59.4829C477.617 58.5741 479.448 58.0453 481.327 57.9355C483.207 57.8256 485.087 58.1374 486.829 58.848C488.572 59.5586 490.134 60.6499 491.4 62.0421C492.049 62.6868 492.876 63.1226 493.775 63.293C494.674 63.4635 495.603 63.3608 496.443 62.9983C498.343 62.1563 500.492 62.0649 502.456 62.7427C504.421 63.4205 506.055 64.817 507.031 66.6509C507.353 67.1477 507.836 67.5189 508.4 67.7024C508.963 67.8858 509.572 67.8704 510.126 67.6588C510.905 67.3609 511.732 67.209 512.566 67.2108C513.754 67.211 514.922 67.5181 515.957 68.1022C516.992 68.6863 517.858 69.5276 518.471 70.5446H461.569C461.568 69.8052 461.713 69.0728 461.995 68.3893C462.278 67.7058 462.692 67.0846 463.215 66.5614C463.738 66.0381 464.359 65.623 465.043 65.3397C465.726 65.0565 466.459 64.9107 467.199 64.9107Z" fill="white"/>
<path d="M490.633 66.8404L490.305 66.5647C491.788 65.0622 493.572 63.8881 495.538 63.1189L495.694 63.5238C493.798 64.2721 492.075 65.4009 490.633 66.8404Z" fill="#D1DFE8"/>
<path d="M472.674 67.6588C472.674 67.6588 471.7 65.5568 468.019 65.1261L468.07 64.704C472.01 65.1519 473.028 67.3917 473.071 67.4865L472.674 67.6588Z" fill="#D1DFE8"/>
<path d="M462.156 90.1686H173.818C168.985 90.1686 165.067 94.0833 165.067 98.9124V293.584C165.067 298.413 168.985 302.328 173.818 302.328H462.156C466.989 302.328 470.907 298.413 470.907 293.584V98.9124C470.907 94.0833 466.989 90.1686 462.156 90.1686Z" fill="#3C3C3B"/>
<path d="M133.832 302.328V304.301C133.841 307.09 134.954 309.762 136.927 311.734C138.901 313.707 141.576 314.819 144.367 314.828H491.615C494.407 314.819 497.081 313.707 499.055 311.734C501.029 309.762 502.142 307.09 502.151 304.301V302.328H133.832Z" fill="#3C3C3B"/>
<path d="M457.552 103.177H178.439V289.32H457.552V103.177Z" fill="#AFCBD8"/>
<path d="M341.075 307.557H294.907C293.596 307.557 292.339 307.037 291.411 306.112C290.483 305.186 289.961 303.931 289.958 302.621V301.346H345.998V302.621C345.996 303.926 345.477 305.178 344.555 306.103C343.633 307.027 342.382 307.55 341.075 307.557ZM290.821 302.207V302.621C290.823 303.702 291.254 304.739 292.021 305.503C292.787 306.267 293.825 306.696 294.907 306.696H341.075C342.158 306.696 343.196 306.267 343.962 305.503C344.728 304.739 345.16 303.702 345.162 302.621V302.207H290.821Z" fill="#416793"/>
<path d="M281.871 29.212H260.033V35.5696H281.871V29.212Z" fill="white"/>
<path d="M320.392 29.212H298.554V35.5696H320.392V29.212Z" fill="white"/>
<path d="M368.035 29.212H346.196V35.5696H368.035V29.212Z" fill="white"/>
<path d="M389.08 38.24H249.739V278.104H389.08V38.24Z" fill="white"/>
<path d="M394.382 278.104H244.445V289.32H394.382V278.104Z" fill="#7BBFBA"/>
<path d="M359.258 285.581H279.561V289.32H359.258V285.581Z" fill="white"/>
<path d="M353.344 281.843H285.475V285.581H353.344V281.843Z" fill="white"/>
<path d="M346.05 278.104H292.76V281.843H346.05V278.104Z" fill="white"/>
<path d="M346.05 281.093H292.76V281.842H346.05V281.093Z" fill="#8AADC1"/>
<path d="M353.344 284.832H285.475V285.581H353.344V284.832Z" fill="#8AADC1"/>
<path d="M389.08 200.185H330.842V238.537H389.08V200.185Z" fill="#0FB3AF"/>
<path d="M332.118 200.185H330.842V238.537H332.118V200.185Z" fill="#078E87"/>
<path d="M326.445 250.425H312.297V278.104H326.445V250.425Z" fill="#606060"/>
<path d="M368.578 209.273H344.248V238.546H368.578V209.273Z" fill="white"/>
<path d="M367.267 210.859H357.111V237.038H367.267V210.859Z" fill="#606060"/>
<path d="M355.637 210.859H345.481V237.038H355.637V210.859Z" fill="#606060"/>
<path d="M389.08 244.18L249.739 246.712V243.508H389.08V244.18Z" fill="#606060"/>
<path d="M330.842 203.338L249.739 205.879V202.675H330.842V203.338Z" fill="#606060"/>
<path d="M389.08 203.872L330.842 207.335V202.675H389.08V203.872Z" fill="#078E87"/>
<path d="M339.049 232.567H336.842V238.537H339.049V232.567Z" fill="white"/>
<path d="M364.612 232.567H362.405V238.537H364.612V232.567Z" fill="white"/>
<path d="M390.184 232.567H387.977V238.537H390.184V232.567Z" fill="white"/>
<path d="M377.398 232.567H375.191V238.537H377.398V232.567Z" fill="white"/>
<path d="M351.835 232.567H349.628V238.537H351.835V232.567Z" fill="white"/>
<path d="M339.049 232.567H336.842V233.765H339.049V232.567Z" fill="#8AADC1"/>
<path d="M364.612 232.567H362.405V233.765H364.612V232.567Z" fill="#8AADC1"/>
<path d="M390.184 232.567H387.977V233.765H390.184V232.567Z" fill="#8AADC1"/>
<path d="M377.398 232.567H375.191V233.765H377.398V232.567Z" fill="#8AADC1"/>
<path d="M351.835 232.567H349.628V233.765H351.835V232.567Z" fill="#8AADC1"/>
<path d="M392.692 238.537H246.126V243.508H392.692V238.537Z" fill="#3C3C3B"/>
<path d="M392.692 231.49H330.842V232.567H392.692V231.49Z" fill="white"/>
<path d="M301.546 243.508H294.666V278.095H301.546V243.508Z" fill="#0FB3AF"/>
<path d="M344.153 243.508H337.273V278.095H344.153V243.508Z" fill="#0FB3AF"/>
<path d="M301.546 243.508H294.666V245.11H301.546V243.508Z" fill="#078E87"/>
<path d="M344.153 243.508H337.273V245.11H344.153V243.508Z" fill="#078E87"/>
<path d="M263.24 257.825H258.904V273.107H263.24V257.825Z" fill="#606060"/>
<path d="M263.24 251.313H258.904V256.507H263.24V251.313Z" fill="#606060"/>
<path d="M278.518 257.825H264.128V273.107H278.518V257.825Z" fill="#606060"/>
<path d="M278.518 251.313H264.128V256.507H278.518V251.313Z" fill="#606060"/>
<path d="M283.742 257.825H279.406V273.107H283.742V257.825Z" fill="#606060"/>
<path d="M283.742 251.313H279.406V256.507H283.742V251.313Z" fill="#606060"/>
<path d="M257.835 250.425H257.145V275.184H284.76V274.434H257.835V250.425Z" fill="#8AADC1"/>
<path d="M263.24 217.233H258.904V232.516H263.24V217.233Z" fill="#606060"/>
<path d="M263.24 210.721H258.904V215.915H263.24V210.721Z" fill="#606060"/>
<path d="M278.518 217.233H264.128V232.516H278.518V217.233Z" fill="#606060"/>
<path d="M278.518 210.721H264.128V215.915H278.518V210.721Z" fill="#606060"/>
<path d="M283.742 217.233H279.406V232.516H283.742V217.233Z" fill="#606060"/>
<path d="M283.742 210.721H279.406V215.915H283.742V210.721Z" fill="#606060"/>
<path d="M257.835 209.833H257.145V234.583H284.76V233.842H257.835V209.833Z" fill="#8AADC1"/>
<path d="M389.08 159.352H330.842V197.704H389.08V159.352Z" fill="#0FB3AF"/>
<path d="M332.118 159.352H330.842V197.704H332.118V159.352Z" fill="#078E87"/>
<path d="M392.692 156.871H246.126V161.842H392.692V156.871Z" fill="#3C3C3B"/>
<path d="M368.578 168.432H344.248V197.704H368.578V168.432Z" fill="white"/>
<path d="M367.267 170.026H357.111V196.205H367.267V170.026Z" fill="#606060"/>
<path d="M355.637 170.026H345.481V196.205H355.637V170.026Z" fill="#606060"/>
<path d="M330.842 162.505L249.739 165.046V161.842H330.842V162.505Z" fill="#606060"/>
<path d="M389.08 163.039L330.842 166.502V161.842H389.08V163.039Z" fill="#078E87"/>
<path d="M339.049 191.734H336.842V197.704H339.049V191.734Z" fill="white"/>
<path d="M364.612 191.734H362.405V197.704H364.612V191.734Z" fill="white"/>
<path d="M390.184 191.734H387.977V197.704H390.184V191.734Z" fill="white"/>
<path d="M377.398 191.734H375.191V197.704H377.398V191.734Z" fill="white"/>
<path d="M351.835 191.734H349.628V197.704H351.835V191.734Z" fill="white"/>
<path d="M339.049 191.734H336.842V192.932H339.049V191.734Z" fill="#8AADC1"/>
<path d="M364.612 191.734H362.405V192.932H364.612V191.734Z" fill="#8AADC1"/>
<path d="M390.184 191.734H387.977V192.932H390.184V191.734Z" fill="#8AADC1"/>
<path d="M377.398 191.734H375.191V192.932H377.398V191.734Z" fill="#8AADC1"/>
<path d="M351.835 191.734H349.628V192.932H351.835V191.734Z" fill="#8AADC1"/>
<path d="M392.692 190.649H330.842V191.726H392.692V190.649Z" fill="white"/>
<path d="M263.24 176.4H258.904V191.683H263.24V176.4Z" fill="#606060"/>
<path d="M263.24 169.888H258.904V175.082H263.24V169.888Z" fill="#606060"/>
<path d="M278.518 176.4H264.128V191.683H278.518V176.4Z" fill="#606060"/>
<path d="M278.518 169.888H264.128V175.082H278.518V169.888Z" fill="#606060"/>
<path d="M283.742 176.4H279.406V191.683H283.742V176.4Z" fill="#606060"/>
<path d="M283.742 169.888H279.406V175.082H283.742V169.888Z" fill="#606060"/>
<path d="M257.835 168.992H257.145V193.75H284.76V193.009H257.835V168.992Z" fill="#8AADC1"/>
<path d="M389.08 118.519H330.842V156.871H389.08V118.519Z" fill="#0FB3AF"/>
<path d="M332.118 118.519H330.842V156.871H332.118V118.519Z" fill="#078E87"/>
<path d="M392.692 116.03H246.126V121H392.692V116.03Z" fill="#3C3C3B"/>
<path d="M368.578 127.599H344.248V156.871H368.578V127.599Z" fill="white"/>
<path d="M367.267 129.193H357.111V155.372H367.267V129.193Z" fill="#606060"/>
<path d="M355.637 129.193H345.481V155.372H355.637V129.193Z" fill="#606060"/>
<path d="M330.842 121.672L249.739 124.205V121H330.842V121.672Z" fill="#606060"/>
<path d="M389.08 122.197L330.842 125.669V121H389.08V122.197Z" fill="#078E87"/>
<path d="M339.049 150.893H336.842V156.863H339.049V150.893Z" fill="white"/>
<path d="M364.612 150.893H362.405V156.863H364.612V150.893Z" fill="white"/>
<path d="M390.184 150.893H387.977V156.863H390.184V150.893Z" fill="white"/>
<path d="M377.398 150.893H375.191V156.863H377.398V150.893Z" fill="white"/>
<path d="M351.835 150.893H349.628V156.863H351.835V150.893Z" fill="white"/>
<path d="M339.049 150.893H336.842V152.09H339.049V150.893Z" fill="#8AADC1"/>
<path d="M364.612 150.893H362.405V152.09H364.612V150.893Z" fill="#8AADC1"/>
<path d="M390.184 150.893H387.977V152.09H390.184V150.893Z" fill="#8AADC1"/>
<path d="M377.398 150.893H375.191V152.09H377.398V150.893Z" fill="#8AADC1"/>
<path d="M351.835 150.893H349.628V152.09H351.835V150.893Z" fill="#8AADC1"/>
<path d="M392.692 149.816H330.842V150.893H392.692V149.816Z" fill="white"/>
<path d="M263.24 135.559H258.904V150.841H263.24V135.559Z" fill="#606060"/>
<path d="M263.24 129.055H258.904V134.249H263.24V129.055Z" fill="#606060"/>
<path d="M278.518 135.559H264.128V150.841H278.518V135.559Z" fill="#606060"/>
<path d="M278.518 129.055H264.128V134.249H278.518V129.055Z" fill="#606060"/>
<path d="M283.742 135.559H279.406V150.841H283.742V135.559Z" fill="#606060"/>
<path d="M283.742 129.055H279.406V134.249H283.742V129.055Z" fill="#606060"/>
<path d="M257.835 128.159H257.145V152.917H284.76V152.168H257.835V128.159Z" fill="#8AADC1"/>
<path d="M301.39 217.233H297.054V232.516H301.39V217.233Z" fill="#606060"/>
<path d="M301.39 210.721H297.054V215.915H301.39V210.721Z" fill="#606060"/>
<path d="M316.659 217.233H302.27V232.516H316.659V217.233Z" fill="#606060"/>
<path d="M316.659 210.721H302.27V215.915H316.659V210.721Z" fill="#606060"/>
<path d="M321.884 217.233H317.547V232.516H321.884V217.233Z" fill="#606060"/>
<path d="M321.884 210.721H317.547V215.915H321.884V210.721Z" fill="#606060"/>
<path d="M295.976 209.833H295.287V234.583H322.901V233.842H295.976V209.833Z" fill="#8AADC1"/>
<path d="M301.39 176.4H297.054V191.683H301.39V176.4Z" fill="#606060"/>
<path d="M301.39 169.888H297.054V175.082H301.39V169.888Z" fill="#606060"/>
<path d="M316.659 176.4H302.27V191.683H316.659V176.4Z" fill="#606060"/>
<path d="M316.659 169.888H302.27V175.082H316.659V169.888Z" fill="#606060"/>
<path d="M321.884 176.4H317.547V191.683H321.884V176.4Z" fill="#606060"/>
<path d="M321.884 169.888H317.547V175.082H321.884V169.888Z" fill="#606060"/>
<path d="M295.976 168.992H295.287V193.75H322.901V193.009H295.976V168.992Z" fill="#8AADC1"/>
<path d="M301.39 135.559H297.054V150.841H301.39V135.559Z" fill="#606060"/>
<path d="M301.39 129.055H297.054V134.249H301.39V129.055Z" fill="#606060"/>
<path d="M316.659 135.559H302.27V150.841H316.659V135.559Z" fill="#606060"/>
<path d="M316.659 129.055H302.27V134.249H316.659V129.055Z" fill="#606060"/>
<path d="M321.884 135.559H317.547V150.841H321.884V135.559Z" fill="#606060"/>
<path d="M321.884 129.055H317.547V134.249H321.884V129.055Z" fill="#606060"/>
<path d="M295.976 128.159H295.287V152.917H322.901V152.168H295.976V128.159Z" fill="#8AADC1"/>
<path d="M389.08 77.686H330.842V116.038H389.08V77.686Z" fill="#0FB3AF"/>
<path d="M332.118 77.686H330.842V116.038H332.118V77.686Z" fill="#078E87"/>
<path d="M392.692 75.1964H246.126V80.167H392.692V75.1964Z" fill="#3C3C3B"/>
<path d="M368.578 86.7659H344.248V116.038H368.578V86.7659Z" fill="white"/>
<path d="M367.267 88.351H357.111V114.531H367.267V88.351Z" fill="#606060"/>
<path d="M355.637 88.351H345.481V114.531H355.637V88.351Z" fill="#606060"/>
<path d="M330.842 80.839L249.739 83.3717V80.1671H330.842V80.839Z" fill="#606060"/>
<path d="M389.08 81.3645L330.842 84.8276V80.1671H389.08V81.3645Z" fill="#078E87"/>
<path d="M339.049 110.06H336.842V116.029H339.049V110.06Z" fill="white"/>
<path d="M364.612 110.06H362.405V116.029H364.612V110.06Z" fill="white"/>
<path d="M390.184 110.06H387.977V116.029H390.184V110.06Z" fill="white"/>
<path d="M377.398 110.06H375.191V116.029H377.398V110.06Z" fill="white"/>
<path d="M351.835 110.06H349.628V116.029H351.835V110.06Z" fill="white"/>
<path d="M339.049 110.06H336.842V111.257H339.049V110.06Z" fill="#8AADC1"/>
<path d="M364.612 110.06H362.405V111.257H364.612V110.06Z" fill="#8AADC1"/>
<path d="M390.184 110.06H387.977V111.257H390.184V110.06Z" fill="#8AADC1"/>
<path d="M377.398 110.06H375.191V111.257H377.398V110.06Z" fill="#8AADC1"/>
<path d="M351.835 110.06H349.628V111.257H351.835V110.06Z" fill="#8AADC1"/>
<path d="M392.692 108.983H330.842V110.06H392.692V108.983Z" fill="white"/>
<path d="M263.24 94.7256H258.904V110.008H263.24V94.7256Z" fill="#606060"/>
<path d="M263.24 88.2131H258.904V93.4077H263.24V88.2131Z" fill="#606060"/>
<path d="M278.518 94.7256H264.128V110.008H278.518V94.7256Z" fill="#606060"/>
<path d="M278.518 88.2131H264.128V93.4077H278.518V88.2131Z" fill="#606060"/>
<path d="M283.742 94.7256H279.406V110.008H283.742V94.7256Z" fill="#606060"/>
<path d="M283.742 88.2131H279.406V93.4077H283.742V88.2131Z" fill="#606060"/>
<path d="M257.835 87.3259H257.145V112.084H284.76V111.335H257.835V87.3259Z" fill="#8AADC1"/>
<path d="M301.39 94.7256H297.054V110.008H301.39V94.7256Z" fill="#606060"/>
<path d="M301.39 88.2131H297.054V93.4077H301.39V88.2131Z" fill="#606060"/>
<path d="M316.659 94.7256H302.27V110.008H316.659V94.7256Z" fill="#606060"/>
<path d="M316.659 88.2131H302.27V93.4077H316.659V88.2131Z" fill="#606060"/>
<path d="M321.884 94.7256H317.547V110.008H321.884V94.7256Z" fill="#606060"/>
<path d="M321.884 88.2131H317.547V93.4077H321.884V88.2131Z" fill="#606060"/>
<path d="M295.976 87.3259H295.287V112.084H322.901V111.335H295.976V87.3259Z" fill="#8AADC1"/>
<path d="M389.08 36.8445H330.842V75.1965H389.08V36.8445Z" fill="#0FB3AF"/>
<path d="M332.118 36.8445H330.842V75.1965H332.118V36.8445Z" fill="#078E87"/>
<path d="M392.692 34.3635H246.126V39.3341H392.692V34.3635Z" fill="#3C3C3B"/>
<path d="M368.578 45.9242H344.248V75.1965H368.578V45.9242Z" fill="white"/>
<path d="M367.267 47.5179H357.111V73.6976H367.267V47.5179Z" fill="#606060"/>
<path d="M355.637 47.5179H345.481V73.6976H355.637V47.5179Z" fill="#606060"/>
<path d="M330.842 39.9974L249.739 42.5387V39.3341H330.842V39.9974Z" fill="#606060"/>
<path d="M389.08 40.5315L330.842 43.9946V39.3341H389.08V40.5315Z" fill="#078E87"/>
<path d="M339.049 69.2267H336.842V75.1966H339.049V69.2267Z" fill="white"/>
<path d="M364.612 69.2267H362.405V75.1966H364.612V69.2267Z" fill="white"/>
<path d="M390.184 69.2267H387.977V75.1966H390.184V69.2267Z" fill="white"/>
<path d="M377.398 69.2267H375.191V75.1966H377.398V69.2267Z" fill="white"/>
<path d="M351.835 69.2267H349.628V75.1966H351.835V69.2267Z" fill="white"/>
<path d="M339.049 69.2267H336.842V70.4241H339.049V69.2267Z" fill="#8AADC1"/>
<path d="M364.612 69.2267H362.405V70.4241H364.612V69.2267Z" fill="#8AADC1"/>
<path d="M390.184 69.2267H387.977V70.4241H390.184V69.2267Z" fill="#8AADC1"/>
<path d="M377.398 69.2267H375.191V70.4241H377.398V69.2267Z" fill="#8AADC1"/>
<path d="M351.835 69.2267H349.628V70.4241H351.835V69.2267Z" fill="#8AADC1"/>
<path d="M392.692 68.1411H330.842V69.2179H392.692V68.1411Z" fill="white"/>
<path d="M263.24 53.8927H258.904V69.1749H263.24V53.8927Z" fill="#606060"/>
<path d="M263.24 47.38H258.904V52.5746H263.24V47.38Z" fill="#606060"/>
<path d="M278.518 53.8927H264.128V69.1749H278.518V53.8927Z" fill="#606060"/>
<path d="M278.518 47.38H264.128V52.5746H278.518V47.38Z" fill="#606060"/>
<path d="M283.742 53.8927H279.406V69.1749H283.742V53.8927Z" fill="#606060"/>
<path d="M283.742 47.38H279.406V52.5746H283.742V47.38Z" fill="#606060"/>
<path d="M257.835 46.4928H257.145V71.2424H284.76V70.5016H257.835V46.4928Z" fill="#8AADC1"/>
<path d="M301.39 53.8927H297.054V69.1749H301.39V53.8927Z" fill="#606060"/>
<path d="M301.39 47.38H297.054V52.5746H301.39V47.38Z" fill="#606060"/>
<path d="M316.659 53.8927H302.27V69.1749H316.659V53.8927Z" fill="#606060"/>
<path d="M316.659 47.38H302.27V52.5746H316.659V47.38Z" fill="#606060"/>
<path d="M321.884 53.8927H317.547V69.1749H321.884V53.8927Z" fill="#606060"/>
<path d="M321.884 47.38H317.547V52.5746H321.884V47.38Z" fill="#606060"/>
<path d="M295.976 46.4928H295.287V71.2424H322.901V70.5016H295.976V46.4928Z" fill="#8AADC1"/>
<path d="M357.758 257.825H352.637V273.107H357.758V257.825Z" fill="#606060"/>
<path d="M357.758 251.313H352.637V256.507H357.758V251.313Z" fill="#606060"/>
<path d="M375.803 257.825H358.801V273.107H375.803V257.825Z" fill="#606060"/>
<path d="M375.803 251.313H358.801V256.507H375.803V251.313Z" fill="#606060"/>
<path d="M381.967 257.825H376.846V273.107H381.967V257.825Z" fill="#606060"/>
<path d="M381.967 251.313H376.846V256.507H381.967V251.313Z" fill="#606060"/>
<path d="M351.37 250.425H350.559V275.184H383.174V274.434H351.37V250.425Z" fill="#8AADC1"/>
<path d="M311.253 250.425H310.805V278.104H311.253V250.425Z" fill="#8AADC1"/>
<path d="M327.928 250.425H327.479V278.104H327.928V250.425Z" fill="#8AADC1"/>
<path d="M329.255 248.332H309.495V250.425H329.255V248.332Z" fill="#0FB3AF"/>
<path d="M392.692 197.704H246.126V202.675H392.692V197.704Z" fill="#3C3C3B"/>
<path d="M178.431 289.398H206.114C205.939 288.724 205.616 288.098 205.169 287.565C204.721 287.031 204.161 286.604 203.528 286.313C202.291 285.807 200.909 285.786 199.657 286.253C199.89 286.184 200.2 285.702 200.364 285.495C200.786 285.031 201.062 284.452 201.157 283.832C201.259 283.095 201.083 282.347 200.666 281.731C200.332 281.28 199.882 280.929 199.365 280.713C198.847 280.498 198.281 280.427 197.726 280.507H197.571C197.36 280.542 197.154 280.603 196.958 280.688C196.093 281.117 195.329 281.725 194.717 282.471C194.596 282.609 194.475 282.747 194.363 282.894C195.286 282.038 196.04 281.019 196.588 279.887C198.148 276.191 194.863 270.825 190.734 272.349C188.987 273.303 187.616 274.822 186.845 276.657C190.13 271.023 184.681 267.603 182.742 272.668C183.94 268.49 182.155 264.122 178.543 266.578C178.491 266.578 178.448 266.629 178.388 266.646L178.431 289.398Z" fill="#479DA3"/>
<path d="M178.431 289.398H194.742C194.641 289.003 194.454 288.636 194.194 288.322C193.935 288.008 193.61 287.755 193.242 287.58C192.51 287.295 191.698 287.295 190.966 287.58C191.121 287.153 191.119 286.685 190.961 286.259C190.803 285.834 190.5 285.477 190.104 285.254C189.727 285.13 189.326 285.099 188.935 285.162C188.543 285.225 188.173 285.38 187.854 285.616C188.496 285.207 188.963 284.575 189.164 283.841C190.078 281.662 188.138 278.509 185.716 279.396C184.68 279.973 183.871 280.884 183.422 281.98C185.362 278.655 182.146 276.648 181.008 279.629C182.12 276.364 179.974 274.46 178.422 275.184L178.431 289.398Z" fill="#7BBFBA"/>
<path d="M195.346 271.557C195.204 271.691 195.035 271.795 194.852 271.861C194.668 271.928 194.472 271.956 194.277 271.944C194.32 271.49 194.497 271.058 194.786 270.704C194.928 270.567 195.097 270.462 195.283 270.395C195.469 270.329 195.666 270.302 195.863 270.316C195.813 270.771 195.634 271.201 195.346 271.557Z" fill="#479DA3"/>
<path d="M182.767 276.786C182.545 277.194 182.175 277.502 181.733 277.647C181.638 277.123 181.692 276.583 181.888 276.088C182.109 275.681 182.475 275.374 182.914 275.227C183.014 275.75 182.963 276.29 182.767 276.786Z" fill="#7BBFBA"/>
<path d="M194.018 269.774C194.109 270.416 194.022 271.072 193.768 271.669C193.303 271.271 192.979 270.733 192.846 270.136C192.751 269.49 192.838 268.831 193.096 268.232C193.557 268.636 193.88 269.176 194.018 269.774Z" fill="#479DA3"/>
<path d="M432.765 289.32L432.067 279.224L437.653 272.763L437.317 272.479L434.015 275.296L433.532 272.479L433.015 272.616L433.101 276.131L431.765 277.432L431.256 267.12L433.989 263.735L433.687 263.476L430.851 265.742L430.67 260.349H429.929L429.437 266.982L428.721 273.564L425.031 269.567L424.687 269.799L426.032 271.91L423.687 271.884V272.272L426.247 272.659L428.765 276.605L428.196 289.32H432.765Z" fill="#994F61"/>
<path d="M408.901 252.811C408.804 251.551 409.002 250.286 409.478 249.116C409.725 248.535 410.11 248.024 410.6 247.626C411.09 247.228 411.67 246.956 412.289 246.833C412.648 246.765 413.019 246.791 413.365 246.908C413.711 247.026 414.02 247.232 414.263 247.505C412.78 245.812 411.672 243.824 411.013 241.673C410.698 240.594 410.639 239.456 410.843 238.351C411.047 237.245 411.506 236.203 412.185 235.307C412.914 234.506 413.831 233.899 414.853 233.541C415.875 233.183 416.97 233.085 418.039 233.256C420.184 233.643 422.122 234.778 423.505 236.461C423.359 233.084 422.583 229.69 423.195 226.373C423.807 223.057 426.454 219.732 429.825 219.878C432.118 219.981 434.041 221.601 435.498 223.384C438.536 227.078 440.374 231.61 440.766 236.375C441.588 235.129 442.577 234.001 443.706 233.024C444.28 232.535 444.95 232.169 445.672 231.95C446.395 231.73 447.154 231.662 447.904 231.749C450.327 232.145 451.87 234.609 452.457 236.986C453.083 239.546 452.994 242.228 452.198 244.74C450.879 248.857 447.784 252.131 444.783 255.241C445.497 254.99 446.278 255.012 446.976 255.301C447.674 255.591 448.241 256.127 448.568 256.809C449.43 258.652 448.568 260.763 447.353 262.227C446.249 263.424 444.918 264.39 443.438 265.07C435.308 269.153 425.411 268.559 417.203 265.01C414.274 263.712 411.879 261.45 410.418 258.6C409.466 256.816 408.946 254.833 408.901 252.811Z" fill="#479DA3"/>
<path d="M435.016 269.929C435.404 269.481 436.524 269.308 436.498 270.11C436.826 267.629 440.076 268.576 438.559 270.971C441.051 268.387 443.266 271.695 440.033 273.168C442.775 273.228 441.249 277.139 438.843 275.433C439.072 275.526 439.255 275.705 439.351 275.932C439.447 276.159 439.449 276.415 439.356 276.644C439.264 276.872 439.084 277.055 438.857 277.151C438.63 277.247 438.374 277.249 438.145 277.156C435.352 276.648 432.507 272.237 435.016 269.929Z" fill="#479DA3"/>
<path d="M439.886 262.606C440.138 261.951 440.236 261.246 440.171 260.547C440.134 260.199 440.012 259.864 439.815 259.574C439.618 259.284 439.352 259.047 439.041 258.885C438.862 258.79 438.661 258.744 438.458 258.751C438.255 258.759 438.058 258.82 437.886 258.928C438.946 258.266 439.851 257.385 440.541 256.343C440.884 255.821 441.099 255.225 441.168 254.603C441.237 253.982 441.158 253.353 440.938 252.768C440.679 252.227 440.289 251.758 439.802 251.406C439.316 251.054 438.749 250.829 438.153 250.753C436.937 250.61 435.711 250.917 434.705 251.614C435.317 249.839 436.274 248.168 436.481 246.299C436.688 244.429 435.808 242.241 433.989 241.785C433.36 241.69 432.719 241.726 432.104 241.89C431.49 242.055 430.917 242.344 430.42 242.741C428.219 244.21 426.517 246.313 425.54 248.771C425.304 247.977 424.955 247.219 424.505 246.523C424.283 246.173 423.99 245.873 423.646 245.642C423.302 245.411 422.913 245.253 422.505 245.179C421.152 244.998 419.919 246.04 419.246 247.238C418.501 248.496 418.119 249.937 418.143 251.399C418.186 253.802 419.307 256.033 420.41 258.17C420.069 257.926 419.65 257.815 419.233 257.858C418.815 257.901 418.428 258.094 418.143 258.402C417.812 258.837 417.616 259.359 417.578 259.904C417.539 260.448 417.661 260.992 417.927 261.469C418.319 262.285 418.87 263.014 419.548 263.614C423.221 267.06 428.583 268.343 433.506 267.766C435.274 267.546 436.912 266.725 438.145 265.44C438.943 264.648 439.54 263.676 439.886 262.606Z" fill="#7BBFBA"/>
<path d="M449.103 254.147C449.147 254.312 449.232 254.463 449.349 254.588C449.466 254.712 449.612 254.806 449.774 254.86C449.936 254.914 450.109 254.928 450.278 254.899C450.446 254.87 450.605 254.8 450.74 254.694C450.874 254.589 450.981 254.452 451.05 254.296C451.119 254.139 451.147 253.968 451.134 253.798C451.12 253.628 451.065 253.464 450.972 253.32C450.88 253.176 450.753 253.058 450.603 252.975C449.983 253.181 449.453 253.595 449.103 254.147Z" fill="#479DA3"/>
<path d="M451.896 255.939C451.003 255.939 450.136 256.242 449.439 256.8C450.061 257.446 450.885 257.86 451.775 257.972C452.671 257.971 453.54 257.667 454.241 257.11C453.615 256.465 452.788 256.052 451.896 255.939Z" fill="#479DA3"/>
<path d="M422.799 273.047C422.834 272.963 422.848 272.872 422.839 272.782C422.831 272.691 422.8 272.604 422.75 272.528C422.699 272.453 422.631 272.391 422.551 272.348C422.471 272.305 422.381 272.282 422.29 272.282C422.199 272.282 422.11 272.305 422.029 272.348C421.949 272.391 421.881 272.453 421.83 272.528C421.78 272.604 421.749 272.691 421.741 272.782C421.732 272.872 421.746 272.963 421.781 273.047C422.11 273.165 422.47 273.165 422.799 273.047Z" fill="#479DA3"/>
<path d="M422.221 271.376C422.233 271.524 422.288 271.665 422.379 271.782C422.471 271.899 422.594 271.986 422.735 272.034C422.876 272.081 423.027 272.086 423.171 272.048C423.314 272.01 423.444 271.931 423.543 271.821C423.642 271.71 423.706 271.573 423.728 271.426C423.749 271.279 423.728 271.13 423.665 270.995C423.602 270.861 423.501 270.747 423.375 270.67C423.249 270.592 423.102 270.553 422.954 270.557C422.574 270.263 422.106 270.105 421.626 270.109C421.673 270.587 421.883 271.034 422.221 271.376Z" fill="#479DA3"/>
<path d="M422.945 243.628C423.421 244.06 424.028 244.318 424.669 244.361C425.231 244.364 425.777 244.173 426.214 243.82C426.651 243.467 426.952 242.974 427.065 242.424C427.179 241.874 427.099 241.302 426.839 240.804C426.578 240.307 426.153 239.915 425.636 239.696C425.119 239.476 424.541 239.442 424.002 239.6C423.463 239.757 422.995 240.097 422.678 240.56C422.36 241.024 422.214 241.583 422.263 242.142C422.311 242.701 422.552 243.227 422.945 243.628Z" fill="#7BBFBA"/>
<path d="M439.283 249.116C438.873 249.309 438.539 249.633 438.335 250.038C438.188 250.393 438.167 250.788 438.278 251.157C438.388 251.525 438.623 251.844 438.941 252.06C439.26 252.276 439.643 252.376 440.027 252.342C440.41 252.308 440.77 252.143 441.046 251.875C441.322 251.607 441.497 251.252 441.542 250.87C441.586 250.488 441.497 250.102 441.29 249.778C441.083 249.453 440.77 249.211 440.404 249.09C440.039 248.97 439.643 248.979 439.283 249.116Z" fill="#7BBFBA"/>
<path d="M425.489 241.475C425.243 242.327 425.292 243.238 425.627 244.059C426.04 243.881 426.413 243.621 426.723 243.294C427.033 242.968 427.273 242.582 427.429 242.159C427.584 241.737 427.652 241.287 427.629 240.838C427.605 240.389 427.49 239.949 427.291 239.545C426.488 239.965 425.852 240.646 425.489 241.475Z" fill="#7BBFBA"/>
<path d="M436.636 275.683C436.874 275.713 437.114 275.713 437.352 275.683C437.684 275.645 437.991 275.485 438.214 275.235C438.314 275.118 438.384 274.978 438.415 274.828C438.447 274.677 438.44 274.521 438.395 274.374C438.248 273.969 437.722 274.064 437.481 273.762C437.423 273.673 437.384 273.572 437.366 273.467C437.348 273.362 437.352 273.254 437.378 273.15C437.416 272.943 437.416 272.729 437.378 272.522C437.359 272.417 437.302 272.322 437.217 272.257C437.133 272.192 437.027 272.16 436.921 272.168C436.765 272.168 436.662 272.358 436.559 272.461C436.531 272.498 436.496 272.528 436.456 272.55C436.416 272.572 436.371 272.586 436.326 272.591C435.929 272.591 435.834 271.996 435.464 272.065C435.093 272.134 434.791 272.599 434.67 272.97C434.56 273.294 434.533 273.641 434.594 273.979C434.654 274.316 434.799 274.633 435.015 274.899C435.439 275.353 436.017 275.633 436.636 275.683Z" fill="#7BBFBA"/>
<path d="M228.211 289.32L227.711 282.049L231.738 277.389L231.488 277.191L229.117 279.224L228.763 277.191L228.392 277.285L228.453 279.818L227.487 280.757L227.125 273.331L229.091 270.893L228.875 270.704L226.832 272.341L226.703 268.456H226.168L225.815 273.228L225.297 277.975L222.642 275.097L222.392 275.261L223.366 276.786L221.676 276.76V277.044L223.521 277.32L225.332 280.163L224.918 289.32H228.211Z" fill="#994F61"/>
<path d="M211.029 263.028C210.956 262.121 211.098 261.209 211.443 260.367C211.618 259.946 211.895 259.576 212.248 259.289C212.602 259.002 213.021 258.807 213.469 258.721C213.726 258.672 213.992 258.691 214.24 258.775C214.487 258.86 214.709 259.007 214.883 259.204C213.814 257.986 213.015 256.556 212.537 255.008C212.312 254.23 212.272 253.41 212.422 252.614C212.572 251.818 212.907 251.068 213.4 250.425C213.923 249.848 214.584 249.41 215.32 249.153C216.056 248.896 216.846 248.827 217.616 248.952C219.162 249.229 220.559 250.048 221.556 251.261C221.443 248.832 220.883 246.385 221.331 243.99C221.78 241.595 223.676 239.209 226.108 239.321C227.754 239.39 229.134 240.57 230.186 241.837C232.378 244.497 233.702 247.765 233.979 251.201C234.573 250.304 235.287 249.493 236.1 248.789C236.509 248.439 236.986 248.177 237.501 248.019C238.015 247.86 238.556 247.809 239.092 247.867C240.816 248.151 241.945 249.926 242.368 251.64C242.821 253.482 242.759 255.413 242.187 257.222C241.23 260.186 239.006 262.537 236.842 264.786C237.355 264.605 237.917 264.62 238.42 264.829C238.923 265.037 239.331 265.424 239.566 265.914C240.221 267.241 239.566 268.766 238.704 269.817C237.907 270.677 236.949 271.374 235.885 271.867C230.03 274.805 222.901 274.382 216.995 271.824C214.883 270.889 213.154 269.259 212.098 267.207C211.415 265.918 211.049 264.486 211.029 263.028Z" fill="#479DA3"/>
<path d="M229.832 275.347C230.108 275.037 230.919 274.908 230.901 275.485C231.143 273.702 233.488 274.374 232.384 276.088C234.177 274.219 235.772 276.605 233.445 277.665C235.419 277.708 234.307 280.525 232.582 279.293C232.721 279.375 232.826 279.504 232.878 279.656C232.93 279.809 232.925 279.975 232.864 280.124C232.804 280.274 232.691 280.396 232.548 280.47C232.404 280.543 232.239 280.563 232.082 280.525C230.074 280.189 228.056 276.993 229.832 275.347Z" fill="#479DA3"/>
<path d="M233.341 270.075C233.525 269.604 233.596 269.097 233.548 268.593C233.518 268.344 233.429 268.105 233.288 267.896C233.147 267.688 232.958 267.517 232.738 267.396C232.607 267.32 232.458 267.281 232.307 267.281C232.155 267.281 232.007 267.32 231.875 267.396C232.638 266.918 233.29 266.284 233.789 265.535C234.036 265.157 234.19 264.726 234.239 264.277C234.289 263.828 234.232 263.374 234.074 262.951C233.888 262.559 233.607 262.221 233.256 261.967C232.905 261.712 232.495 261.55 232.065 261.495C231.201 261.396 230.331 261.606 229.608 262.089C230.176 260.866 230.604 259.583 230.884 258.265C231.031 256.921 230.401 255.344 229.091 255.017C228.635 254.946 228.17 254.971 227.725 255.089C227.28 255.208 226.864 255.418 226.504 255.706C224.915 256.771 223.688 258.294 222.987 260.074C222.814 259.503 222.565 258.958 222.245 258.454C222.082 258.205 221.871 257.991 221.624 257.825C221.376 257.659 221.098 257.545 220.805 257.489C220.314 257.488 219.833 257.627 219.417 257.889C219.002 258.152 218.67 258.527 218.46 258.971C217.922 259.877 217.648 260.915 217.667 261.969C217.828 263.698 218.386 265.366 219.297 266.845C219.049 266.687 218.753 266.623 218.462 266.664C218.171 266.705 217.905 266.849 217.71 267.069C217.472 267.384 217.331 267.762 217.301 268.156C217.272 268.55 217.357 268.944 217.547 269.291C217.833 269.874 218.231 270.395 218.719 270.825C220.081 272.017 221.683 272.902 223.418 273.419C225.153 273.936 226.979 274.074 228.772 273.822C230.046 273.661 231.227 273.068 232.117 272.143C232.682 271.559 233.101 270.851 233.341 270.075Z" fill="#7BBFBA"/>
<path d="M239.98 263.993C239.78 264.418 239.732 264.898 239.842 265.354C240.071 265.296 240.285 265.192 240.472 265.048C240.659 264.903 240.815 264.722 240.929 264.515C241.043 264.308 241.113 264.08 241.135 263.845C241.157 263.61 241.131 263.373 241.057 263.149C240.612 263.299 240.232 263.597 239.98 263.993Z" fill="#479DA3"/>
<path d="M241.989 265.277C241.345 265.286 240.722 265.51 240.221 265.914C240.667 266.384 241.26 266.688 241.902 266.776C242.549 266.768 243.175 266.544 243.678 266.138C243.229 265.669 242.633 265.365 241.989 265.277Z" fill="#479DA3"/>
<path d="M221.029 277.604C221.254 277.492 221.433 277.307 221.538 277.079C221.304 276.994 221.048 276.994 220.814 277.079C220.589 277.191 220.41 277.376 220.305 277.604C220.54 277.684 220.795 277.684 221.029 277.604Z" fill="#479DA3"/>
<path d="M220.616 276.398C220.89 276.609 221.227 276.721 221.573 276.717C221.538 276.372 221.386 276.05 221.141 275.804C221.131 275.699 221.091 275.599 221.024 275.516C220.958 275.434 220.869 275.372 220.769 275.34C220.668 275.307 220.56 275.304 220.458 275.332C220.356 275.36 220.264 275.417 220.194 275.496C220.124 275.575 220.078 275.673 220.063 275.778C220.048 275.883 220.064 275.99 220.109 276.085C220.153 276.181 220.225 276.262 220.315 276.317C220.405 276.373 220.51 276.401 220.616 276.398Z" fill="#479DA3"/>
<path d="M221.159 256.412C221.281 256.415 221.401 256.387 221.51 256.331C221.618 256.276 221.711 256.195 221.781 256.095C221.851 255.995 221.895 255.879 221.909 255.758C221.923 255.637 221.907 255.515 221.863 255.401C221.818 255.288 221.747 255.187 221.654 255.108C221.561 255.029 221.45 254.974 221.331 254.948C221.212 254.922 221.089 254.926 220.971 254.959C220.854 254.992 220.747 255.053 220.659 255.137C220.674 255.607 220.85 256.058 221.159 256.412Z" fill="#7BBFBA"/>
<path d="M232.884 260.366C232.586 260.501 232.345 260.736 232.203 261.03C232.096 261.286 232.082 261.572 232.162 261.838C232.241 262.104 232.41 262.334 232.641 262.49C232.871 262.646 233.148 262.718 233.424 262.693C233.701 262.669 233.961 262.549 234.16 262.356C234.359 262.162 234.485 261.905 234.517 261.629C234.549 261.353 234.484 261.075 234.334 260.841C234.184 260.607 233.958 260.432 233.694 260.346C233.429 260.259 233.143 260.267 232.884 260.366Z" fill="#7BBFBA"/>
<path d="M222.952 254.862C222.772 255.481 222.809 256.144 223.055 256.74C223.352 256.611 223.62 256.423 223.842 256.188C224.064 255.953 224.236 255.675 224.347 255.371C224.459 255.067 224.507 254.744 224.489 254.421C224.472 254.098 224.389 253.782 224.245 253.492C223.673 253.791 223.218 254.274 222.952 254.862Z" fill="#7BBFBA"/>
<path d="M230.996 279.465C231.168 279.486 231.342 279.486 231.513 279.465C231.757 279.438 231.983 279.325 232.151 279.146C232.22 279.062 232.267 278.962 232.289 278.856C232.312 278.75 232.309 278.64 232.281 278.535C232.169 278.242 231.798 278.311 231.617 278.095C231.576 278.031 231.549 277.958 231.537 277.883C231.525 277.807 231.529 277.73 231.548 277.656C231.574 277.505 231.574 277.35 231.548 277.199C231.533 277.125 231.492 277.058 231.432 277.012C231.371 276.966 231.296 276.944 231.22 276.95C231.108 276.95 231.031 277.079 230.962 277.156C230.942 277.184 230.916 277.206 230.886 277.223C230.856 277.239 230.823 277.249 230.789 277.251C230.505 277.251 230.436 276.82 230.143 276.872C229.998 276.921 229.87 277.008 229.77 277.123C229.67 277.238 229.602 277.377 229.574 277.527C229.493 277.76 229.473 278.01 229.517 278.253C229.561 278.496 229.666 278.723 229.824 278.914C230.131 279.238 230.55 279.435 230.996 279.465Z" fill="#7BBFBA"/>
<path d="M203.795 289.32H199.993L200.717 279.439H203.071L203.795 289.32Z" fill="#3C3C3B"/>
<path d="M202.511 246.592H201.269V289.32H202.511V246.592Z" fill="#3C3C3B"/>
<path d="M203.855 246.592H199.932L198.493 239.485H205.295L203.855 246.592Z" fill="#3C3C3B"/>
<path d="M203.131 245.274H200.657L199.751 240.803H204.036L203.131 245.274Z" fill="white"/>
<path d="M203.855 237.676H199.932L198.493 239.485H205.295L203.855 237.676Z" fill="#3C3C3B"/>
<path d="M204.148 246.592H199.648C199.55 246.592 199.455 246.553 199.386 246.483C199.316 246.414 199.277 246.32 199.277 246.221C199.277 246.123 199.316 246.029 199.386 245.959C199.455 245.89 199.55 245.851 199.648 245.851H204.148C204.247 245.851 204.341 245.89 204.411 245.959C204.48 246.029 204.519 246.123 204.519 246.221C204.519 246.32 204.48 246.414 204.411 246.483C204.341 246.553 204.247 246.592 204.148 246.592Z" fill="#3C3C3B"/>
<path d="M203.131 279.81H200.665C200.617 279.81 200.569 279.8 200.525 279.781C200.48 279.762 200.44 279.735 200.406 279.701C200.373 279.666 200.346 279.625 200.328 279.58C200.311 279.535 200.302 279.487 200.303 279.439C200.303 279.343 200.341 279.251 200.409 279.183C200.477 279.115 200.569 279.077 200.665 279.077H203.131C203.227 279.077 203.319 279.115 203.387 279.183C203.455 279.251 203.493 279.343 203.493 279.439C203.494 279.487 203.486 279.535 203.468 279.58C203.451 279.625 203.424 279.666 203.39 279.701C203.357 279.735 203.316 279.762 203.272 279.781C203.227 279.8 203.179 279.81 203.131 279.81Z" fill="#0F3554"/>
<path d="M202.967 237.676C202.967 237.887 202.905 238.094 202.787 238.269C202.67 238.445 202.503 238.582 202.307 238.663C202.112 238.743 201.897 238.765 201.69 238.723C201.482 238.682 201.292 238.58 201.142 238.431C200.993 238.282 200.891 238.091 200.85 237.884C200.808 237.677 200.83 237.462 200.91 237.267C200.991 237.072 201.128 236.905 201.304 236.788C201.48 236.67 201.687 236.608 201.898 236.608C202.182 236.608 202.454 236.72 202.654 236.92C202.855 237.121 202.967 237.392 202.967 237.676Z" fill="#3C3C3B"/>
<path d="M404.348 289.32H400.546L401.271 279.439H403.624L404.348 289.32Z" fill="#3C3C3B"/>
<path d="M403.064 246.592H401.822V289.32H403.064V246.592Z" fill="#3C3C3B"/>
<path d="M404.409 246.592H400.486L399.046 239.485H405.849L404.409 246.592Z" fill="#3C3C3B"/>
<path d="M403.685 245.274H401.21L400.305 240.803H404.59L403.685 245.274Z" fill="white"/>
<path d="M404.409 237.676H400.486L399.046 239.485H405.849L404.409 237.676Z" fill="#3C3C3B"/>
<path d="M404.702 246.592H400.202C400.103 246.592 400.009 246.553 399.94 246.483C399.87 246.414 399.831 246.32 399.831 246.221C399.831 246.123 399.87 246.029 399.94 245.959C400.009 245.89 400.103 245.851 400.202 245.851H404.702C404.801 245.851 404.895 245.89 404.964 245.959C405.034 246.029 405.073 246.123 405.073 246.221C405.073 246.32 405.034 246.414 404.964 246.483C404.895 246.553 404.801 246.592 404.702 246.592Z" fill="#3C3C3B"/>
<path d="M403.685 279.81H401.219C401.171 279.81 401.123 279.8 401.079 279.781C401.034 279.762 400.994 279.735 400.96 279.701C400.926 279.666 400.9 279.625 400.882 279.58C400.864 279.535 400.856 279.487 400.857 279.439C400.857 279.343 400.895 279.251 400.963 279.183C401.031 279.115 401.123 279.077 401.219 279.077H403.685C403.781 279.077 403.873 279.115 403.941 279.183C404.009 279.251 404.047 279.343 404.047 279.439C404.048 279.487 404.04 279.535 404.022 279.58C404.004 279.625 403.978 279.666 403.944 279.701C403.91 279.735 403.87 279.762 403.826 279.781C403.781 279.8 403.733 279.81 403.685 279.81Z" fill="#3C3C3B"/>
<path d="M403.521 237.676C403.521 237.887 403.458 238.094 403.341 238.269C403.223 238.445 403.056 238.582 402.861 238.663C402.666 238.743 402.451 238.765 402.243 238.723C402.036 238.682 401.845 238.58 401.696 238.431C401.546 238.282 401.445 238.091 401.403 237.884C401.362 237.677 401.383 237.462 401.464 237.267C401.545 237.072 401.682 236.905 401.858 236.788C402.034 236.67 402.24 236.608 402.452 236.608C402.735 236.608 403.007 236.72 403.208 236.92C403.408 237.121 403.521 237.392 403.521 237.676Z" fill="#3C3C3B"/>
<path d="M364.612 296.453C368.199 285.064 382.89 283.273 387.735 294.265C393.77 292.602 398.676 294.764 402.659 299.184C404.616 296.711 409.254 295.738 412.703 297.762C415.479 288.95 426.859 287.563 430.618 296.039C436.308 294.472 440.662 297.263 444.051 302.251H345.981C351.697 297.435 357.732 294.48 364.612 296.453Z" fill="#479DA3"/>
<path d="M378.406 302.199C378.406 302.199 382.717 298.322 391.476 299.296C392.624 298.094 394.081 297.231 395.687 296.803C397.293 296.374 398.986 296.396 400.581 296.866C403.805 289.561 413.582 290.75 415.97 298.322C420.548 297.013 424.592 298.977 428.368 302.199H378.406Z" fill="#7BBFBA"/>
<path d="M334.101 302.199C336.532 298.632 340.386 298.615 344.446 299.735C347.128 293.636 356.982 293.955 358.974 300.269C366.345 297.736 369.578 302.199 369.578 302.199H334.101Z" fill="#7BBFBA"/>
<path d="M375.536 284.918C375.884 285.5 376.423 285.945 377.062 286.176C377.173 285.854 377.219 285.512 377.194 285.172C377.17 284.832 377.077 284.501 376.92 284.198C376.764 283.895 376.548 283.627 376.284 283.41C376.021 283.193 375.717 283.032 375.389 282.937C375.211 283.595 375.263 284.293 375.536 284.918Z" fill="#479DA3"/>
<path d="M378.708 283.531C378.194 284.316 377.96 285.251 378.044 286.184C378.965 286.015 379.801 285.538 380.415 284.832C380.934 284.053 381.168 283.119 381.079 282.187C380.158 282.352 379.322 282.826 378.708 283.531Z" fill="#479DA3"/>
<path d="M420.083 295.643C420.308 296.283 420.743 296.829 421.316 297.194C421.63 296.59 421.727 295.897 421.592 295.23C421.368 294.586 420.934 294.037 420.359 293.67C420.05 294.279 419.952 294.973 420.083 295.643Z" fill="#7BBFBA"/>
<path d="M423.48 294.954C422.812 295.608 422.389 296.472 422.281 297.4C422.749 297.449 423.221 297.402 423.67 297.261C424.118 297.121 424.533 296.89 424.889 296.584C425.245 296.277 425.535 295.901 425.74 295.478C425.946 295.056 426.062 294.596 426.083 294.127C425.147 294.1 424.229 294.392 423.48 294.954Z" fill="#7BBFBA"/>
<path d="M219.555 298.081C216.969 289.871 206.364 288.605 202.864 296.505C198.493 295.307 194.967 296.866 192.096 300.054C190.682 298.271 187.337 297.573 184.845 299.029C182.845 292.671 174.629 291.663 171.913 297.805C167.809 296.685 164.671 298.667 162.222 302.294H232.988C228.918 298.787 224.513 296.651 219.555 298.081Z" fill="#479DA3"/>
<path d="M209.597 302.225C209.597 302.225 206.485 299.425 200.165 300.123C199.334 299.261 198.281 298.645 197.122 298.341C195.964 298.038 194.744 298.058 193.596 298.4C191.268 293.128 184.216 293.989 182.491 299.451C179.189 298.503 176.292 299.925 173.551 302.25L209.597 302.225Z" fill="#7BBFBA"/>
<path d="M241.557 302.225C239.833 299.64 237.022 299.64 234.082 300.441C232.142 296.048 225.038 296.272 223.598 300.829C218.279 299.003 215.951 302.225 215.951 302.225H241.557Z" fill="#7BBFBA"/>
<path d="M211.675 289.751C211.418 290.172 211.026 290.494 210.563 290.664C210.438 290.189 210.474 289.686 210.666 289.234C210.921 288.814 211.31 288.492 211.77 288.321C211.9 288.795 211.866 289.298 211.675 289.751Z" fill="#479DA3"/>
<path d="M209.382 288.752C209.752 289.317 209.919 289.991 209.856 290.664C209.187 290.545 208.579 290.201 208.132 289.691C207.756 289.127 207.585 288.452 207.649 287.778C208.32 287.896 208.932 288.24 209.382 288.752Z" fill="#479DA3"/>
<path d="M179.525 297.487C179.373 297.949 179.07 298.347 178.663 298.615C178.533 298.405 178.447 298.171 178.412 297.927C178.376 297.682 178.391 297.433 178.455 297.195C178.52 296.956 178.633 296.734 178.788 296.541C178.942 296.348 179.134 296.189 179.353 296.074C179.568 296.512 179.629 297.01 179.525 297.487Z" fill="#7BBFBA"/>
<path d="M177.077 296.987C177.558 297.463 177.863 298.089 177.939 298.762C177.603 298.795 177.263 298.759 176.94 298.657C176.618 298.555 176.319 298.389 176.063 298.168C175.806 297.947 175.598 297.677 175.449 297.373C175.3 297.069 175.215 296.739 175.198 296.401C175.872 296.379 176.535 296.585 177.077 296.987Z" fill="#7BBFBA"/>
<path d="M253.662 215.442C252.62 215.449 251.59 215.669 250.636 216.088C249.85 216.43 248.981 216.531 248.138 216.378C247.295 216.225 246.516 215.824 245.903 215.226C244.72 213.917 243.258 212.889 241.626 212.217C239.994 211.546 238.232 211.248 236.469 211.345C234.706 211.443 232.988 211.933 231.44 212.781C229.891 213.628 228.553 214.811 227.522 216.243C226.349 218.069 224.28 217.897 223.211 217.897C222.516 217.896 221.829 218.031 221.187 218.296C220.545 218.561 219.962 218.95 219.471 219.441C218.98 219.931 218.591 220.514 218.326 221.155C218.061 221.796 217.925 222.484 217.926 223.177H253.662V215.442Z" fill="#D1DFE8"/>
<path d="M245.196 219.689L244.868 219.413C246.258 217.991 247.933 216.879 249.782 216.148L249.938 216.553C248.158 217.261 246.544 218.329 245.196 219.689Z" fill="#AFCBD8"/>
<path d="M228.323 220.455C228.323 220.455 227.409 218.483 223.969 218.086L224.021 217.656C227.72 218.086 228.685 220.197 228.72 220.283L228.323 220.455Z" fill="#AFCBD8"/>
<path d="M178.43 185.859H238.781C238.687 184.866 238.338 183.915 237.766 183.098C237.194 182.281 236.42 181.626 235.519 181.197C234.618 180.768 233.621 180.58 232.626 180.651C231.631 180.723 230.671 181.051 229.84 181.604C229.671 181.744 229.469 181.839 229.253 181.882C229.037 181.924 228.814 181.912 228.604 181.846C228.394 181.78 228.204 181.662 228.051 181.504C227.898 181.346 227.787 181.152 227.728 180.94C227.179 179.194 226.087 177.669 224.611 176.584C223.135 175.5 221.352 174.914 219.521 174.91C218.941 174.91 218.364 174.968 217.796 175.082C215.779 175.41 214.744 174.497 214.451 173.101C213.722 169.748 211.911 166.727 209.296 164.504C206.681 162.28 203.407 160.976 199.979 160.793C196.55 160.61 193.155 161.558 190.318 163.49C187.481 165.423 185.358 168.234 184.276 171.49C184.161 171.822 183.967 172.122 183.711 172.363C183.456 172.605 183.145 172.781 182.807 172.877C182.469 172.974 182.112 172.987 181.768 172.917C181.423 172.846 181.1 172.694 180.827 172.472C180.052 171.929 179.209 171.492 178.318 171.171L178.43 185.859Z" fill="white"/>
<path d="M186.733 179.097C185.281 176.331 183.094 174.018 180.414 172.412L180.638 172.041C183.378 173.691 185.617 176.055 187.112 178.881L186.733 179.097Z" fill="#AFCBD8"/>
<path d="M210.459 180.277L210.097 180.044C210.913 178.715 212 177.572 213.288 176.692C214.577 175.812 216.036 175.213 217.572 174.936L217.615 175.367C216.147 175.646 214.753 176.226 213.521 177.071C212.29 177.917 211.247 179.008 210.459 180.277Z" fill="#AFCBD8"/>
<path d="M205.011 182.396L204.709 182.095C205.421 181.347 206.287 180.762 207.247 180.379C208.207 179.997 209.238 179.827 210.27 179.881C211.088 179.926 211.887 180.15 212.609 180.537C213.332 180.924 213.961 181.464 214.451 182.12L214.106 182.379C213.653 181.77 213.071 181.269 212.402 180.91C211.733 180.551 210.994 180.344 210.235 180.303C209.266 180.259 208.298 180.424 207.396 180.785C206.495 181.146 205.682 181.695 205.011 182.396Z" fill="#AFCBD8"/>
<path d="M457.543 204.329C456.501 204.338 455.472 204.557 454.517 204.975C453.733 205.316 452.865 205.416 452.024 205.263C451.182 205.109 450.406 204.709 449.793 204.114C448.608 202.805 447.145 201.778 445.511 201.108C443.877 200.438 442.114 200.141 440.351 200.241C438.587 200.34 436.868 200.832 435.32 201.681C433.772 202.53 432.433 203.714 431.403 205.147C430.23 206.965 428.161 206.793 427.092 206.793C425.69 206.793 424.346 207.349 423.355 208.339C422.364 209.33 421.807 210.673 421.807 212.073H457.543V204.329Z" fill="white"/>
<path d="M449.077 208.576L448.758 208.3C450.145 206.88 451.817 205.767 453.663 205.035L453.819 205.44C452.039 206.148 450.425 207.216 449.077 208.576Z" fill="#AFCBD8"/>
<path d="M432.213 209.351C432.213 209.351 431.291 207.378 427.851 206.982L427.902 206.56C431.61 206.982 432.567 209.093 432.61 209.144L432.213 209.351Z" fill="#AFCBD8"/>
<path d="M134.211 154.821H124.728L129.461 171.723L117.011 154.821H46.1425C44.711 154.819 43.3387 154.25 42.3257 153.239C41.3126 152.229 40.7414 150.858 40.7368 149.428V133.732C40.7504 132.308 41.3257 130.947 42.3377 129.943C43.3498 128.94 44.7169 128.376 46.1425 128.374H134.211C135.641 128.379 137.011 128.948 138.022 129.959C139.034 130.969 139.604 132.338 139.608 133.767V149.463C139.595 150.885 139.021 152.246 138.01 153.249C137 154.252 135.635 154.816 134.211 154.821Z" fill="white"/>
<path d="M89.6811 134.224L88.0775 139.168H82.8701L87.0774 142.226L85.4738 147.163L89.6811 144.113L93.8884 147.163L92.2848 142.226L96.4921 139.168H91.2847L89.6811 134.224Z" fill="#FCBE4F"/>
<path d="M71.4464 134.224L69.8428 139.168H64.644L68.8513 142.226L67.2391 147.163L71.4464 144.113L75.6537 147.163L74.0501 142.226L78.2574 139.168H73.0586L71.4464 134.224Z" fill="#FCBE4F"/>
<path d="M53.212 134.224L51.6084 139.168H46.4097L50.617 142.226L49.0047 147.163L53.212 144.113L57.4193 147.163L55.8157 142.226L60.023 139.168H54.8243L53.212 134.224Z" fill="#FCBE4F"/>
<path d="M126.15 134.224L124.538 139.168H119.339L123.546 142.226L121.943 147.163L126.15 144.113L130.357 147.163L128.745 142.226L132.952 139.168H127.753L126.15 134.224Z" fill="#FFEED4"/>
<path d="M107.915 134.224L106.303 139.168H101.104L105.312 142.226L103.708 147.163L107.915 144.113L112.123 147.163L110.511 142.226L114.718 139.168H109.519L107.915 134.224Z" fill="#FFEED4"/>
<path d="M529.059 135.602H538.542L529.326 154.218L547.345 135.645H617.136C618.566 135.64 619.936 135.071 620.947 134.06C621.958 133.05 622.528 131.681 622.533 130.252V114.513C622.528 113.084 621.958 111.715 620.947 110.705C619.936 109.695 618.566 109.125 617.136 109.121H529.059C527.627 109.123 526.255 109.692 525.242 110.702C524.229 111.713 523.657 113.083 523.653 114.513V130.209C523.657 131.639 524.229 133.01 525.242 134.02C526.255 135.031 527.627 135.6 529.059 135.602Z" fill="white"/>
<path d="M573.58 115.004L571.977 119.949H566.778L570.985 122.999L569.373 127.943L573.58 124.894L577.787 127.943L576.184 122.999L580.391 119.949H575.192L573.58 115.004Z" fill="#FCBE4F"/>
<path d="M555.354 115.004L553.742 119.949H548.543L552.751 122.999L551.147 127.943L555.354 124.894L559.562 127.943L557.949 122.999L562.157 119.949H556.958L555.354 115.004Z" fill="#FCBE4F"/>
<path d="M537.12 115.004L535.507 119.949H530.309L534.516 122.999L532.912 127.943L537.12 124.894L541.327 127.943L539.715 122.999L543.922 119.949H538.723L537.12 115.004Z" fill="#FCBE4F"/>
<path d="M610.049 115.004L608.445 119.949H603.238L607.445 122.999L605.842 127.943L610.049 124.894L614.256 127.943L612.653 122.999L616.86 119.949H611.661L610.049 115.004Z" fill="#FFEED4"/>
<path d="M591.815 115.004L590.211 119.949H585.012L589.22 122.999L587.607 127.943L591.815 124.894L596.022 127.943L594.418 122.999L598.626 119.949H593.427L591.815 115.004Z" fill="#FCBE4F"/>
<path d="M235.979 110.447H226.496L238.169 126.195L217.71 110.447H147.876C146.445 110.443 145.073 109.872 144.062 108.86C143.05 107.847 142.481 106.476 142.479 105.046V89.3587C142.481 87.9284 143.05 86.5572 144.062 85.545C145.073 84.5328 146.445 83.962 147.876 83.9574H235.979C237.411 83.9619 238.784 84.5325 239.797 85.5444C240.809 86.5564 241.38 87.9276 241.385 89.3587V105.046C241.38 106.477 240.809 107.848 239.797 108.86C238.784 109.872 237.411 110.443 235.979 110.447Z" fill="white"/>
<path d="M191.458 89.8499L189.846 94.786H184.647L188.854 97.8442L187.251 102.789L191.458 99.7307L195.665 102.789L194.053 97.8442L198.26 94.786H193.062L191.458 89.8499Z" fill="#FCBE4F"/>
<path d="M173.224 89.8499L171.611 94.786H166.413L170.62 97.8442L169.016 102.789L173.224 99.7307L177.431 102.789L175.819 97.8442L180.026 94.786H174.827L173.224 89.8499Z" fill="#FCBE4F"/>
<path d="M154.989 89.8499L153.385 94.786H148.178L152.385 97.8442L150.781 102.789L154.989 99.7307L159.196 102.789L157.592 97.8442L161.8 94.786H156.592L154.989 89.8499Z" fill="#FCBE4F"/>
<path d="M227.918 89.8499L226.314 94.786H221.116L225.323 97.8442L223.711 102.789L227.918 99.7307L232.125 102.789L230.522 97.8442L234.729 94.786H229.53L227.918 89.8499Z" fill="#FCBE4F"/>
<path d="M209.684 89.8499L208.08 94.786H202.881L207.089 97.8442L205.476 102.789L209.684 99.7307L213.891 102.789L212.287 97.8442L216.495 94.786H211.296L209.684 89.8499Z" fill="#FCBE4F"/>
<path d="M377.432 26.4812H386.916L377.432 47.1044L395.753 26.4812H465.535C466.967 26.4789 468.339 25.9103 469.352 24.8997C470.365 23.8891 470.936 22.5188 470.941 21.0885V5.39273C470.932 3.96091 470.355 2.5911 469.337 1.58349C468.319 0.575877 466.942 0.0126507 465.51 0.0172397H377.432C376.005 0.0217519 374.638 0.588999 373.627 1.59563C372.616 2.60226 372.044 3.96688 372.035 5.39273V21.0885C372.04 22.5173 372.61 23.8863 373.621 24.8967C374.632 25.907 376.002 26.4766 377.432 26.4812Z" fill="white"/>
<path d="M421.962 5.88379L420.35 10.8285H415.151L419.359 13.8867L417.755 18.8229L421.962 15.7733L426.17 18.8229L424.566 13.8867L428.773 10.8285H423.566L421.962 5.88379Z" fill="#FFEED4"/>
<path d="M403.728 5.88379L402.124 10.8285H396.917L401.124 13.8867L399.521 18.8229L403.728 15.7733L407.935 18.8229L406.332 13.8867L410.539 10.8285H405.34L403.728 5.88379Z" fill="#FCBE4F"/>
<path d="M385.493 5.88379L383.89 10.8285H378.691L382.898 13.8867L381.286 18.8229L385.493 15.7733L389.701 18.8229L388.097 13.8867L392.304 10.8285H387.106L385.493 5.88379Z" fill="#FCBE4F"/>
<path d="M458.431 5.88379L456.819 10.8285H451.62L455.827 13.8867L454.224 18.8229L458.431 15.7733L462.638 18.8229L461.026 13.8867L465.233 10.8285H460.035L458.431 5.88379Z" fill="#FFEED4"/>
<path d="M440.197 5.88379L438.585 10.8285H433.386L437.593 13.8867L435.989 18.8229L440.197 15.7733L444.404 18.8229L442.792 13.8867L446.999 10.8285H441.8L440.197 5.88379Z" fill="#FFEED4"/>
<path d="M415.513 121.853H424.997L403.866 139.28L433.791 121.853H503.573C505.006 121.848 506.378 121.278 507.391 120.266C508.404 119.254 508.975 117.883 508.979 116.452V100.808C508.975 99.3765 508.404 98.0052 507.391 96.9933C506.378 95.9813 505.006 95.4108 503.573 95.4062H415.513C414.081 95.4108 412.709 95.9813 411.696 96.9933C410.683 98.0052 410.112 99.3765 410.108 100.808V116.495C410.124 117.918 410.699 119.279 411.711 120.281C412.723 121.284 414.088 121.849 415.513 121.853Z" fill="white"/>
<path d="M460.035 101.255L458.431 106.192H453.232L457.44 109.25L455.828 114.195L460.035 111.136L464.242 114.195L462.638 109.25L466.846 106.192H461.647L460.035 101.255Z" fill="#FCBE4F"/>
<path d="M441.809 101.255L440.197 106.192H434.998L439.205 109.25L437.593 114.195L441.809 111.136L446.016 114.195L444.404 109.25L448.611 106.192H443.413L441.809 101.255Z" fill="#FCBE4F"/>
<path d="M423.575 101.255L421.962 106.192H416.764L420.971 109.25L419.367 114.195L423.575 111.136L427.782 114.195L426.17 109.25L430.377 106.192H425.178L423.575 101.255Z" fill="#FCBE4F"/>
<path d="M496.504 101.255L494.892 106.192H489.693L493.9 109.25L492.297 114.195L496.504 111.136L500.711 114.195L499.099 109.25L503.306 106.192H498.107L496.504 101.255Z" fill="#FFEED4"/>
<path d="M478.269 101.255L476.666 106.192H471.458L475.666 109.25L474.062 114.195L478.269 111.136L482.477 114.195L480.873 109.25L485.08 106.192H479.882L478.269 101.255Z" fill="#FCBE4F"/>
<path d="M485.081 106.192H479.882L478.27 101.255V111.136L482.477 114.195L480.873 109.25L485.081 106.192Z" fill="#FFEED4"/>
</g>
<defs>
<clipPath id="clip0_1_406">
<rect width="638" height="315" fill="white"/>
</clipPath>
</defs>
</svg>
