<svg width="606" height="366" viewBox="0 0 606 366" fill="none" xmlns="http://www.w3.org/2000/svg">
<g clip-path="url(#clip0_1_947)">
<path opacity="0.6" d="M495.23 244.01V106.18H488.5V92.18H436.68V106.18H430.02V279.45H381.37V200.98H310.5V303.98H276.28V119.53H206.5V261.23H198.3V176.86H185.68L150.5 159.63V176.86H142.8V281.04H125.7V139.96H108.41V90.46H106.05V139.96H88.77V357.96H538.89V244.01H495.23ZM121.5 230.61H93.02V227.53H121.5V230.61ZM121.5 223.52H93.02V220.45H121.5V223.52ZM121.5 216.41H93.02V213.35H121.5V216.41ZM121.5 209.32H93.02V206.25H121.5V209.32ZM121.5 202.22H93.02V199.16H121.5V202.22ZM121.5 195.12H93.02V192.05H121.5V195.12ZM121.5 188.02H93.02V184.96H121.5V188.02ZM121.5 180.93H93.02V177.86H121.5V180.93ZM121.5 173.82H93.02V170.76H121.5V173.82ZM121.5 166.73H93.02V163.66H121.5V166.73ZM121.5 159.63H93.02V156.53H121.5V159.63ZM121.5 152.53H93.02V149.46H121.5V152.53ZM121.5 145.43H93.02V142.37H121.5V145.43ZM221.5 187.68H213.01V179.83H221.5V187.68ZM221.5 174.58H213.01V166.71H221.5V174.58ZM221.5 161.46H213.01V153.6H221.5V161.46ZM221.5 148.35H213.01V140.53H221.5V148.35ZM221.5 135.23H213.01V127.36H221.5V135.23ZM237.62 187.68H229.14V179.83H237.62V187.68ZM237.62 174.58H229.14V166.71H237.62V174.58ZM237.62 161.46H229.14V153.6H237.62V161.46ZM237.62 148.35H229.14V140.53H237.62V148.35ZM237.62 135.23H229.14V127.36H237.62V135.23ZM253.76 187.68H245.3V179.83H253.79L253.76 187.68ZM253.76 174.58H245.3V166.71H253.79L253.76 174.58ZM253.76 161.46H245.3V153.6H253.79L253.76 161.46ZM253.76 148.35H245.3V140.53H253.79L253.76 148.35ZM253.76 135.23H245.3V127.36H253.79L253.76 135.23ZM269.88 187.68H261.4V179.83H269.88V187.68ZM269.88 174.58H261.4V166.71H269.88V174.58ZM269.88 161.46H261.4V153.6H269.88V161.46ZM269.88 148.35H261.4V140.53H269.88V148.35ZM501.88 308.87H493.06V300.7H501.88V308.87ZM501.88 292.5H493.06V284.32H501.88V292.5ZM501.88 276.13H493.06V267.95H501.88V276.13ZM501.88 259.75H493.06V251.58H501.88V259.75ZM518.25 308.87H509.5V300.7H518.32L518.25 308.87ZM518.25 292.5H509.5V284.32H518.32L518.25 292.5ZM518.25 276.13H509.5V267.95H518.32L518.25 276.13ZM518.25 259.75H509.5V251.58H518.32L518.25 259.75ZM534.62 308.87H525.79V300.7H534.62V308.87ZM534.62 292.5H525.79V284.32H534.62V292.5ZM534.62 276.13H525.79V267.95H534.62V276.13ZM534.62 259.75H525.79V251.58H534.62V259.75Z" fill="#E8EAEF"/>
<path d="M286.77 141.53V80.53L242.14 125.74V200.9H213.38V93.23H206.07L185.25 75.23L164.32 93.23H157.13V238.6H51.3398V357.95H356.5V141.53H286.77ZM206.07 180.19H164.44V176.25H206.07V180.19ZM206.07 172.32H164.44V168.38H206.07V172.32ZM206.07 164.46H164.44V160.53H206.07V164.46ZM206.07 156.59H164.44V152.66H206.07V156.59ZM206.07 148.73H164.44V144.79H206.07V148.73ZM206.07 140.87H164.44V136.93H206.07V140.87ZM206.07 133H164.44V129.07H206.07V133ZM206.07 125.14H164.44V121.21H206.07V125.14ZM206.07 117.27H164.44V113.34H206.07V117.27ZM206.07 109.42H164.44V105.53H206.07V109.42ZM206.07 101.55H164.44V97.62H206.07V101.55ZM281.07 293.11H276.74V99.61L281.07 95.22V293.11Z" fill="#E8EAEF"/>
<path d="M521.22 180.22H479.6V176.27H521.22V180.22ZM521.22 172.35H479.6V168.41H521.22V172.35ZM521.22 164.49H479.6V160.53H521.22V164.49ZM521.22 156.62H479.6V152.69H521.22V156.62ZM521.22 148.77H479.6V144.77H521.22V148.77ZM521.22 140.9H479.6V136.96H521.22V140.9ZM521.22 133.03H479.6V129.1H521.22V133.03ZM521.22 125.17H479.6V121.24H521.22V125.17ZM521.22 117.3H479.6V113.37H521.22V117.3ZM521.22 109.45H479.6V105.53H521.22V109.45ZM521.22 101.58H479.6V97.65H521.22V101.58ZM528.5 200.96V93.23H521.18L500.37 75.23L479.5 93.23H472.3V238.6H366.5V357.1H555.66V200.96H528.5Z" fill="#E8EAEF"/>
<path opacity="0.75" d="M321.37 230.61H292.85V227.53H321.37V230.61ZM321.37 223.52H292.85V220.45H321.37V223.52ZM321.37 216.41H292.85V213.35H321.37V216.41ZM321.37 209.32H292.85V206.25H321.37V209.32ZM321.37 202.22H292.85V199.16H321.37V202.22ZM321.37 195.12H292.85V192.05H321.37V195.12ZM321.37 188.02H292.85V184.96H321.37V188.02ZM321.37 180.93H292.85V177.87H321.37V180.93ZM321.37 173.82H292.85V170.76H321.37V173.82ZM321.37 166.73H292.85V163.67H321.37V166.73ZM321.37 159.63H292.85V156.53H321.37V159.63ZM321.37 152.53H292.85V149.47H321.37V152.53ZM321.37 145.44H292.85V142.36H321.37V145.44ZM421.37 187.69H412.88V179.82H421.37V187.69ZM421.37 174.58H412.88V166.71H421.37V174.58ZM421.37 161.46H412.88V153.6H421.37V161.46ZM421.37 148.35H412.88V140.53H421.37V148.35ZM421.37 135.24H412.88V127.36H421.37V135.24ZM437.5 187.69H429V179.82H437.5V187.69ZM437.5 174.58H429V166.71H437.5V174.58ZM437.5 161.46H429V153.6H437.5V161.46ZM437.5 148.35H429V140.53H437.5V148.35ZM437.5 135.24H429V127.36H437.5V135.24ZM453.64 187.69H445.15V179.82H453.64V187.69ZM453.64 174.58H445.15V166.71H453.64V174.58ZM453.64 161.46H445.15V153.6H453.64V161.46ZM453.64 148.35H445.15V140.53H453.64V148.35ZM453.64 135.24H445.15V127.36H453.64V135.24ZM469.77 187.69H461.29V179.82H469.77V187.69ZM469.77 174.58H461.29V166.71H469.77V174.58ZM469.77 161.46H461.29V153.6H469.77V161.46ZM469.77 148.35H461.29V140.53H469.77V148.35ZM510.37 200.98V303.98H476.11V119.53H406.33V261.23H398.14V176.86H385.5L350.32 159.63V176.86H342.62V281.03H325.5V139.95H308.24V90.46H305.89V139.95H288.6V357.1H555.66V200.98H510.37Z" fill="#E8EAEF"/>
<path d="M193.91 63.59L198.6 66.1L196.25 60" fill="#296BEF"/>
<path d="M193.94 136.32C193.95 136.72 193.84 137.113 193.624 137.45C193.408 137.786 193.096 138.05 192.729 138.208C192.361 138.365 191.955 138.409 191.562 138.333C191.17 138.258 190.809 138.066 190.526 137.784C190.244 137.501 190.052 137.14 189.976 136.747C189.901 136.355 189.945 135.949 190.102 135.581C190.26 135.214 190.524 134.902 190.86 134.686C191.197 134.47 191.59 134.36 191.99 134.37C192.503 134.383 192.992 134.592 193.355 134.955C193.718 135.318 193.927 135.807 193.94 136.32V136.32Z" stroke="#296BEF" stroke-miterlimit="10"/>
<path d="M178 8.53003C178 8.92559 177.883 9.31227 177.663 9.64117C177.443 9.97006 177.131 10.2264 176.765 10.3778C176.4 10.5292 175.998 10.5688 175.61 10.4916C175.222 10.4144 174.865 10.2239 174.586 9.94424C174.306 9.66454 174.116 9.30817 174.038 8.92021C173.961 8.53225 174.001 8.13012 174.152 7.76466C174.304 7.39921 174.56 7.08685 174.889 6.86709C175.218 6.64733 175.604 6.53003 176 6.53003C176.53 6.53003 177.039 6.74074 177.414 7.11581C177.789 7.49089 178 7.9996 178 8.53003Z" stroke="#296BEF" stroke-miterlimit="10"/>
<path d="M284.85 14.63C284.86 15.0276 284.751 15.419 284.537 15.7545C284.324 16.0899 284.015 16.354 283.651 16.513C283.286 16.6721 282.883 16.7189 282.491 16.6475C282.1 16.5761 281.739 16.3896 281.454 16.112C281.17 15.8344 280.974 15.4782 280.893 15.089C280.812 14.6997 280.848 14.295 280.998 13.9267C281.148 13.5583 281.404 13.2429 281.734 13.0209C282.064 12.7988 282.452 12.6801 282.85 12.68C283.11 12.6733 283.369 12.7189 283.612 12.8139C283.854 12.9089 284.075 13.0514 284.261 13.2332C284.448 13.4149 284.596 13.6322 284.697 13.8721C284.798 14.112 284.85 14.3697 284.85 14.63Z" fill="#296BEF"/>
<path d="M94.5698 71.72C94.5698 72.1156 94.4525 72.5023 94.2328 72.8312C94.013 73.1601 93.7006 73.4164 93.3352 73.5678C92.9697 73.7192 92.5676 73.7588 92.1796 73.6816C91.7917 73.6044 91.4353 73.414 91.1556 73.1342C90.8759 72.8545 90.6854 72.4982 90.6083 72.1102C90.5311 71.7223 90.5707 71.3201 90.7221 70.9547C90.8734 70.5892 91.1298 70.2768 91.4587 70.0571C91.7876 69.8373 92.1743 69.72 92.5698 69.72C93.1003 69.72 93.609 69.9307 93.984 70.3058C94.3591 70.6809 94.5698 71.1896 94.5698 71.72Z" fill="#296BEF"/>
<path d="M567.16 134.9C567.16 135.298 567.041 135.686 566.819 136.016C566.597 136.346 566.282 136.602 565.914 136.752C565.545 136.902 565.14 136.938 564.751 136.857C564.362 136.776 564.006 136.58 563.728 136.296C563.451 136.011 563.264 135.65 563.193 135.259C563.121 134.867 563.168 134.464 563.327 134.099C563.486 133.735 563.75 133.426 564.086 133.213C564.421 132.999 564.813 132.89 565.21 132.9C565.471 132.9 565.728 132.952 565.968 133.053C566.208 133.154 566.425 133.302 566.607 133.489C566.789 133.675 566.931 133.896 567.026 134.138C567.121 134.381 567.167 134.64 567.16 134.9Z" fill="#296BEF"/>
<path d="M423.85 65C424.927 65 425.8 64.127 425.8 63.05C425.8 61.9731 424.927 61.1 423.85 61.1C422.773 61.1 421.9 61.9731 421.9 63.05C421.9 64.127 422.773 65 423.85 65Z" stroke="#296BEF" stroke-miterlimit="10"/>
<path d="M155.7 292.74C155.565 292.74 155.435 292.686 155.339 292.591C155.244 292.495 155.19 292.365 155.19 292.23V288.64C155.213 288.525 155.276 288.421 155.367 288.346C155.458 288.271 155.572 288.231 155.69 288.231C155.808 288.231 155.922 288.271 156.013 288.346C156.104 288.421 156.167 288.525 156.19 288.64V292.23C156.19 292.362 156.139 292.489 156.048 292.584C155.956 292.679 155.832 292.735 155.7 292.74Z" fill="#296BEF"/>
<path d="M157.5 290.95H153.9C153.785 290.927 153.681 290.864 153.606 290.773C153.532 290.682 153.491 290.568 153.491 290.45C153.491 290.332 153.532 290.218 153.606 290.127C153.681 290.036 153.785 289.973 153.9 289.95H157.5C157.574 289.935 157.651 289.937 157.724 289.955C157.797 289.973 157.865 290.008 157.924 290.055C157.982 290.103 158.029 290.163 158.062 290.232C158.094 290.3 158.111 290.375 158.111 290.45C158.111 290.526 158.094 290.6 158.062 290.668C158.029 290.736 157.982 290.797 157.924 290.845C157.865 290.892 157.797 290.927 157.724 290.945C157.651 290.963 157.574 290.965 157.5 290.95Z" fill="#296BEF"/>
<path d="M62.6101 170.93C62.4748 170.93 62.3451 170.876 62.2495 170.781C62.1538 170.685 62.1001 170.555 62.1001 170.42V166.82C62.1233 166.705 62.1858 166.601 62.2769 166.526C62.3681 166.451 62.4823 166.411 62.6001 166.411C62.7179 166.411 62.8321 166.451 62.9232 166.526C63.0144 166.601 63.0769 166.705 63.1001 166.82V170.42C63.1002 170.552 63.0492 170.679 62.9579 170.774C62.8665 170.869 62.7419 170.925 62.6101 170.93Z" fill="#296BEF"/>
<path d="M64.4099 169.13H60.8099C60.6944 169.107 60.5905 169.044 60.5158 168.953C60.4412 168.862 60.4004 168.748 60.4004 168.63C60.4004 168.512 60.4412 168.398 60.5158 168.307C60.5905 168.216 60.6944 168.153 60.8099 168.13H64.4099C64.5254 168.153 64.6293 168.216 64.7039 168.307C64.7786 168.398 64.8194 168.512 64.8194 168.63C64.8194 168.748 64.7786 168.862 64.7039 168.953C64.6293 169.044 64.5254 169.107 64.4099 169.13Z" fill="#296BEF"/>
<path d="M496.8 29.89C496.665 29.89 496.535 29.8363 496.439 29.7407C496.344 29.645 496.29 29.5153 496.29 29.38V25.78C496.313 25.6645 496.376 25.5606 496.467 25.486C496.558 25.4113 496.672 25.3705 496.79 25.3705C496.908 25.3705 497.022 25.4113 497.113 25.486C497.204 25.5606 497.267 25.6645 497.29 25.78V29.38C497.29 29.5119 497.239 29.6387 497.148 29.7338C497.056 29.8289 496.932 29.8849 496.8 29.89Z" fill="#296BEF"/>
<path d="M498.6 28.09H495.01C494.936 28.1049 494.86 28.1032 494.786 28.0849C494.713 28.0667 494.645 28.0324 494.586 27.9846C494.528 27.9367 494.481 27.8765 494.448 27.8083C494.416 27.7401 494.399 27.6655 494.399 27.59C494.399 27.5145 494.416 27.44 494.448 27.3717C494.481 27.3035 494.528 27.2433 494.586 27.1955C494.645 27.1476 494.713 27.1134 494.786 27.0951C494.86 27.0769 494.936 27.0751 495.01 27.09H498.6C498.715 27.1132 498.819 27.1757 498.894 27.2669C498.969 27.358 499.009 27.4722 499.009 27.59C499.009 27.7078 498.969 27.822 498.894 27.9132C498.819 28.0043 498.715 28.0668 498.6 28.09Z" fill="#296BEF"/>
<path d="M490.74 154.14C490.604 154.14 490.475 154.086 490.379 153.991C490.283 153.895 490.23 153.765 490.23 153.63V150.04C490.215 149.966 490.217 149.89 490.235 149.816C490.253 149.743 490.287 149.675 490.335 149.616C490.383 149.558 490.443 149.511 490.511 149.479C490.58 149.446 490.654 149.43 490.73 149.43C490.805 149.43 490.88 149.446 490.948 149.479C491.016 149.511 491.076 149.558 491.124 149.616C491.172 149.675 491.206 149.743 491.225 149.816C491.243 149.89 491.245 149.966 491.23 150.04V153.63C491.231 153.696 491.219 153.761 491.196 153.822C491.172 153.883 491.136 153.939 491.09 153.987C491.045 154.034 490.991 154.072 490.93 154.098C490.87 154.125 490.805 154.139 490.74 154.14Z" fill="#296BEF"/>
<path d="M492.5 152.34H488.91C488.775 152.34 488.645 152.286 488.549 152.191C488.454 152.095 488.4 151.965 488.4 151.83C488.4 151.695 488.454 151.565 488.549 151.469C488.645 151.374 488.775 151.32 488.91 151.32H492.5C492.635 151.32 492.765 151.374 492.86 151.469C492.956 151.565 493.01 151.695 493.01 151.83C493.01 151.965 492.956 152.095 492.86 152.191C492.765 152.286 492.635 152.34 492.5 152.34Z" fill="#296BEF"/>
<path d="M606 357.1H555.66H366.49H288.6H0" stroke="#E8EAEF" stroke-miterlimit="10"/>
<path d="M109.03 292.46C108.96 292.29 105.23 291.72 104.91 292.17C104.59 292.62 105.24 293.59 105.52 294.03C105.829 294.299 106.199 294.488 106.599 294.581C106.998 294.673 107.414 294.666 107.81 294.56C108.34 294.26 109.5 293.53 109.03 292.46Z" fill="#6774FF"/>
<path d="M112.7 289.25C112.594 289.391 112.524 289.556 112.496 289.73C112.468 289.904 112.483 290.083 112.54 290.25L114.26 295.32C114.323 295.509 114.332 295.712 114.285 295.905C114.239 296.099 114.14 296.276 113.998 296.416C113.857 296.557 113.679 296.655 113.485 296.699C113.291 296.744 113.089 296.734 112.9 296.67L107.84 294.95C107.675 294.884 107.496 294.863 107.32 294.889C107.144 294.916 106.978 294.988 106.84 295.1L102.55 298.29C102.39 298.409 102.2 298.482 102.001 298.499C101.802 298.516 101.603 298.477 101.425 298.386C101.247 298.296 101.098 298.157 100.995 297.987C100.891 297.816 100.838 297.62 100.84 297.42V294.87V292.08C100.841 291.907 100.801 291.735 100.723 291.58C100.645 291.426 100.531 291.292 100.39 291.19L96.0201 288.1C95.8588 287.984 95.7331 287.825 95.6572 287.641C95.5812 287.457 95.5581 287.255 95.5903 287.059C95.6225 286.863 95.7088 286.679 95.8395 286.529C95.9701 286.379 96.1401 286.269 96.3301 286.21L101.43 284.62C101.597 284.57 101.749 284.481 101.873 284.359C101.996 284.237 102.088 284.086 102.14 283.92L102.92 281.43L103.73 278.82C103.79 278.631 103.902 278.462 104.052 278.332C104.203 278.202 104.386 278.117 104.582 278.086C104.779 278.055 104.98 278.079 105.163 278.156C105.346 278.232 105.504 278.358 105.62 278.52L108.71 282.89C108.805 283.035 108.936 283.152 109.091 283.231C109.245 283.31 109.417 283.348 109.59 283.34L114.94 283.28C115.139 283.28 115.334 283.334 115.503 283.438C115.672 283.543 115.809 283.692 115.899 283.869C115.988 284.047 116.026 284.246 116.009 284.444C115.991 284.642 115.919 284.831 115.8 284.99L112.7 289.25Z" fill="#FEC752"/>
<path d="M83.1402 280.53C83.0602 280.36 79.3302 279.79 79.0202 280.24C78.7102 280.69 79.3402 281.66 79.6302 282.1C79.9388 282.37 80.3092 282.56 80.7087 282.652C81.1082 282.745 81.5244 282.737 81.9202 282.63C82.4402 282.35 83.5802 281.53 83.1402 280.53Z" fill="#6774FF"/>
<path d="M86.7999 277.34C86.6883 277.478 86.6156 277.644 86.5892 277.82C86.5628 277.995 86.5838 278.175 86.6499 278.34L88.3599 283.41C88.4226 283.599 88.4314 283.802 88.3851 283.995C88.3389 284.189 88.2395 284.366 88.0982 284.506C87.9568 284.647 87.7792 284.745 87.5852 284.79C87.3911 284.834 87.1884 284.824 86.9999 284.76L85.4099 284.22L81.9399 283.04C81.7749 282.974 81.5953 282.953 81.4196 282.979C81.2438 283.006 81.0782 283.078 80.9399 283.19L76.6499 286.38C76.49 286.499 76.2999 286.572 76.101 286.589C75.9022 286.606 75.7025 286.567 75.5247 286.476C75.3468 286.386 75.1977 286.247 75.0944 286.077C74.9911 285.906 74.9376 285.71 74.9399 285.51L75.0199 280.16C75.0204 279.988 74.9798 279.819 74.9015 279.666C74.8232 279.512 74.7096 279.38 74.5699 279.28L70.1999 276.19C70.0392 276.072 69.9142 275.912 69.8387 275.728C69.7633 275.543 69.7403 275.342 69.7724 275.145C69.8045 274.948 69.8904 274.764 70.0205 274.613C70.1507 274.463 70.3201 274.351 70.5099 274.29L75.5999 272.71C75.7666 272.661 75.9185 272.571 76.0424 272.449C76.1662 272.327 76.2581 272.176 76.3099 272.01L77.8999 266.91C77.9599 266.721 78.0714 266.552 78.2219 266.422C78.3724 266.293 78.5561 266.207 78.7523 266.176C78.9484 266.145 79.1494 266.169 79.3327 266.246C79.5159 266.322 79.6743 266.449 79.7899 266.61L82.8799 270.98C82.9751 271.125 83.1062 271.242 83.2604 271.321C83.4147 271.4 83.5868 271.438 83.7599 271.43L89.1099 271.37C89.3095 271.368 89.5057 271.421 89.6765 271.525C89.8472 271.628 89.9857 271.777 90.0762 271.955C90.1667 272.133 90.2056 272.332 90.1886 272.531C90.1716 272.73 90.0993 272.92 89.9799 273.08L86.7999 277.34Z" fill="#FEC752"/>
<path d="M62.75 290.77C62.68 290.6 58.95 290.03 58.63 290.48C58.31 290.93 58.96 291.9 59.24 292.34C59.549 292.609 59.9195 292.798 60.3188 292.891C60.7182 292.983 61.1341 292.976 61.53 292.87C62.05 292.53 63.2 291.79 62.75 290.77Z" fill="#6774FF"/>
<path d="M63.13 285.53C63.0236 285.671 62.9534 285.836 62.9255 286.01C62.8976 286.184 62.9129 286.363 62.97 286.53L64.68 291.6C64.7457 291.788 64.7569 291.991 64.7125 292.186C64.668 292.38 64.5697 292.558 64.4287 292.699C64.2877 292.84 64.1099 292.938 63.9155 292.982C63.7212 293.027 63.5182 293.016 63.33 292.95L62.02 292.51L58.26 291.23C58.095 291.164 57.9154 291.143 57.7396 291.169C57.5639 291.196 57.3983 291.268 57.26 291.38L52.97 294.58C52.8094 294.697 52.6193 294.767 52.4211 294.782C52.223 294.797 52.0245 294.757 51.848 294.665C51.6715 294.574 51.5239 294.435 51.4218 294.265C51.3198 294.094 51.2672 293.899 51.27 293.7L51.34 288.36C51.3446 288.186 51.306 288.014 51.2274 287.858C51.1489 287.703 51.0329 287.569 50.89 287.47L46.53 284.38C46.3685 284.264 46.2424 284.106 46.1658 283.923C46.0892 283.74 46.0651 283.539 46.0962 283.342C46.1274 283.146 46.2125 282.963 46.3421 282.812C46.4717 282.661 46.6406 282.55 46.83 282.49L51.94 280.91C52.106 280.858 52.2566 280.766 52.3787 280.642C52.5008 280.519 52.5905 280.367 52.64 280.2L54.24 275.1C54.3 274.911 54.4115 274.742 54.562 274.612C54.7125 274.483 54.8962 274.397 55.0923 274.366C55.2885 274.335 55.4895 274.359 55.6728 274.436C55.856 274.512 56.0143 274.639 56.13 274.8L59.21 279.17C59.3051 279.315 59.4362 279.432 59.5905 279.511C59.7448 279.59 59.9169 279.628 60.09 279.62L65.5 279.53C65.6996 279.528 65.8958 279.581 66.0665 279.685C66.2373 279.788 66.3757 279.937 66.4662 280.115C66.5567 280.293 66.5957 280.492 66.5787 280.691C66.5617 280.89 66.4894 281.08 66.37 281.24L63.13 285.53Z" fill="#FEC752"/>
<path d="M99.5898 293.38L106.03 294.14L100.66 288.25" fill="white"/>
<g style="mix-blend-mode:multiply" opacity="0.2">
<path d="M100.9 294.85V292.06C100.901 291.887 100.861 291.715 100.783 291.561C100.705 291.406 100.591 291.272 100.45 291.17L96.0802 288.08C95.9189 287.964 95.7932 287.805 95.7172 287.621C95.6413 287.437 95.6181 287.235 95.6503 287.039C95.6825 286.843 95.7688 286.659 95.8995 286.509C96.0302 286.359 96.2001 286.249 96.3902 286.19L101.49 284.6C101.657 284.551 101.809 284.461 101.933 284.339C102.056 284.217 102.148 284.066 102.2 283.9L102.98 281.41C103.1 281.66 103.21 281.92 103.31 282.18C104.147 284.304 104.364 286.621 103.938 288.864C103.511 291.106 102.458 293.182 100.9 294.85Z" fill="#020202"/>
</g>
<g style="mix-blend-mode:multiply" opacity="0.2">
<path d="M78.1 291.12C78.9695 293.347 80.4798 295.267 82.4401 296.636C84.4003 298.005 86.7225 298.762 89.113 298.811C91.5035 298.861 93.855 298.2 95.8701 296.913C97.8851 295.626 99.4734 293.771 100.434 291.581C101.394 289.391 101.684 286.966 101.267 284.612C100.849 282.258 99.7425 280.08 98.0873 278.355C96.4321 276.629 94.3025 275.433 91.9677 274.918C89.6328 274.403 87.1977 274.591 84.97 275.46C83.4905 276.037 82.1392 276.9 80.9932 277.999C79.8472 279.098 78.929 280.413 78.291 281.867C77.653 283.321 77.3078 284.887 77.275 286.474C77.2423 288.062 77.5226 289.641 78.1 291.12Z" fill="#020202"/>
</g>
<path d="M79.6 290.97C80.4671 293.197 81.9751 295.118 83.9333 296.489C85.8915 297.859 88.2121 298.619 90.6018 298.671C92.9915 298.723 95.3431 298.066 97.3594 296.783C99.3757 295.499 100.966 293.646 101.93 291.459C102.894 289.271 103.188 286.847 102.774 284.493C102.361 282.139 101.259 279.96 99.6076 278.232C97.9563 276.504 95.8298 275.304 93.4968 274.784C91.1638 274.264 88.7289 274.447 86.5 275.31C85.0178 275.884 83.6634 276.745 82.5142 277.843C81.365 278.941 80.4436 280.255 79.8027 281.709C79.1618 283.164 78.814 284.73 78.7793 286.319C78.7445 287.909 79.0234 289.489 79.6 290.97Z" fill="white"/>
<path d="M94.9799 291.19C92.5399 292.19 90.0699 293.19 87.7499 293.91C87.0199 294.14 85.9599 293.25 86.6899 292.55C86.2491 292.569 85.8185 292.414 85.4899 292.12C85.4107 292.044 85.3477 291.952 85.3046 291.851C85.2616 291.749 85.2394 291.64 85.2394 291.53C85.2394 291.42 85.2616 291.311 85.3046 291.21C85.3477 291.108 85.4107 291.017 85.4899 290.94C84.7199 291.48 83.8599 290.26 84.3499 289.57C83.8738 289.419 83.462 289.112 83.1799 288.7C83.0489 288.487 82.9846 288.24 82.9953 287.991C83.006 287.741 83.0912 287.501 83.2399 287.3C83.4686 287.069 83.75 286.898 84.0599 286.8L87.1199 285.59C86.0957 284.163 85.6007 282.423 85.7199 280.67C85.7999 280.15 86.2599 279.39 86.9099 279.51C87.5599 279.63 87.6699 280.43 87.8299 280.92C88.184 281.932 88.8115 282.827 89.6428 283.505C90.4742 284.183 91.4769 284.617 92.5399 284.76C92.5399 284.76 94.1099 289.04 94.9799 291.19Z" fill="#296BEF"/>
<path d="M97.3621 290.836L101.063 289.404L98.5975 283.033L94.8961 284.466L97.3621 290.836Z" fill="#296BEF"/>
<path d="M66.8402 294.28L61.2402 297.55L63.8202 290.01" fill="white"/>
<g style="mix-blend-mode:multiply" opacity="0.2">
<path d="M85.4099 284.11V284.2L81.9399 283.02C81.7749 282.954 81.5953 282.933 81.4196 282.959C81.2438 282.986 81.0782 283.058 80.9399 283.17L76.6499 286.36C76.49 286.479 76.2999 286.552 76.101 286.569C75.9022 286.586 75.7025 286.547 75.5247 286.456C75.3468 286.366 75.1977 286.227 75.0944 286.057C74.9911 285.886 74.9376 285.69 74.9399 285.49L75.0199 280.14C75.0204 279.968 74.9798 279.799 74.9015 279.646C74.8232 279.492 74.7096 279.36 74.5699 279.26L70.1999 276.17C70.0392 276.052 69.9142 275.892 69.8387 275.708C69.7633 275.523 69.7403 275.322 69.7724 275.125C69.8045 274.928 69.8904 274.744 70.0205 274.593C70.1507 274.443 70.3201 274.331 70.5099 274.27L75.5999 272.69C78.2847 273.205 80.7159 274.615 82.4973 276.689C84.2787 278.762 85.3053 281.378 85.4099 284.11Z" fill="#020202"/>
</g>
<g style="mix-blend-mode:multiply" opacity="0.2">
<path d="M63.1302 285.53C63.0238 285.671 62.9536 285.836 62.9257 286.01C62.8978 286.184 62.9131 286.363 62.9702 286.53L64.6802 291.6C64.7459 291.788 64.7571 291.991 64.7127 292.186C64.6682 292.38 64.5699 292.558 64.4289 292.699C64.2879 292.84 64.1101 292.938 63.9157 292.982C63.7214 293.027 63.5184 293.016 63.3302 292.95L62.0202 292.51C60.5117 290.764 59.5311 288.625 59.1929 286.342C58.8547 284.06 59.1728 281.728 60.1102 279.62L65.5002 279.53C65.6998 279.528 65.896 279.581 66.0668 279.685C66.2375 279.788 66.3759 279.937 66.4664 280.115C66.5569 280.293 66.5959 280.492 66.5789 280.691C66.5619 280.89 66.4896 281.08 66.3702 281.24L63.1302 285.53Z" fill="#020202"/>
</g>
<path d="M84.2199 284.11C84.319 286.5 83.7067 288.867 82.4604 290.909C81.2141 292.951 79.3899 294.578 77.2188 295.583C75.0476 296.587 72.6271 296.926 70.2636 296.554C67.9001 296.183 65.7 295.119 63.9417 293.496C62.1833 291.874 60.9459 289.766 60.386 287.44C59.8261 285.114 59.969 282.674 60.7964 280.429C61.6239 278.185 63.0987 276.236 65.0343 274.83C66.9699 273.423 69.2793 272.623 71.6699 272.53C74.8687 272.405 77.9863 273.555 80.3389 275.725C82.6916 277.896 84.0873 280.912 84.2199 284.11Z" fill="white"/>
<path d="M70.1998 290.44C72.8298 290.38 75.4999 290.32 77.9099 290.06C78.6799 289.97 79.2899 288.73 78.3499 288.38C78.7588 288.222 79.0893 287.91 79.2699 287.51C79.3094 287.407 79.3278 287.297 79.3239 287.187C79.32 287.077 79.294 286.969 79.2473 286.869C79.2006 286.769 79.1343 286.679 79.0523 286.606C78.9702 286.532 78.8742 286.476 78.7699 286.44C79.6899 286.63 79.9898 285.17 79.2598 284.73C79.6443 284.409 79.9029 283.963 79.9899 283.47C80.0283 283.223 79.9906 282.97 79.8816 282.745C79.7726 282.52 79.5976 282.333 79.3799 282.21C79.0784 282.09 78.7524 282.046 78.4298 282.08L75.1398 282.18C75.506 280.465 75.2656 278.677 74.4599 277.12C74.1799 276.67 73.4599 276.12 72.9099 276.53C72.3599 276.94 72.5798 277.68 72.6198 278.19C72.6997 279.259 72.4823 280.329 71.9916 281.282C71.501 282.235 70.7563 283.034 69.8398 283.59C69.8398 283.59 70.1298 288.12 70.1998 290.44Z" fill="#296BEF"/>
<path d="M68.9742 283.613L64.9971 283.764L65.2576 290.609L69.2348 290.458L68.9742 283.613Z" fill="#296BEF"/>
<path d="M118.3 290.87L118.36 344.77L63.3501 344.84V290.93L118.3 290.87Z" fill="#EACA9B"/>
<path d="M63.3502 290.87V344.77L50.5302 344.79L50.4902 290.88L63.3502 290.87Z" fill="#E2B17D"/>
<path d="M125.33 304.51H70.3101L63.3501 290.87H118.36L125.33 304.51Z" fill="#E2B17D"/>
<path d="M46.99 347.2H129.99C131.278 347.197 132.513 346.685 133.424 345.774C134.334 344.863 134.847 343.628 134.85 342.34V258.92C134.85 258.602 134.976 258.297 135.201 258.072C135.426 257.846 135.732 257.72 136.05 257.72H150.28C150.611 257.72 150.929 257.588 151.164 257.354C151.398 257.119 151.53 256.802 151.53 256.47C151.53 256.139 151.398 255.821 151.164 255.586C150.929 255.352 150.611 255.22 150.28 255.22H136.04C135.059 255.22 134.118 255.61 133.424 256.304C132.73 256.998 132.34 257.939 132.34 258.92V342.34C132.34 342.966 132.091 343.566 131.649 344.009C131.206 344.451 130.606 344.7 129.98 344.7H46.98C46.6485 344.7 46.3305 344.832 46.0961 345.066C45.8617 345.301 45.73 345.619 45.73 345.95C45.73 346.282 45.8617 346.6 46.0961 346.834C46.3305 347.068 46.6485 347.2 46.98 347.2H46.99Z" fill="#232323"/>
<path d="M119.06 365.75C124.036 365.75 128.07 361.716 128.07 356.74C128.07 351.764 124.036 347.73 119.06 347.73C114.084 347.73 110.05 351.764 110.05 356.74C110.05 361.716 114.084 365.75 119.06 365.75Z" fill="#3C3C3B"/>
<path d="M119.06 361.36C121.611 361.36 123.68 359.292 123.68 356.74C123.68 354.188 121.611 352.12 119.06 352.12C116.508 352.12 114.44 354.188 114.44 356.74C114.44 359.292 116.508 361.36 119.06 361.36Z" fill="white"/>
<path d="M60.9402 365.75C65.9163 365.75 69.9502 361.716 69.9502 356.74C69.9502 351.764 65.9163 347.73 60.9402 347.73C55.9641 347.73 51.9302 351.764 51.9302 356.74C51.9302 361.716 55.9641 365.75 60.9402 365.75Z" fill="#3C3C3B"/>
<path d="M56.3198 356.74C56.3198 357.654 56.5908 358.547 57.0984 359.307C57.6061 360.066 58.3276 360.659 59.1718 361.008C60.016 361.358 60.945 361.45 61.8411 361.271C62.7373 361.093 63.5605 360.653 64.2067 360.007C64.8528 359.361 65.2928 358.538 65.471 357.641C65.6493 356.745 65.5578 355.816 65.2082 354.972C64.8585 354.128 64.2663 353.406 63.5066 352.899C62.7468 352.391 61.8536 352.12 60.9398 352.12C59.7145 352.12 58.5394 352.607 57.673 353.473C56.8066 354.34 56.3198 355.515 56.3198 356.74Z" fill="white"/>
<path d="M382.94 61.35V335.2C382.94 336.742 382.786 338.279 382.48 339.79C382.33 340.522 382.143 341.247 381.92 341.96L381.56 343.03C380.803 345.1 379.745 347.048 378.42 348.81C377.763 349.686 377.044 350.515 376.27 351.29C375.496 352.059 374.671 352.774 373.8 353.43C373.22 353.86 372.61 354.27 371.99 354.66C371.37 355.04 370.73 355.39 370.07 355.71C369.072 356.193 368.039 356.601 366.98 356.93C366.267 357.153 365.542 357.34 364.81 357.49C363.296 357.795 361.755 357.95 360.21 357.95H247.85C246.223 357.951 244.6 357.776 243.01 357.43L242.24 357.25L241.39 357.02C240.224 356.673 239.087 356.235 237.99 355.71C237.44 355.44 236.91 355.16 236.4 354.86C236.16 354.72 235.92 354.58 235.69 354.43C235.19 354.12 234.69 353.78 234.24 353.43C232.782 352.337 231.46 351.075 230.3 349.67C229.84 349.11 229.4 348.53 228.99 347.92C228.376 347.007 227.828 346.051 227.35 345.06C226.699 343.726 226.186 342.329 225.82 340.89C225.341 339.035 225.099 337.126 225.1 335.21V61.35C225.103 55.3154 227.502 49.5289 231.77 45.2627C236.038 40.9966 241.825 38.6 247.86 38.6H360.19C366.223 38.6027 372.008 41.0004 376.274 45.2663C380.54 49.5322 382.937 55.3172 382.94 61.35Z" fill="#3C3C3B"/>
<path d="M377.94 61.35V335.2C377.94 336.409 377.82 337.615 377.58 338.8C377.472 339.354 377.331 339.902 377.16 340.44L376.83 341.44C376.249 343.021 375.436 344.507 374.42 345.85C373.906 346.538 373.341 347.186 372.73 347.79C372.106 348.402 371.438 348.967 370.73 349.48C370.39 349.73 369.98 350.01 369.51 350.31L369.32 350.43C368.93 350.67 368.53 350.9 368.11 351.11L367.82 351.24C367.125 351.581 366.407 351.872 365.67 352.11L365.42 352.19C364.83 352.37 364.28 352.51 363.74 352.63C362.55 352.862 361.342 352.979 360.13 352.98H247.85C246.582 352.983 245.318 352.849 244.08 352.58C243.66 352.49 243.24 352.39 242.84 352.27C241.915 352.009 241.012 351.674 240.14 351.27C239.72 351.06 239.3 350.84 238.94 350.62L238.43 350.32L238.32 350.25C238.01 350.06 237.66 349.82 237.23 349.5C236.094 348.638 235.06 347.648 234.15 346.55C233.77 346.09 233.44 345.65 233.15 345.21C232.67 344.495 232.243 343.746 231.87 342.97C231.4 342.007 231.022 341.003 230.74 339.97L230.67 339.7C230.299 338.249 230.111 336.758 230.11 335.26V61.35C230.118 56.6432 231.992 52.1315 235.321 48.8041C238.65 45.4768 243.163 43.6053 247.87 43.6H360.19C363.743 43.6056 367.213 44.6755 370.152 46.6718C373.091 48.6681 375.365 51.4992 376.68 54.8C377.514 56.8831 377.941 59.1064 377.94 61.35Z" fill="#A4D6FB"/>
<g style="mix-blend-mode:multiply" opacity="0.2">
<path d="M361.29 83.28H243.04C240.234 83.28 237.96 85.5544 237.96 88.36V133.2C237.96 136.006 240.234 138.28 243.04 138.28H361.29C364.096 138.28 366.37 136.006 366.37 133.2V88.36C366.37 85.5544 364.096 83.28 361.29 83.28Z" fill="#020202"/>
</g>
<path d="M363.15 81.32H244.9C242.094 81.32 239.82 83.5944 239.82 86.4V131.24C239.82 134.046 242.094 136.32 244.9 136.32H363.15C365.955 136.32 368.23 134.046 368.23 131.24V86.4C368.23 83.5944 365.955 81.32 363.15 81.32Z" fill="white"/>
<path opacity="0.3" d="M353.58 93.4901L349.16 94.1901L352.41 97.2701L351.72 101.69L355.65 99.5501L359.64 101.58L358.82 97.1801L361.98 94.0101L357.54 93.4301L355.5 89.4401L353.58 93.4901Z" fill="#FFBC47"/>
<path d="M337.92 93.4901L333.5 94.1901L336.75 97.2701L336.06 101.69L339.99 99.5501L343.98 101.58L343.16 97.1801L346.32 94.0101L341.88 93.4301L339.84 89.4401L337.92 93.4901Z" fill="#FFBC47"/>
<path d="M322.25 93.4901L317.83 94.1901L321.08 97.2701L320.39 101.69L324.32 99.5501L328.32 101.58L327.5 97.1801L330.65 94.0101L326.21 93.4301L324.18 89.4401L322.25 93.4901Z" fill="#FFBC47"/>
<path d="M305.43 97.2701L304.73 101.69L308.51 99.6401L308.66 99.5601L312.65 101.58L311.84 97.1701L314.99 94.0101L310.56 93.4301L308.51 89.4401L306.58 93.4801L302.17 94.2001L305.43 97.2701Z" fill="#FFBC47"/>
<path d="M290.93 93.4901L286.51 94.1901L289.76 97.2701L289.07 101.69L293 99.5501L296.99 101.58L296.17 97.1801L299.33 94.0101L294.89 93.4301L292.85 89.4401L290.93 93.4901Z" fill="#FFBC47"/>
<g opacity="0.5">
<path opacity="0.5" d="M286.51 109.88H344.48" stroke="#2F36AD" stroke-miterlimit="10"/>
</g>
<g opacity="0.5">
<path opacity="0.5" d="M286.51 115.98H355.57" stroke="#2F36AD" stroke-miterlimit="10"/>
</g>
<g opacity="0.5">
<path opacity="0.5" d="M286.51 122.09H355.57" stroke="#2F36AD" stroke-miterlimit="10"/>
</g>
<g opacity="0.5">
<path opacity="0.5" d="M286.51 128.2H355.57" stroke="#2F36AD" stroke-miterlimit="10"/>
</g>
<path opacity="0.36" d="M273.729 116.686C279.587 110.828 279.587 101.33 273.729 95.4724C267.872 89.6145 258.374 89.6145 252.516 95.4724C246.658 101.33 246.658 110.828 252.516 116.686C258.374 122.543 267.872 122.543 273.729 116.686Z" fill="#6774FF"/>
<path d="M269.56 102.74C270.73 104.74 269.72 107.5 270.9 109.51C271.37 110.31 272.16 110.94 272.39 111.84C272.478 112.222 272.458 112.622 272.33 112.993C272.203 113.364 271.975 113.692 271.67 113.94C271.357 114.177 270.984 114.321 270.593 114.354C270.202 114.388 269.809 114.31 269.46 114.13C269.318 114.043 269.167 113.969 269.01 113.91C268.43 113.74 267.9 114.25 267.4 114.6C267.098 114.815 266.752 114.96 266.387 115.024C266.022 115.088 265.647 115.069 265.29 114.97C264.856 114.775 264.472 114.483 264.167 114.118C263.862 113.752 263.645 113.322 263.53 112.86C262.69 110.33 263.28 107.57 264.06 105.03C264.45 103.76 265.06 102.35 266.27 101.89" fill="#212120"/>
<path d="M264.71 111.72C264.71 111.72 264.71 114.02 265.02 114.18C265.502 114.377 266.001 114.531 266.51 114.64C266.51 114.64 264.88 116.46 263.63 116.4C262.942 116.288 262.289 116.017 261.723 115.609C261.157 115.201 260.694 114.668 260.37 114.05C260.37 113.6 260.12 111.05 260.12 111.05" fill="#FFBE9D"/>
<path d="M269.33 102.28C269.33 102.28 269.69 106.74 268.93 109.09C268.516 110.039 267.846 110.853 266.994 111.441C266.143 112.03 265.144 112.369 264.11 112.42C258.78 112.42 257.82 105.17 257.85 104.82C257.88 104.47 265.72 101.43 265.72 101.43L269.33 102.28Z" fill="#FFBE9D"/>
<path d="M261.76 114.22C261.76 114.22 264.19 116.92 265.02 114.22C267.12 114.8 269.38 115.22 270.29 117.13C273.19 125.71 263.71 126.46 261.03 126.46C257.23 126.46 251.03 124.38 254.14 117.3C255.11 115.07 256.57 113.72 261.76 114.22Z" fill="#FFBC47"/>
<path d="M255.08 115.53L254.73 115.33C254.096 115.037 253.589 114.526 253.3 113.89C252.855 112.762 252.855 111.508 253.3 110.38C253.743 109.786 254.231 109.228 254.76 108.71C255.336 107.846 255.636 106.828 255.62 105.79C255.615 104.76 255.685 103.73 255.83 102.71C256.029 101.017 256.802 99.4428 258.02 98.2501C260.14 96.4701 264.4 95.4201 266.71 97.4001C267.14 97.7601 267.22 98.0501 267.79 98.1001C268.473 98.1304 269.139 98.326 269.73 98.6701C270.49 99.1101 271.41 99.7301 271.3 100.73C271.1 101.586 270.586 102.335 269.86 102.83C269.606 102.957 269.325 103.022 269.04 103.02C268.13 103.02 267.39 102.45 266.5 102.54C266.064 102.594 265.665 102.817 265.39 103.16C265.07 103.55 265.11 104.1 264.74 104.47C264.14 105.06 263.21 105.01 262.51 105.4C262.385 105.451 262.277 105.538 262.2 105.65C262.143 105.768 262.116 105.899 262.12 106.03C262.12 106.4 262.12 106.77 262.12 107.15C261.77 106.99 261.73 106.49 261.44 106.24C261.291 106.134 261.11 106.083 260.928 106.096C260.745 106.109 260.573 106.185 260.44 106.31C260.167 106.578 259.994 106.93 259.95 107.31C259.903 107.763 259.972 108.221 260.15 108.64C260.38 109.4 261.03 110.09 261.56 109.59C261.94 110.15 261.56 111.09 261.51 111.72C261.46 112.35 261.51 113.22 261.98 113.55C262.45 113.88 263.09 113.63 263.12 114.41C263.087 114.769 262.927 115.105 262.669 115.356C262.41 115.607 262.07 115.758 261.71 115.78C260.993 115.795 260.279 115.67 259.61 115.41C258.939 115.14 258.196 115.101 257.5 115.3C257.127 115.521 256.731 115.702 256.32 115.84C255.883 115.888 255.443 115.778 255.08 115.53Z" fill="#212120"/>
<g style="mix-blend-mode:multiply" opacity="0.2">
<path d="M361.22 155.65H242.97C240.165 155.65 237.89 157.924 237.89 160.73V205.57C237.89 208.376 240.165 210.65 242.97 210.65H361.22C364.026 210.65 366.3 208.376 366.3 205.57V160.73C366.3 157.924 364.026 155.65 361.22 155.65Z" fill="#020202"/>
</g>
<path d="M363.15 153.66H244.9C242.094 153.66 239.82 155.934 239.82 158.74V203.58C239.82 206.386 242.094 208.66 244.9 208.66H363.15C365.955 208.66 368.23 206.386 368.23 203.58V158.74C368.23 155.934 365.955 153.66 363.15 153.66Z" fill="white"/>
<path opacity="0.3" d="M353.58 165.82L349.16 166.53L352.41 169.61L351.72 174.03L355.65 171.89L359.64 173.91L358.82 169.51L361.98 166.34L357.54 165.76L355.5 161.78L353.58 165.82Z" fill="#FFBC47"/>
<path opacity="0.3" d="M337.92 165.82L333.5 166.53L336.75 169.61L336.06 174.03L339.99 171.89L343.98 173.91L343.16 169.51L346.32 166.34L341.88 165.76L339.84 161.78L337.92 165.82Z" fill="#FFBC47"/>
<path opacity="0.3" d="M322.25 165.82L317.83 166.53L321.08 169.61L320.39 174.03L324.32 171.89L328.32 173.91L327.5 169.51L330.65 166.34L326.21 165.76L324.18 161.78L322.25 165.82Z" fill="#FFBC47"/>
<path d="M305.43 169.61L304.73 174.03L308.51 171.98L308.66 171.9L312.65 173.92L311.84 169.51L314.99 166.35L310.56 165.77L308.51 161.78L306.58 165.82L302.17 166.54L305.43 169.61Z" fill="#FFBC47"/>
<path d="M290.93 165.82L286.51 166.53L289.76 169.61L289.07 174.03L293 171.89L296.99 173.91L296.17 169.51L299.33 166.34L294.89 165.76L292.85 161.78L290.93 165.82Z" fill="#FFBC47"/>
<g opacity="0.5">
<path opacity="0.5" d="M286.51 182.21H344.48" stroke="#2F36AD" stroke-miterlimit="10"/>
</g>
<g opacity="0.5">
<path opacity="0.5" d="M286.51 188.32H355.57" stroke="#2F36AD" stroke-miterlimit="10"/>
</g>
<g opacity="0.5">
<path opacity="0.5" d="M286.51 194.43H355.57" stroke="#2F36AD" stroke-miterlimit="10"/>
</g>
<g opacity="0.5">
<path opacity="0.5" d="M286.51 200.53H355.57" stroke="#2F36AD" stroke-miterlimit="10"/>
</g>
<path opacity="0.36" d="M273.725 189.011C279.582 183.153 279.582 173.655 273.725 167.797C267.867 161.94 258.369 161.94 252.511 167.797C246.654 173.655 246.654 183.153 252.511 189.011C258.369 194.868 267.867 194.868 273.725 189.011Z" fill="#6774FF"/>
<path d="M269.24 178.81C268.74 179 268.94 180.71 268.85 181.26C268.76 181.81 268.36 183.94 267.24 184.26C266.12 184.58 265.43 184.67 265.42 184.85C265.41 185.03 265.42 185.33 265.48 185.72C265.54 186.11 265.55 186.58 265.55 186.58L264.55 187.83L263.45 187.91L260.75 187.13C260.75 187.13 260.62 184.32 260.51 183.89C260.44 183.62 259.43 181.72 258.69 179.89C258.277 178.982 258.017 178.012 257.92 177.02C257.92 175.02 257.98 173.02 259.19 172.02C260.4 171.02 268.06 167.38 268.27 173.37C268.616 174.733 269.057 176.069 269.59 177.37C269.679 177.482 269.741 177.613 269.771 177.752C269.802 177.892 269.8 178.037 269.766 178.175C269.733 178.314 269.668 178.444 269.576 178.553C269.485 178.663 269.37 178.751 269.24 178.81Z" fill="#FFBE9D"/>
<path d="M265.5 185.72C265.5 186.15 265.57 186.58 265.57 186.58L265.28 187.98L263.47 187.91L260.77 187.13C260.77 187.13 260.64 184.32 260.53 183.89C260.46 183.62 259.45 181.72 258.71 179.89L258.81 178.73C258.81 178.73 261.02 178.48 261.1 178.49C261.41 178.939 261.674 179.418 261.89 179.92C261.89 180 261.45 181.31 261.45 181.31C261.45 181.31 261.38 183.11 261.45 184.5C261.467 184.859 261.597 185.203 261.821 185.483C262.046 185.763 262.354 185.965 262.7 186.06C263.116 186.183 263.546 186.25 263.98 186.26C264.534 186.265 265.073 186.074 265.5 185.72Z" fill="#FFBE9D"/>
<path d="M261.25 178.11C261.25 178.11 260.33 181.96 262.48 184.03C264.63 186.1 268.37 184.95 268.9 184.5C269.43 184.05 271.19 180.82 269.56 179.34C267.93 177.86 265.78 179.48 265.78 179.48C265.78 179.48 264.5 180.58 264.08 180.48C263.66 180.38 262.73 179.03 263.08 176.57C263.09 176.506 263.121 176.447 263.168 176.402C263.215 176.356 263.275 176.328 263.34 176.32C263.84 176.25 265 175.83 264.93 173.39C264.93 173.342 264.94 173.294 264.958 173.25C264.977 173.206 265.005 173.165 265.039 173.132C265.074 173.098 265.114 173.072 265.159 173.054C265.204 173.037 265.252 173.029 265.3 173.03C266.123 173.038 266.944 173.094 267.76 173.2C267.913 173.235 268.063 173.278 268.21 173.33C268.245 173.344 268.277 173.366 268.303 173.393C268.329 173.421 268.348 173.454 268.36 173.49L268.62 174.4L269.03 175.78C269.143 175.707 269.237 175.608 269.305 175.491C269.373 175.375 269.412 175.244 269.42 175.11C269.351 174.576 269.321 174.038 269.33 173.5C269.41 173.29 270.04 173.13 270.14 172.63C270.37 171.49 270.83 167.06 267.14 169.15C266.739 169.447 266.298 169.685 265.83 169.86C265.33 169.96 264.83 169.49 263.83 169.38C262.37 169.22 255.91 169.67 256.69 176.12C257.47 182.57 260.53 184.04 260.53 184.04C260.53 184.04 260.5 178.77 261.25 178.11Z" fill="#212120"/>
<path d="M261.25 178.11C261.25 178.11 261.15 177.01 260.3 177.11C259.17 177.32 258.69 180.28 261.06 180.33C261.029 179.585 261.093 178.839 261.25 178.11Z" fill="#FFBE9D"/>
<path d="M260.82 187.07C260.82 187.07 264.15 188.34 265.63 186.61C269.73 187.19 271.14 187.15 273.55 190.04C271.55 193.66 260.62 195.33 260.23 195.2C259.84 195.07 254.54 192.25 254.38 192.12C254.628 190.626 255.427 189.278 256.619 188.344C257.811 187.409 259.31 186.955 260.82 187.07Z" fill="#1530A4"/>
<g style="mix-blend-mode:multiply" opacity="0.2">
<path d="M382.5 259.29C382.62 258.29 382.78 257.06 382.99 255.69V277.28C382.165 275.041 381.467 272.758 380.9 270.44C380.5 268.19 381.5 263.43 382.5 259.29Z" fill="#020202"/>
</g>
<path d="M382.95 130.7V98.37C384.158 98.3726 385.315 98.8542 386.168 99.7091C387.021 100.564 387.5 101.722 387.5 102.93V126.14C387.5 127.348 387.021 128.506 386.168 129.361C385.315 130.216 384.158 130.697 382.95 130.7Z" fill="#3C3C3B"/>
<path d="M227.39 114.53H225.19C224.564 114.53 223.964 114.281 223.521 113.839C223.079 113.396 222.83 112.796 222.83 112.17V100.72C222.83 100.094 223.079 99.4938 223.521 99.0513C223.964 98.6087 224.564 98.36 225.19 98.36H227.39V114.53Z" fill="#3C3C3B"/>
<path d="M227.39 134.03H225.19C224.564 134.03 223.964 133.781 223.521 133.339C223.079 132.896 222.83 132.296 222.83 131.67V120.22C222.83 119.594 223.079 118.994 223.521 118.551C223.964 118.109 224.564 117.86 225.19 117.86H227.39V134.03Z" fill="#3C3C3B"/>
<g style="mix-blend-mode:screen" opacity="0.3">
<path d="M376.68 54.8L230.1 279.22V240.09L358.43 43.6H360.19C363.743 43.6056 367.213 44.6755 370.152 46.6718C373.091 48.6681 375.365 51.4992 376.68 54.8Z" fill="white"/>
</g>
<g style="mix-blend-mode:screen" opacity="0.3">
<path d="M377.94 154.68L248.46 352.95H274.02L377.94 193.82V154.68Z" fill="white"/>
</g>
<path d="M320.75 50.45H287.35C284.653 50.45 282.066 49.3786 280.159 47.4713C278.252 45.5641 277.18 42.9773 277.18 40.28H330.93C330.928 42.9782 329.854 45.565 327.945 47.4719C326.036 49.3789 323.448 50.45 320.75 50.45Z" fill="#3C3C3B"/>
<path d="M515.57 84.8101H448.81C446.91 84.8101 445.37 86.3502 445.37 88.2501V117.5C445.37 119.4 446.91 120.94 448.81 120.94H515.57C517.47 120.94 519.01 119.4 519.01 117.5V88.2501C519.01 86.3502 517.47 84.8101 515.57 84.8101Z" fill="#13BCB3"/>
<path d="M455.72 89.67L456.37 91L457.84 91.21L456.78 92.24L457.03 93.7L455.72 93.01L454.41 93.7L454.66 92.24L453.6 91.21L455.06 91L455.72 89.67Z" fill="white"/>
<path d="M462.12 89.67L462.77 91L464.24 91.21L463.18 92.24L463.43 93.7L462.12 93.01L460.81 93.7L461.06 92.24L460 91.21L461.46 91L462.12 89.67Z" fill="white"/>
<path d="M468.51 89.67L469.17 91L470.64 91.21L469.57 92.24L469.82 93.7L468.51 93.01L467.2 93.7L467.45 92.24L466.39 91.21L467.86 91L468.51 89.67Z" fill="white"/>
<path d="M474.91 89.67L475.57 91L477.03 91.21L475.97 92.24L476.22 93.7L474.91 93.01L473.6 93.7L473.85 92.24L472.79 91.21L474.26 91L474.91 89.67Z" fill="white"/>
<path d="M481.31 89.67L481.97 91L483.43 91.21L482.37 92.24L482.62 93.7L481.31 93.01L480 93.7L480.25 92.24L479.19 91.21L480.65 91L481.31 89.67Z" fill="white"/>
<g opacity="0.66">
<path opacity="0.66" d="M510.5 113.56H495.2" stroke="#0B9992" stroke-width="1.91" stroke-linecap="round" stroke-linejoin="round"/>
<path opacity="0.66" d="M464.65 108.11H454.3" stroke="#0B9992" stroke-width="1.91" stroke-linecap="round" stroke-linejoin="round"/>
<path opacity="0.66" d="M510.5 108.11H469.14" stroke="#0B9992" stroke-width="1.91" stroke-linecap="round" stroke-linejoin="round"/>
<path opacity="0.66" d="M510.5 102.66H454.3" stroke="#0B9992" stroke-width="1.91" stroke-linecap="round" stroke-linejoin="round"/>
<path opacity="0.66" d="M471.63 97.21H454.3" stroke="#0B9992" stroke-width="1.91" stroke-linecap="round" stroke-linejoin="round"/>
<path opacity="0.66" d="M510.5 97.21H475.94" stroke="#0B9992" stroke-width="1.91" stroke-linecap="round" stroke-linejoin="round"/>
<path opacity="0.66" d="M490.74 113.56H454.3" stroke="#0B9992" stroke-width="1.91" stroke-linecap="round" stroke-linejoin="round"/>
</g>
<path d="M457.65 120.94L450.95 129.1V120.94H457.65Z" fill="#13BCB3"/>
<g style="mix-blend-mode:multiply" opacity="0.2">
<path d="M382.94 179.18V175.18C382.757 176.169 382.677 177.174 382.7 178.18C382.691 178.529 382.774 178.873 382.94 179.18ZM377.94 156.24C371.94 152.52 366.12 148.74 365.53 147.84C364.872 146.996 364.283 146.099 363.77 145.16L369.37 145.1C369.667 145.095 369.957 145.008 370.207 144.848C370.458 144.688 370.658 144.461 370.787 144.193C370.916 143.925 370.968 143.627 370.936 143.331C370.905 143.036 370.792 142.755 370.61 142.52L365.68 136.24C365.522 136.035 365.416 135.796 365.369 135.543C365.322 135.289 365.336 135.027 365.41 134.78L367.8 127.16C367.893 126.875 367.904 126.569 367.832 126.277C367.76 125.986 367.607 125.721 367.391 125.512C367.175 125.304 366.905 125.16 366.611 125.098C366.317 125.035 366.012 125.057 365.73 125.16L358.23 127.91C357.987 128 357.726 128.028 357.47 127.993C357.214 127.958 356.97 127.861 356.76 127.71L350.24 123.09C349.997 122.918 349.712 122.817 349.415 122.799C349.118 122.781 348.822 122.846 348.561 122.988C348.3 123.13 348.083 123.342 347.936 123.6C347.789 123.859 347.718 124.153 347.73 124.45L348.02 132.45C348.029 132.708 347.976 132.965 347.865 133.199C347.753 133.432 347.587 133.635 347.38 133.79L340.97 138.53C340.731 138.709 340.547 138.95 340.438 139.228C340.33 139.506 340.301 139.808 340.355 140.101C340.409 140.395 340.544 140.667 340.744 140.888C340.945 141.108 341.203 141.268 341.49 141.35L349.17 143.53C349.415 143.599 349.64 143.726 349.826 143.9C350.012 144.074 350.154 144.29 350.24 144.53L352.8 152.09C352.894 152.372 353.065 152.622 353.295 152.812C353.524 153.001 353.802 153.123 354.096 153.162C354.391 153.202 354.691 153.158 354.962 153.036C355.233 152.913 355.464 152.717 355.63 152.47L358.98 147.47C359.61 147.64 360.13 147.73 360.13 147.73C360.639 148.048 361.174 148.322 361.73 148.55C361.73 148.55 371.08 161.17 377.94 168.23C378.974 169.318 380.069 170.346 381.22 171.31C381.81 171.79 382.38 172.23 382.94 172.65V159.34C381.34 158.36 379.64 157.31 377.94 156.24Z" fill="#020202"/>
</g>
<path d="M470.12 352.81C469.95 353.74 471.71 356.2 469.35 358.27C466.99 360.34 461.63 362.51 465.19 362.59C468.197 362.689 471.19 362.132 473.96 360.96C475.76 360.06 474.32 358.66 476.56 357.96C479.56 357.03 479.48 356.84 478.05 353.63C476.09 349.19 470.65 349.81 470.12 352.81Z" fill="#0A1828"/>
<path d="M446.84 203.6C445.609 206.786 445.338 210.262 446.06 213.6C447.54 220.26 445.86 220.7 445.86 220.7C445.86 220.7 436.86 226.43 429.34 228.77C423.96 230.44 419.34 230.16 419.5 224.22V224.14C419.5 223.78 419.5 223.43 419.5 223.14C419.76 209.8 416.98 209.14 416.29 194.14C415.58 178.81 419.68 170.26 423.74 166.55C427.8 162.84 433.35 162.71 443.74 165.18C451.58 167.03 454.17 169.11 454.1 174.91C454.01 177.309 453.729 179.696 453.26 182.05C452.03 189.39 448.94 198.15 446.84 203.6Z" fill="#0FB3AF"/>
<path d="M427.91 170.77C427.91 170.77 419.78 197.43 421.41 210.19L424.41 215.64L427.69 209.7C427.69 209.7 425.03 184.17 430.12 171.22L427.91 170.77Z" fill="#FF911E"/>
<path d="M446.84 203.6C445.608 206.786 445.337 210.262 446.06 213.6C447.54 220.26 445.86 220.7 445.86 220.7C445.86 220.7 436.86 226.43 429.34 228.77L422.34 228.1L419.53 225.9V224.14C419.53 223.78 419.53 223.43 419.53 223.14C423.06 223.407 426.609 223.314 430.12 222.86C433.673 222.419 437.158 221.546 440.5 220.26C441.387 219.934 442.13 219.303 442.596 218.482C443.063 217.66 443.224 216.699 443.05 215.77C442.469 212.698 442.135 209.585 442.05 206.46C442.05 203.52 443.43 198.56 444.55 194.97C445.383 192.239 445.705 189.378 445.5 186.53C445.292 183.307 445.292 180.073 445.5 176.85L451.06 173.85L454.15 175.01C454.059 177.409 453.778 179.796 453.31 182.15C452.03 189.39 448.94 198.15 446.84 203.6Z" fill="#049991"/>
<path d="M446.96 231.91C447.6 232.02 449.24 229.14 449.24 229.14L448.55 228.22C448.161 227.705 447.618 227.327 447 227.14H446.89C446.621 227.054 446.332 227.058 446.065 227.15C445.799 227.242 445.569 227.417 445.41 227.65C444.93 228.35 444.21 229.15 443.41 229.12H443.31C442.5 229.11 446.32 231.81 446.96 231.91Z" fill="#F4D5B5"/>
<path d="M421.64 139.17C421.447 139.743 421.378 140.351 421.438 140.953C421.499 141.555 421.687 142.137 421.99 142.66L426.29 136.84H423.29L421.64 139.17Z" fill="#212120"/>
<path d="M445 146.88C444.81 154.39 438.33 158.74 438.33 158.74L438.76 165.58L434.39 168.41L431.39 170.35L429.67 166.75L429.44 162.35C429.41 161.85 429.216 161.374 428.889 160.995C428.562 160.616 428.12 160.354 427.63 160.25C425.98 159.85 424.493 158.953 423.37 157.68C423.28 157.57 423.18 157.46 423.1 157.34C420.26 153.47 419.18 138.65 428.91 134.44C438.94 130.08 445.2 139.35 445 146.88Z" fill="#FFBE9D"/>
<path d="M434.1 164.31L434.39 168.41L431.39 170.35L429.67 166.75L429.44 162.35C429.409 161.85 429.216 161.374 428.889 160.995C428.562 160.616 428.12 160.354 427.63 160.25C425.98 159.85 424.493 158.953 423.37 157.68C423.28 157.57 423.18 157.46 423.1 157.34C424.992 158.376 427.074 159.019 429.22 159.23C430.498 159.376 431.685 159.963 432.576 160.89C433.467 161.818 434.006 163.027 434.1 164.31Z" fill="#F4B295"/>
<path d="M434.5 149.19C434.88 149.35 435.25 148.76 435.25 148.76C435.25 148.76 437.36 144.02 438.08 143.3C439.38 141.99 442.44 142.11 442.68 146.17C442.87 149.31 439.15 156.02 438.01 157.99C437.926 158.146 437.899 158.326 437.934 158.499C437.969 158.673 438.063 158.828 438.2 158.94C438.326 159.023 438.47 159.075 438.62 159.09H438.67C438.845 159.094 439.016 159.033 439.15 158.92C441.55 156.81 452.15 146.67 443.73 137.13C443.73 137.13 437.06 137.56 436.04 140.78C435.312 143.271 434.731 145.802 434.3 148.36C434.3 148.36 434.12 149.02 434.5 149.19Z" fill="#212120"/>
<path d="M421.64 139.17C421.64 139.17 427.47 134.62 436.34 140.17L443.59 138.31C443.59 138.31 443.9 138.22 443.74 137.13C443.58 136.04 442.74 125.37 430.06 127.77C422.75 129.15 418.27 134.21 421.64 139.17Z" fill="#212120"/>
<path d="M427.35 168.53V168.88C427.432 169.541 427.607 170.188 427.87 170.8L430.07 171.25L431.99 169.82L429.79 167.27L429.45 167.35C428.663 167.556 427.939 167.951 427.34 168.5L427.35 168.53Z" fill="#FF911E"/>
<path d="M438.71 162.39C439.563 162.951 440.283 163.691 440.82 164.56C439.894 164.979 438.993 165.45 438.12 165.97C436.97 166.67 431.46 170.57 431.46 170.57L429.83 167.24C429.83 167.24 435.59 163.26 438.71 162.39Z" fill="#049991"/>
<path d="M429.83 167.24C428.761 167.607 427.864 168.354 427.31 169.34C427.31 169.34 426.31 167.45 427.58 164.08C428.144 163.546 428.776 163.088 429.46 162.72L429.83 167.24Z" fill="#049991"/>
<path d="M445.18 227.21C444.78 227.731 444.335 228.216 443.85 228.66C443.54 228.83 443.49 228.47 443.6 228.22C443.71 227.97 445.13 226.87 445.18 227.21Z" fill="#E5BB98"/>
<path d="M438.63 159.09H438.68C438.855 159.094 439.026 159.033 439.16 158.92C441.56 156.81 452.16 146.67 443.74 137.13C443.977 138.111 444.058 139.124 443.98 140.13C443.98 140.13 449.34 148.83 438.63 159.09Z" fill="#212120"/>
<path d="M457.42 258.68C457.42 258.68 463.71 237.88 445.86 220.74C445.86 220.74 436.29 225.03 428.63 225.54C425.602 225.835 422.55 225.761 419.54 225.32C419.54 225.32 419.03 243.8 419.01 253.76L457.42 258.68Z" fill="#3C3C3B"/>
<path d="M417.38 293.23C416.99 283.93 423.88 284.92 427.91 291.69C440.82 313.37 427.86 340.54 426.47 356.22C425.922 355.324 425.182 354.561 424.304 353.985C423.425 353.409 422.43 353.035 421.39 352.89C421.058 352.924 420.737 353.026 420.446 353.189C420.156 353.353 419.902 353.574 419.7 353.84C419.92 334.61 417.8 303.17 417.38 293.23Z" fill="#3C3C3B"/>
<path d="M427.56 294.23C426.4 298.03 416.41 302.43 417.46 288.6C417.92 282.47 419.15 248.6 419.39 245.36C419.63 242.12 420.17 237.36 421.75 236.73C429.64 233.73 440.75 243.66 438.63 255.92C437.24 264.11 429.97 286.36 427.56 294.23Z" fill="#3C3C3B"/>
<path d="M419.73 354.12C418.387 355.851 416.61 357.197 414.58 358.02C411.84 359.24 406.02 359.82 409.26 360.9C412.5 361.98 416.26 361.32 418.16 361.02C420.147 360.741 422.153 360.62 424.16 360.66C427.16 360.66 427.16 360.45 426.75 357.1C426.21 352.53 421.06 351.53 419.73 354.12Z" fill="#0A1828"/>
<path d="M450.5 295.35C447.39 286.57 454.26 285.5 460.11 290.78C478.84 307.68 474.46 337.47 477.75 352.86C475.977 353.931 473.951 354.511 471.88 354.54C471.569 354.53 471.265 354.452 470.988 354.31C470.711 354.168 470.469 353.967 470.28 353.72C464.8 335.28 453.8 304.72 450.5 295.35Z" fill="#3C3C3B"/>
<path d="M460.63 292.83C460.98 296.83 453.37 304.61 449.15 291.41C447.28 285.55 435.71 253.72 434.7 250.6C433.69 247.48 432.41 242.86 433.65 241.72C439.84 236 453.82 241.03 456.5 253.17C458.29 261.28 459.9 284.63 460.63 292.83Z" fill="#3C3C3B"/>
<path d="M442.73 226.72C442.73 226.72 444.12 231.64 450.32 234.47C455.67 236.91 441.76 238.3 441.45 237.76C441.14 237.22 438.45 228.24 438.45 228.24L442.73 226.72Z" fill="#3A3A3A"/>
<path d="M497.02 192.33H398.31C395.504 192.33 393.23 194.604 393.23 197.41V233.88C393.23 236.686 395.504 238.96 398.31 238.96H497.02C499.826 238.96 502.1 236.686 502.1 233.88V197.41C502.1 194.604 499.826 192.33 497.02 192.33Z" fill="white"/>
<path opacity="0.3" d="M489.68 202.64L485.93 203.24L488.69 205.85L488.1 209.6L491.44 207.78L494.82 209.5L494.13 205.77L496.8 203.08L493.04 202.59L491.31 199.21L489.68 202.64Z" fill="#FFBC47"/>
<path opacity="0.3" d="M476.4 202.64L472.65 203.24L475.41 205.85L474.82 209.6L478.16 207.78L481.54 209.5L480.85 205.77L483.52 203.08L479.76 202.59L478.03 199.21L476.4 202.64Z" fill="#FFBC47"/>
<path d="M463.12 202.64L459.38 203.24L462.13 205.85L461.54 209.6L464.88 207.78L468.26 209.5L467.56 205.77L470.24 203.08L466.48 202.59L464.75 199.21L463.12 202.64Z" fill="#2F36AD"/>
<path opacity="0.3" d="M448.86 205.85L448.26 209.59L451.47 207.86L451.6 207.79L454.98 209.5L454.29 205.77L456.96 203.09L453.21 202.59L451.47 199.21L449.84 202.64L446.09 203.25L448.86 205.85Z" fill="#FFBC47"/>
<path d="M436.56 202.64L432.81 203.24L435.57 205.85L434.98 209.6L438.32 207.78L441.7 209.5L441 205.77L443.68 203.08L439.92 202.59L438.19 199.21L436.56 202.64Z" fill="#FFBC47"/>
<path d="M432.81 216.54H481.97" stroke="#A4D6FB" stroke-width="0.85" stroke-miterlimit="10"/>
<path d="M432.81 221.71H491.37" stroke="#A4D6FB" stroke-width="0.85" stroke-miterlimit="10"/>
<path d="M432.81 226.89H491.37" stroke="#A4D6FB" stroke-width="0.85" stroke-miterlimit="10"/>
<path d="M432.81 232.07H491.37" stroke="#A4D6FB" stroke-width="0.85" stroke-miterlimit="10"/>
<path opacity="0.36" d="M425.582 215.266C426.652 208.323 421.891 201.827 414.947 200.757C408.004 199.687 401.509 204.448 400.439 211.391C399.369 218.335 404.13 224.83 411.073 225.9C418.016 226.97 424.512 222.209 425.582 215.266Z" fill="#6774FF"/>
<path d="M418.5 210.53C419.5 212.23 418.63 214.53 419.63 216.26C420.03 216.94 420.7 217.48 420.89 218.26C420.965 218.584 420.947 218.923 420.84 219.237C420.732 219.552 420.538 219.83 420.28 220.04C420.016 220.242 419.701 220.365 419.37 220.395C419.039 220.425 418.706 220.361 418.41 220.21C418.292 220.131 418.164 220.067 418.03 220.02C417.54 219.87 417.09 220.31 416.67 220.6C416.413 220.783 416.117 220.906 415.805 220.96C415.494 221.014 415.174 220.997 414.87 220.91C414.502 220.745 414.176 220.498 413.918 220.188C413.66 219.877 413.476 219.512 413.38 219.12C412.67 216.98 413.18 214.64 413.83 212.49C414.16 211.41 414.65 210.21 415.7 209.82" fill="#1530A4"/>
<path d="M414.34 218.1C414.34 218.1 414.34 220.05 414.6 220.18C415.007 220.35 415.429 220.481 415.86 220.57C415.86 220.57 414.48 222.12 413.42 222.07C412.837 221.972 412.284 221.741 411.805 221.394C411.327 221.047 410.935 220.594 410.66 220.07C410.66 219.68 410.45 217.51 410.45 217.51" fill="#6774FF"/>
<path d="M418.25 210.1C418.422 212.03 418.308 213.974 417.91 215.87C417.56 216.674 416.993 217.364 416.272 217.862C415.551 218.36 414.705 218.647 413.83 218.69C409.31 218.69 408.5 212.55 408.52 212.25C408.54 211.95 415.19 209.38 415.19 209.38L418.25 210.1Z" fill="#6774FF"/>
<path d="M411.83 220.22C411.83 220.22 413.89 222.51 414.6 220.22C416.38 220.72 418.3 221.08 419.06 222.69C421.5 229.93 413.5 230.53 411.21 230.53C408 230.53 402.71 228.76 405.37 222.76C406.2 220.94 407.43 219.79 411.83 220.22Z" fill="#FFBC47"/>
<path d="M406.17 221.33C406.067 221.279 405.967 221.223 405.87 221.16C405.332 220.914 404.902 220.48 404.66 219.94C404.271 218.978 404.271 217.902 404.66 216.94C405.038 216.433 405.452 215.956 405.9 215.51C406.388 214.78 406.642 213.918 406.63 213.04C406.625 212.167 406.685 211.294 406.81 210.43C406.981 208.997 407.634 207.665 408.66 206.65C410.46 205.14 414.07 204.25 416.04 205.93C416.39 206.23 416.46 206.48 416.95 206.52C417.528 206.549 418.091 206.717 418.59 207.01C419.24 207.38 420.02 207.9 419.93 208.75C419.754 209.477 419.316 210.115 418.7 210.54C418.486 210.645 418.249 210.696 418.01 210.69C417.24 210.69 416.61 210.21 415.86 210.29C415.488 210.335 415.148 210.521 414.91 210.81C414.64 211.15 414.68 211.61 414.36 211.92C413.86 212.43 413.07 212.38 412.47 212.71C412.365 212.753 412.275 212.826 412.21 212.92C412.165 213.021 412.145 213.13 412.15 213.24C412.15 213.56 412.15 213.88 412.15 214.19C411.85 214.06 411.82 213.64 411.58 213.42C411.45 213.33 411.293 213.287 411.135 213.298C410.977 213.309 410.827 213.373 410.71 213.48C410.489 213.702 410.345 213.99 410.3 214.3C410.258 214.688 410.316 215.081 410.47 215.44C410.66 216.08 411.22 216.66 411.66 216.24C411.99 216.71 411.66 217.51 411.66 218.05C411.66 218.59 411.66 219.32 412.06 219.6C412.46 219.88 413.01 219.66 413.06 220.33C413.03 220.632 412.894 220.913 412.676 221.123C412.458 221.334 412.172 221.46 411.87 221.48C411.258 221.506 410.648 221.4 410.08 221.17C409.509 220.947 408.881 220.915 408.29 221.08C407.975 221.27 407.639 221.424 407.29 221.54C406.904 221.612 406.504 221.537 406.17 221.33Z" fill="#1530A4"/>
<path d="M445.42 187.09C445.42 187.09 457.42 196.63 460.96 208.27C460.96 208.27 471.2 207.62 473.6 199.66C473.6 199.66 457.6 172.73 451.68 168.77C445.76 164.81 442.11 178.43 445.42 187.09Z" fill="#0FB3AF"/>
<path d="M461.67 209.53C461.67 209.53 453.67 234.25 452.14 235.63C450.61 237.01 450.21 238.53 446.34 238.95C446.34 238.95 447.59 241.85 450.21 241.57C451.029 241.426 451.802 241.087 452.463 240.583C453.124 240.078 453.655 239.422 454.01 238.67C454.01 238.67 466.4 223.98 469.84 217.05C474.59 207.5 474.4 201.65 474.4 201.65L461.67 209.53Z" fill="#FFBE9D"/>
<path d="M394.42 161.28C394.42 161.28 369.91 146.6 368.66 144.71C367.31 142.66 366.01 141.93 366.5 137.71C366.5 137.71 361.16 138.07 360.82 140.96C360.48 143.85 364.82 145.53 364.82 145.53C364.82 145.53 377.69 162.9 384.32 168.29C393.43 175.7 399.76 176.92 399.76 176.92L394.42 161.28Z" fill="#FFBE9D"/>
<path d="M460.96 209.39C460.96 208.92 461.35 209.45 461.09 209.05C460.95 208.84 460.71 208.7 460.65 208.46C460.51 207.98 461.13 207.65 461.65 207.55C464.98 206.87 467.37 205.21 469.93 202.97C470.93 202.09 470.83 201.52 471.59 200.42C472.07 199.73 472.85 199.06 473.59 199.42C475.18 200.14 473.98 201.6 474.67 202.59C474.837 202.766 474.988 202.957 475.12 203.16C475.173 203.355 475.177 203.561 475.131 203.758C475.086 203.955 474.993 204.138 474.86 204.29C474.218 205.311 473.394 206.206 472.43 206.93C471.394 207.594 470.307 208.176 469.18 208.67C467.95 209.31 460.87 211.92 460.96 209.39Z" fill="#049991"/>
<path d="M426.5 164.7C426.5 164.7 405.7 166.91 396.98 161.54L386.41 173.99C386.41 173.99 407.23 183.51 419.04 181.44L426.5 164.7Z" fill="#0FB3AF"/>
<path d="M396.5 160.07C396.81 160.56 396.07 160.28 396.61 160.51C396.89 160.63 397.23 160.61 397.47 160.8C397.95 161.2 397.53 161.97 397.1 162.42C394.17 165.42 392.88 168.81 391.83 172.88C391.41 174.48 391.92 174.99 391.91 176.64C391.91 177.64 391.49 177.46 390.46 177.64C388.33 178.01 388.62 177.14 387.22 176.64C386.926 176.576 386.638 176.485 386.36 176.37C386.171 176.207 386.026 176.001 385.935 175.769C385.845 175.538 385.812 175.287 385.84 175.04C385.784 173.543 386.004 172.048 386.49 170.63C387.09 169.247 387.792 167.91 388.59 166.63C389.4 165.03 394.82 157.43 396.5 160.07Z" fill="#049991"/>
<path d="M359.56 140.93C359.5 140.66 363.41 136.6 364.2 136.85C364.99 137.1 365.09 138.85 365.15 139.61C365.027 140.209 364.759 140.769 364.371 141.241C363.982 141.713 363.484 142.084 362.92 142.32C362.02 142.43 359.96 142.53 359.56 140.93Z" fill="#6774FF"/>
<path d="M368.86 122.06L361.36 124.8C361.118 124.889 360.857 124.919 360.601 124.886C360.346 124.852 360.101 124.758 359.89 124.61L353.38 119.99C353.137 119.819 352.85 119.719 352.554 119.701C352.257 119.684 351.961 119.749 351.699 119.89C351.437 120.032 351.22 120.243 351.072 120.501C350.924 120.759 350.85 121.053 350.86 121.35L351.16 129.35C351.165 129.607 351.109 129.862 350.996 130.094C350.883 130.325 350.716 130.526 350.51 130.68L344.11 135.45C343.87 135.626 343.685 135.867 343.575 136.143C343.465 136.42 343.435 136.721 343.488 137.014C343.542 137.307 343.676 137.579 343.876 137.799C344.076 138.019 344.334 138.179 344.62 138.26L352.3 140.45C352.547 140.518 352.774 140.644 352.962 140.818C353.15 140.992 353.293 141.209 353.38 141.45L355.93 149.02C356.024 149.302 356.195 149.552 356.425 149.742C356.654 149.931 356.932 150.053 357.226 150.092C357.521 150.132 357.821 150.088 358.092 149.966C358.363 149.843 358.595 149.647 358.76 149.4L363.22 142.77C363.363 142.555 363.556 142.378 363.782 142.254C364.009 142.131 364.262 142.064 364.52 142.06L372.52 141.97C372.818 141.97 373.109 141.885 373.361 141.726C373.613 141.568 373.815 141.341 373.944 141.072C374.072 140.803 374.122 140.504 374.088 140.208C374.054 139.912 373.936 139.632 373.75 139.4L368.82 133.11C368.661 132.906 368.554 132.667 368.509 132.412C368.464 132.158 368.481 131.896 368.56 131.65L370.94 124.03C371.031 123.745 371.04 123.44 370.965 123.15C370.891 122.86 370.736 122.597 370.519 122.392C370.301 122.186 370.03 122.046 369.737 121.987C369.444 121.928 369.139 121.954 368.86 122.06Z" fill="#FF9422"/>
<path d="M363.27 144.67C363.27 144.67 359.97 144.11 359.86 143.06C359.75 142.01 364.08 143.06 364.08 143.06L363.27 144.67Z" fill="#6774FF"/>
<path d="M183.5 165.8H96.0499C94.15 165.8 92.6099 167.34 92.6099 169.24V208.65C92.6099 210.55 94.15 212.09 96.0499 212.09H183.5C185.4 212.09 186.94 210.55 186.94 208.65V169.24C186.94 167.34 185.4 165.8 183.5 165.8Z" fill="#13BCB3"/>
<path d="M105.87 172.02L106.71 173.72L108.59 173.99L107.23 175.32L107.55 177.19L105.87 176.3L104.19 177.19L104.51 175.32L103.15 173.99L105.03 173.72L105.87 172.02Z" fill="white"/>
<path d="M114.07 172.02L114.91 173.72L116.78 173.99L115.43 175.32L115.75 177.19L114.07 176.3L112.39 177.19L112.71 175.32L111.35 173.99L113.23 173.72L114.07 172.02Z" fill="white"/>
<path d="M122.26 172.02L123.1 173.72L124.98 173.99L123.62 175.32L123.94 177.19L122.26 176.3L120.58 177.19L120.91 175.32L119.55 173.99L121.42 173.72L122.26 172.02Z" fill="white"/>
<path d="M130.46 172.02L131.3 173.72L133.18 173.99L131.82 175.32L132.14 177.19L130.46 176.3L128.78 177.19L129.1 175.32L127.74 173.99L129.62 173.72L130.46 172.02Z" fill="white"/>
<path d="M138.66 172.02L139.5 173.72L141.37 173.99L140.01 175.32L140.34 177.19L138.66 176.3L136.98 177.19L137.3 175.32L135.94 173.99L137.82 173.72L138.66 172.02Z" fill="white"/>
<g opacity="0.66">
<path opacity="0.66" d="M176.04 202.62H156.45" stroke="#0B9992" stroke-width="1.91" stroke-linecap="round" stroke-linejoin="round"/>
<path opacity="0.66" d="M117.32 195.64H104.06" stroke="#0B9992" stroke-width="1.91" stroke-linecap="round" stroke-linejoin="round"/>
<path opacity="0.66" d="M176.04 195.64H123.06" stroke="#0B9992" stroke-width="1.91" stroke-linecap="round" stroke-linejoin="round"/>
<path opacity="0.66" d="M176.04 188.66H104.06" stroke="#0B9992" stroke-width="1.91" stroke-linecap="round" stroke-linejoin="round"/>
<path opacity="0.66" d="M126.25 181.68H104.06" stroke="#0B9992" stroke-width="1.91" stroke-linecap="round" stroke-linejoin="round"/>
<path opacity="0.66" d="M176.04 181.68H131.78" stroke="#0B9992" stroke-width="1.91" stroke-linecap="round" stroke-linejoin="round"/>
<path opacity="0.66" d="M150.73 202.62H104.06" stroke="#0B9992" stroke-width="1.91" stroke-linecap="round" stroke-linejoin="round"/>
</g>
<path d="M168.58 212.09L177.17 222.53V212.09H168.58Z" fill="#13BCB3"/>
<g style="mix-blend-mode:multiply" opacity="0.2">
<path d="M261.17 295.85C257.67 294.85 237.42 299.06 225.1 301.85V320.18C233.941 317.331 242.589 313.914 250.99 309.95C247.41 318.03 239.94 346.7 239.94 346.7C242.037 347.459 244.195 348.038 246.39 348.43C246.169 350.148 245.801 351.845 245.29 353.5C245.13 353.81 245 354.08 244.9 354.33L244.35 353.95C243.575 355.016 242.87 356.132 242.24 357.29L243.01 357.47C244.6 357.816 246.223 357.991 247.85 357.99H256.67C254.05 356.99 251.5 355.99 251.5 355.99H251.43C250.859 353.678 250.949 351.253 251.69 348.99C254.675 349.166 257.668 348.889 260.57 348.17C260.57 348.17 262.36 334.12 264.15 321.57C265.94 309.02 266.25 297.35 261.17 295.85ZM328.37 240.09H225.1V292.58H232.6C232.602 292.775 232.639 292.968 232.71 293.15C233.02 293.66 237.97 294.5 240.17 292.58H328.37C329.716 292.577 331.005 292.041 331.956 291.089C332.906 290.136 333.44 288.846 333.44 287.5V245.17C333.44 243.824 332.906 242.534 331.956 241.581C331.005 240.629 329.716 240.093 328.37 240.09Z" fill="#020202"/>
</g>
<path d="M244.15 344.17C243.937 346.487 243.498 348.778 242.84 351.01C241.84 352.92 242.02 353.64 242.02 353.64L249.93 355.38C249.93 355.38 247.05 352.65 249.76 344.77C252.47 336.89 244.15 344.17 244.15 344.17Z" fill="#6774FF"/>
<path d="M249.05 353.53C249.05 353.53 258.05 357.04 259.58 357.32C261.11 357.6 262.23 358.24 261.94 358.98C261.65 359.72 255.24 361.39 251.88 361.12C248.52 360.85 246.2 358.78 245.49 358.78C244.78 358.78 241.11 359.83 239.23 358.7C237.35 357.57 241.9 351.46 241.9 351.46C241.9 351.46 246.87 355.16 249.05 353.53Z" fill="#FF911E"/>
<path d="M213.08 301.53C213.08 301.53 253.63 291.88 258.71 293.38C263.79 294.88 263.49 306.53 261.71 319.08C259.93 331.63 258.12 345.69 258.12 345.69C258.12 345.69 249.12 348.38 237.5 344.19C237.5 344.19 244.97 315.5 248.56 307.43C248.56 307.43 218.56 321.95 203.27 321.1C187.98 320.25 213.08 301.53 213.08 301.53Z" fill="#0FB3AF"/>
<path d="M171.67 343.72C169.369 343.401 167.104 342.855 164.91 342.09C163.04 341 162.32 341.15 162.32 341.15L160.2 348.97C160.2 348.97 163.07 346.22 170.81 349.31C178.55 352.4 171.67 343.72 171.67 343.72Z" fill="#6774FF"/>
<path d="M162.09 348.18C162.09 348.18 159.35 352.96 159 354.5C158.65 356.04 161.48 358.27 160.68 358.33C153.02 358.87 153.6 353.93 154.37 350.64C155.14 347.35 156.98 345.08 157.01 344.38C157.04 343.68 156.17 339.95 157.4 338.13C158.63 336.31 164.5 341.13 164.5 341.13C164.5 341.13 160.57 345.93 162.09 348.18Z" fill="#FF911E"/>
<path d="M191.19 302.62C191.19 302.62 186.36 322.53 199.24 326.78C202.82 327.96 220.63 307.2 221.15 304.3C221.67 301.4 217.42 294.14 217.42 294.14C217.42 294.14 194.72 293.7 191.19 302.62Z" fill="#0FB3AF"/>
<path d="M214.07 307.91C214.07 307.91 223.43 352.79 221.91 357.86C220.39 362.93 208.74 362.58 196.19 360.73C183.64 358.88 169.61 357.02 169.61 357.02C169.61 357.02 166.96 348.02 171.2 336.4C171.2 336.4 199.86 344.01 207.91 347.63C207.91 347.63 191.91 320.63 192.83 305.41C193.75 290.19 214.07 307.91 214.07 307.91Z" fill="#0FB3AF"/>
<path d="M190.93 224.28C190.93 224.28 191.71 214.78 195.52 211.78C201.25 207.26 210.45 208.17 213.79 212.78C217.13 217.39 220.69 237.18 204.39 239.78L195.93 278.78C195.93 278.78 173.93 276.54 172.26 264.78C170.59 253.02 180.59 247.52 180.59 247.52C180.59 247.52 175.78 237.62 180.83 230.64C185.88 223.66 190.93 224.28 190.93 224.28Z" fill="#212120"/>
<path d="M213.79 266.1C213.04 268.02 219.22 293.69 220.18 299.78C220.18 299.78 223.93 308.84 190.47 302.53C190.47 302.53 191.57 296.53 196.05 287.53C198.27 283.09 194.99 275.73 191.11 269.43C190.11 267.83 189.11 266.29 188.11 264.89C185.11 260.66 182.56 257.65 182.56 257.65C182.56 257.65 188.05 240.82 197.66 239.78C205.33 238.95 205.28 242.35 212.4 244.27L223.93 247.37C223.93 247.37 222.65 257.09 223.93 259.97H215.93C215.93 259.97 214.5 264.18 213.79 266.1Z" fill="#3C3C3B"/>
<path d="M211.76 216.17C211.76 216.17 215.28 225.72 213.04 230.17C210.8 234.62 205.35 234.01 205.35 234.01V244.27C204.921 244.625 204.387 244.829 203.83 244.85C202.14 244.95 197.66 242.02 197.66 242.02V218.35L211.76 216.17Z" fill="#FFBE9D"/>
<path d="M181.07 263.12C181.07 263.12 176.62 288.54 178.7 290.12C180.78 291.7 202.49 290.79 204.7 291.12C206.91 291.45 215.7 293.83 220.25 289.79C220.84 289.27 215.52 289.01 214.72 287.24C214.383 286.666 213.933 286.164 213.399 285.766C212.865 285.368 212.257 285.08 211.61 284.92L204.96 287.86C204.96 287.86 188.24 285.4 187.08 284.42C185.92 283.44 191.08 262.83 191.08 262.83L181.07 263.12Z" fill="#FFBE9D"/>
<path d="M195.86 254.32L195.07 269.47H191.07C190.07 267.87 189.07 266.33 188.07 264.93C190.08 262.66 195.86 254.32 195.86 254.32Z" fill="#232323"/>
<path d="M180.16 262.53C180.16 262.53 182.16 245.53 187.78 243.04C193.4 240.55 197.37 248.56 195.3 256.82C193.23 265.08 192.7 268.1 192.7 268.1C192.7 268.1 184.82 268.41 180.16 262.53Z" fill="#3C3C3B"/>
<path d="M212.21 214.77C212.21 214.77 209.91 225.72 204.63 228.6C199.35 231.48 203.33 238.6 198.29 243.87C195.6 246.71 190.29 241.74 190.29 241.74L195.5 216.17L212.21 214.77Z" fill="#212120"/>
<path d="M325.91 237.64H213.53C210.725 237.64 208.45 239.914 208.45 242.72V285.04C208.45 287.846 210.725 290.12 213.53 290.12H325.91C328.716 290.12 330.99 287.846 330.99 285.04V242.72C330.99 239.914 328.716 237.64 325.91 237.64Z" fill="white"/>
<path d="M317.01 249.25L312.79 249.92L315.89 252.86L315.23 257.08L318.98 255.04L322.79 256.97L322.01 252.77L325.02 249.74L320.79 249.19L318.84 245.39L317.01 249.25Z" fill="#FFBC47"/>
<path d="M302.06 249.25L297.84 249.92L300.95 252.86L300.29 257.08L304.04 255.04L307.85 256.97L307.06 252.77L310.08 249.74L305.84 249.19L303.89 245.39L302.06 249.25Z" fill="#FFBC47"/>
<path d="M287.11 249.25L282.9 249.92L286 252.86L285.34 257.08L289.09 255.04L292.9 256.97L292.12 252.77L295.13 249.74L290.89 249.19L288.95 245.39L287.11 249.25Z" fill="#FFBC47"/>
<path d="M271.06 252.86L270.39 257.07L274 255.12L274.14 255.04L277.95 256.97L277.18 252.77L280.18 249.75L275.95 249.19L274 245.39L272.16 249.25L267.95 249.93L271.06 252.86Z" fill="#FFBC47"/>
<path d="M257.22 249.25L253 249.92L256.11 252.86L255.44 257.08L259.2 255.04L263 256.97L262.22 252.77L265.24 249.74L261 249.19L259.05 245.39L257.22 249.25Z" fill="#FFBC47"/>
<g opacity="0.5">
<path opacity="0.5" d="M253 264.89H308.33" stroke="#2F36AD" stroke-miterlimit="10"/>
</g>
<g opacity="0.5">
<path opacity="0.5" d="M253 270.72H318.91" stroke="#2F36AD" stroke-miterlimit="10"/>
</g>
<g opacity="0.5">
<path opacity="0.5" d="M253 276.54H318.91" stroke="#2F36AD" stroke-miterlimit="10"/>
</g>
<g opacity="0.5">
<path opacity="0.5" d="M253 282.37H318.91" stroke="#2F36AD" stroke-miterlimit="10"/>
</g>
<path opacity="0.36" d="M242.227 274.481C248.085 268.623 248.085 259.126 242.227 253.268C236.369 247.41 226.872 247.41 221.014 253.268C215.156 259.126 215.156 268.623 221.014 274.481C226.872 280.339 236.369 280.339 242.227 274.481Z" fill="#6774FF"/>
<path d="M237.74 264.28C237.24 264.47 237.44 266.18 237.35 266.73C237.26 267.28 236.86 269.4 235.74 269.73C234.62 270.06 233.93 270.15 233.92 270.33C233.91 270.51 233.92 270.81 233.98 271.2C234.04 271.59 234.05 272.06 234.05 272.06L233.05 273.31L231.95 273.39L229.25 272.61C229.25 272.61 229.12 269.8 229.01 269.37C228.94 269.1 227.93 267.2 227.19 265.37C226.777 264.462 226.517 263.493 226.42 262.5C226.42 260.5 226.49 258.5 227.69 257.5C228.89 256.5 236.56 252.86 236.77 258.85C237.116 260.214 237.56 261.551 238.1 262.85C238.176 262.966 238.228 263.096 238.251 263.233C238.274 263.37 238.268 263.51 238.235 263.644C238.201 263.779 238.139 263.905 238.054 264.014C237.969 264.124 237.862 264.214 237.74 264.28Z" fill="#FFBE9D"/>
<path d="M233.98 271.19C233.98 271.62 234.05 272.05 234.05 272.05L233.77 273.45L231.95 273.38L229.25 272.6C229.25 272.6 229.12 269.79 229.01 269.36C228.94 269.09 227.93 267.19 227.19 265.36L227.29 264.2C227.29 264.2 229.5 263.95 229.58 263.96C229.89 264.409 230.154 264.888 230.37 265.39C230.37 265.47 229.93 266.78 229.93 266.78C229.93 266.78 229.86 268.58 229.93 269.97C229.948 270.328 230.079 270.672 230.303 270.952C230.528 271.232 230.834 271.434 231.18 271.53C231.596 271.652 232.026 271.719 232.46 271.73C233.014 271.735 233.553 271.544 233.98 271.19Z" fill="#FFBE9D"/>
<path d="M229.75 263.58C229.75 263.58 228.83 267.43 230.98 269.5C233.13 271.57 236.87 270.42 237.4 269.96C237.93 269.5 239.69 266.29 238.06 264.81C236.43 263.33 234.28 264.95 234.28 264.95C234.28 264.95 233 266.04 232.58 265.95C232.16 265.86 231.23 264.5 231.58 262.04C231.59 261.976 231.621 261.917 231.668 261.872C231.715 261.827 231.775 261.798 231.84 261.79C232.34 261.72 233.5 261.3 233.44 258.86C233.438 258.812 233.447 258.764 233.464 258.719C233.482 258.674 233.508 258.634 233.542 258.599C233.575 258.565 233.615 258.537 233.66 258.518C233.704 258.5 233.752 258.49 233.8 258.49C234.622 258.505 235.444 258.566 236.26 258.67C236.414 258.699 236.564 258.743 236.71 258.8C236.746 258.813 236.778 258.834 236.804 258.862C236.83 258.89 236.849 258.923 236.86 258.96L237.12 259.87L237.53 261.25C237.644 261.178 237.739 261.079 237.807 260.963C237.875 260.846 237.913 260.715 237.92 260.58C237.855 260.046 237.825 259.508 237.83 258.97C237.91 258.76 238.54 258.6 238.64 258.1C238.87 256.96 239.33 252.53 235.64 254.62C235.24 254.914 234.803 255.153 234.34 255.33C233.83 255.43 233.34 254.96 232.34 254.85C230.89 254.69 224.42 255.14 225.2 261.58C225.98 268.02 229.04 269.51 229.04 269.51C229.04 269.51 228.98 264.24 229.75 263.58Z" fill="#212120"/>
<path d="M229.75 263.58C229.75 263.58 229.65 262.48 228.81 262.63C227.67 262.84 227.19 265.8 229.56 265.85C229.524 265.088 229.588 264.325 229.75 263.58Z" fill="#FFBE9D"/>
<path d="M229.32 272.53C229.32 272.53 232.65 273.8 234.13 272.07C238.23 272.65 239.64 272.61 242.05 275.5C240.05 279.12 229.12 280.79 228.73 280.66C228.34 280.53 223.04 277.71 222.88 277.58C223.128 276.086 223.927 274.738 225.119 273.804C226.311 272.869 227.81 272.415 229.32 272.53Z" fill="#FFBC47"/>
<path d="M238.55 288.97C238.55 288.97 236.13 285.88 234.55 285.38C232.97 284.88 231.23 284.85 230.83 285.66C230.43 286.47 229.92 290.1 230.28 290.66C230.64 291.22 237.25 292.34 238.55 288.97Z" fill="#6574FE"/>
<path d="M430.34 60.7356C424.973 63.3442 418.79 63.7146 413.15 61.7655C407.51 59.8163 402.875 55.7071 400.264 50.3414C397.656 44.9746 397.285 38.7915 399.235 33.1517C401.184 27.5119 405.293 22.877 410.659 20.2663C413.316 18.9739 416.202 18.2175 419.151 18.0404C422.101 17.8634 425.056 18.269 427.849 19.2342C430.642 20.1994 433.217 21.7053 435.428 23.6658C437.639 25.6263 439.442 28.0031 440.734 30.6605C442.026 33.3177 442.782 36.2035 442.96 39.153C443.137 42.1026 442.731 45.0581 441.766 47.8509C440.801 50.6437 439.295 53.219 437.334 55.4297C435.374 57.6405 432.997 59.4434 430.34 60.7356Z" fill="#0FB3AF"/>
<path d="M415.063 45.4763C415.144 45.4743 415.222 45.454 415.294 45.4167C415.366 45.3794 415.428 45.326 415.478 45.2606C415.527 45.1952 415.561 45.1193 415.578 45.0384C415.595 44.9576 415.594 44.8739 415.576 44.7934C415.522 44.5214 415.376 43.8331 415.322 43.55C415.247 43.1558 415.155 43.0503 414.783 42.8727C413.817 42.4155 413.049 41.6069 412.626 40.6022C410.976 37.1049 412.038 32.7028 416.115 30.6655C419.722 28.8558 422.779 30.1103 424.203 33.1635C426.084 37.1549 425.96 41.3794 423.415 42.6562C423.098 42.836 422.744 42.9366 422.382 42.9499C422.02 42.9632 421.66 42.8888 421.332 42.7327C421.003 42.5766 420.714 42.3432 420.489 42.0513C420.263 41.7593 420.108 41.417 420.035 41.0519C419.614 39.0978 419.495 36.8163 418.902 35.5506C418.363 34.4403 417.328 33.7686 416.109 34.3793C414.67 35.1009 414.238 37.2104 415.209 39.2588C415.555 40.0164 416.053 40.6899 416.67 41.2351C416.67 41.2351 418.234 48.3851 418.503 49.6397C419.042 52.1322 420.779 54.6358 420.946 54.919C420.97 54.9504 421.002 54.9742 421.038 54.9877C421.075 55.0011 421.114 55.0036 421.152 54.9949C421.19 54.9862 421.224 54.9666 421.252 54.9384C421.279 54.9102 421.299 54.8746 421.307 54.8357C421.356 54.5914 422.04 51.5604 421.593 49.0957C421.469 48.3962 420.741 44.8156 420.741 44.8156C421.641 45.4985 423.388 45.6261 424.839 44.8989C429.152 42.7339 430.177 37.2104 427.61 31.7813C425.674 27.6789 420.488 25.5472 415.36 28.1174C408.971 31.315 407.978 37.6379 409.833 41.5682C410.955 43.9496 412.815 45.6483 415.063 45.4763Z" fill="white"/>
<path d="M546.023 238.209C542.584 236.897 539.437 234.921 536.763 232.392C534.088 229.863 531.939 226.832 530.437 223.471C528.935 220.111 528.11 216.488 528.01 212.808C527.91 209.129 528.536 205.466 529.853 202.029C531.164 198.59 533.14 195.443 535.667 192.768C538.195 190.094 541.225 187.943 544.584 186.441C547.944 184.938 551.566 184.112 555.245 184.011C558.924 183.909 562.586 184.534 566.023 185.849C569.463 187.16 572.609 189.137 575.284 191.666C577.958 194.194 580.108 197.226 581.61 200.586C583.112 203.946 583.936 207.57 584.036 211.249C584.136 214.929 583.51 218.592 582.193 222.029C580.883 225.468 578.907 228.614 576.38 231.289C573.852 233.964 570.822 236.114 567.462 237.617C564.103 239.12 560.481 239.945 556.802 240.047C553.123 240.148 549.46 239.524 546.023 238.209Z" fill="#0FB3AF"/>
<path fill-rule="evenodd" clip-rule="evenodd" d="M570.663 216.789C571.913 213.113 571.698 209.097 570.062 205.575C568.427 202.054 565.497 199.299 561.882 197.882C558.267 196.465 554.245 196.497 550.653 197.969C547.06 199.442 544.174 202.243 542.593 205.789C542.503 205.989 542.423 206.199 542.343 206.399C541.365 208.947 541.109 211.715 541.603 214.399L536.193 220.929L544.953 221.429C546.642 223.425 548.82 224.949 551.274 225.85C553.729 226.751 556.375 226.999 558.954 226.569C561.533 226.14 563.956 225.048 565.986 223.4C568.016 221.752 569.583 219.605 570.533 217.169C570.584 217.045 570.627 216.918 570.663 216.789ZM551.943 223.519C549.625 222.639 547.618 221.094 546.173 219.079L541.063 218.789L544.213 214.989C543.507 212.429 543.637 209.71 544.583 207.229C544.733 206.849 544.903 206.469 545.083 206.109C546.508 203.287 548.935 201.098 551.888 199.971C554.842 198.845 558.109 198.861 561.052 200.017C563.994 201.172 566.399 203.385 567.796 206.221C569.192 209.057 569.48 212.312 568.603 215.349C568.513 215.669 568.413 215.979 568.293 216.289C567.082 219.414 564.68 221.931 561.614 223.287C558.549 224.642 555.07 224.726 551.943 223.519Z" fill="white"/>
<path fill-rule="evenodd" clip-rule="evenodd" d="M561.823 217.049C561.533 216.749 560.163 215.269 559.883 215.049C559.603 214.829 559.403 214.669 559.043 214.929C558.683 215.189 557.713 215.699 557.433 215.849C557.153 215.999 556.933 215.949 556.653 215.649C555.787 214.857 555.067 213.919 554.523 212.879C554.038 211.901 553.701 210.856 553.523 209.779C553.463 209.359 553.703 209.239 553.943 209.139C554.183 209.039 554.443 208.869 554.693 208.739L554.883 208.619C555.014 208.518 555.138 208.408 555.253 208.289C555.338 208.215 555.402 208.119 555.439 208.012C555.476 207.905 555.484 207.79 555.463 207.679C555.463 207.479 555.393 205.519 555.363 204.729C555.333 203.939 555.003 203.939 554.803 203.859C554.603 203.779 554.383 203.659 554.153 203.579C553.976 203.515 553.788 203.489 553.601 203.501C553.413 203.513 553.23 203.563 553.063 203.649C552.534 203.871 552.057 204.199 551.661 204.614C551.265 205.029 550.96 205.521 550.763 206.059C550.618 206.455 550.527 206.869 550.493 207.289C550.436 208.251 550.548 209.216 550.823 210.139C550.913 210.429 551.763 214.849 554.743 217.569C557.723 220.289 557.913 219.829 558.573 220.009C559.097 220.111 559.637 220.098 560.155 219.97C560.673 219.843 561.157 219.603 561.573 219.269C561.998 218.847 562.287 218.307 562.403 217.719C562.293 217.529 562.103 217.349 561.823 217.049Z" fill="white"/>
<path d="M128.37 75.2625C122.702 75.2625 117.267 73.011 113.259 69.0033C109.251 64.9957 107 59.5601 107 53.8925C107 48.2248 109.251 42.7892 113.259 38.7816C117.267 34.7739 122.702 32.5225 128.37 32.5225C131.176 32.5225 133.955 33.0752 136.548 34.1492C139.141 35.2231 141.496 36.7972 143.481 38.7816C145.465 40.766 147.039 43.1218 148.113 45.7145C149.187 48.3073 149.74 51.0861 149.74 53.8925C149.74 56.6988 149.187 59.4777 148.113 62.0704C147.039 64.6631 145.465 67.0189 143.481 69.0033C141.496 70.9877 139.141 72.5618 136.548 73.6358C133.955 74.7097 131.176 75.2625 128.37 75.2625Z" fill="#0FB3AF"/>
<path d="M116.99 61.0221C119.043 62.3313 121.415 63.0522 123.849 63.1061C126.283 63.16 128.684 62.5449 130.793 61.3278C132.901 60.1106 134.635 58.3382 135.805 56.2036C136.976 54.069 137.538 51.6541 137.43 49.2221C138.334 48.5661 139.115 47.7573 139.74 46.8321C138.884 47.2077 137.978 47.457 137.05 47.5721C138.028 47.0005 138.767 46.095 139.13 45.0221C138.205 45.5725 137.189 45.9551 136.13 46.1521C135.429 45.3849 134.492 44.8731 133.468 44.6973C132.443 44.5215 131.389 44.6918 130.472 45.1812C129.555 45.6706 128.828 46.4514 128.403 47.4003C127.979 48.3493 127.883 49.4124 128.13 50.4221C126.272 50.3265 124.455 49.8418 122.796 48.9994C121.137 48.1571 119.674 46.9758 118.5 45.5321C117.906 46.5622 117.725 47.7797 117.994 48.9382C118.263 50.0967 118.962 51.1097 119.95 51.7721C119.207 51.7529 118.48 51.5539 117.83 51.1921C117.818 52.281 118.186 53.3401 118.87 54.1871C119.555 55.034 120.513 55.6157 121.58 55.8321C120.892 56.0195 120.17 56.0468 119.47 55.9121C119.77 56.8386 120.351 57.6486 121.132 58.2294C121.914 58.8101 122.857 59.1327 123.83 59.1521C121.882 60.6454 119.427 61.3167 116.99 61.0221Z" fill="white"/>
<path d="M63.8401 251.432C58.4269 252.718 52.7248 251.801 47.9868 248.884C43.2487 245.966 39.8625 241.286 38.5723 235.872C37.9326 233.188 37.828 230.404 38.2645 227.679C38.701 224.955 39.67 222.343 41.1162 219.993C42.5623 217.644 44.4573 215.602 46.6926 213.986C48.9279 212.369 51.4599 211.209 54.1437 210.572C56.8252 209.933 59.6064 209.828 62.3284 210.264C65.0504 210.7 67.6599 211.668 70.0078 213.113C72.3558 214.558 74.3963 216.451 76.0127 218.685C77.6291 220.919 78.7899 223.449 79.4287 226.132C80.0681 228.817 80.172 231.602 79.7344 234.328C79.2968 237.053 78.3263 239.665 76.8784 242.015C75.4305 244.365 73.5337 246.406 71.2965 248.022C69.0592 249.638 66.5255 250.796 63.8401 251.432Z" fill="#455A64"/>
<path d="M56.875 222.113C59.7648 221.423 60.1122 221.351 61.2868 221.13C61.9743 220.975 62.6831 220.94 63.3825 221.025C63.8944 221.087 64.3861 221.262 64.8218 221.539C65.2615 221.806 65.6379 222.166 65.9248 222.593C66.3151 223.181 66.6023 223.83 66.774 224.515C67.0994 225.647 67.1932 225.989 67.877 228.882C68.5608 231.776 68.6325 232.124 68.8531 233.3C69.0104 233.988 69.0459 234.698 68.9579 235.398C68.9016 235.912 68.7259 236.405 68.445 236.839C68.1817 237.28 67.8238 237.658 67.3972 237.944C66.8084 238.334 66.1576 238.622 65.4726 238.794C64.3696 239.12 64.0056 239.214 61.1159 239.898C58.2261 240.583 57.8787 240.66 56.7041 240.881C56.0151 241.038 55.3041 241.074 54.6029 240.986C54.0906 240.926 53.5985 240.75 53.1636 240.473C52.7283 240.197 52.3622 239.825 52.0937 239.385C51.6999 238.799 51.4107 238.148 51.2389 237.463C50.9191 236.331 50.8253 235.994 50.136 233.101C49.4466 230.208 49.3749 229.86 49.1544 228.684C49.0029 227.993 48.9675 227.282 49.0496 226.58C49.1174 226.069 49.2919 225.579 49.5618 225.14C49.8316 224.701 50.1908 224.325 50.6158 224.034C51.2018 223.641 51.851 223.352 52.5349 223.178C53.6379 222.858 54.0073 222.764 56.8971 222.074L56.875 222.113ZM56.4338 220.119C53.4945 220.821 53.125 220.92 51.9834 221.251C51.0902 221.473 50.2415 221.847 49.4742 222.356C48.8232 222.806 48.2728 223.388 47.858 224.063C47.4431 224.737 47.1728 225.491 47.0643 226.276C46.9484 227.197 46.9894 228.13 47.1856 229.037C47.4117 230.202 47.4834 230.578 48.1838 233.521C48.8841 236.464 48.9834 236.834 49.2867 237.971C49.5073 238.866 49.8804 239.716 50.3897 240.484C50.8384 241.16 51.4318 241.727 52.1268 242.146C52.7956 242.567 53.5486 242.837 54.3327 242.935C55.2521 243.052 56.1845 243.011 57.0901 242.814C58.2537 242.593 58.6287 242.516 61.5681 241.814C64.5075 241.113 64.877 241.014 66.013 240.71C66.9049 240.484 67.753 240.111 68.5222 239.606C69.1799 239.161 69.7332 238.579 70.1436 237.899C70.5622 237.228 70.833 236.475 70.9377 235.691C71.0518 234.77 71.0089 233.836 70.8108 232.93C70.5903 231.759 70.513 231.389 69.8127 228.446C69.1123 225.503 69.013 225.133 68.7097 223.99C68.4832 223.097 68.1105 222.248 67.6068 221.478C67.1629 220.821 66.5814 220.269 65.9027 219.86C65.2349 219.435 64.4816 219.164 63.6968 219.065C62.7774 218.948 61.845 218.989 60.9394 219.186C59.7703 219.413 59.4008 219.484 56.4614 220.186" fill="white"/>
<path d="M58.2252 225.149C57.1671 225.401 56.2075 225.961 55.4678 226.759C54.728 227.556 54.2413 228.555 54.0693 229.629C53.8972 230.703 54.0474 231.804 54.501 232.793C54.9546 233.782 55.6911 234.614 56.6175 235.184C57.5438 235.754 58.6184 236.037 59.7054 235.996C60.7923 235.956 61.8429 235.593 62.7241 234.956C63.6053 234.318 64.2777 233.433 64.6562 232.414C65.0347 231.394 65.1024 230.285 64.8507 229.226C64.5117 227.808 63.6236 226.581 62.3814 225.817C61.1392 225.052 59.6444 224.812 58.2252 225.149ZM60.3487 233.978C59.6613 234.141 58.9412 234.096 58.2793 233.849C57.6175 233.602 57.0437 233.164 56.6304 232.592C56.217 232.019 55.9827 231.336 55.9571 230.63C55.9315 229.924 56.1156 229.227 56.4863 228.625C56.857 228.024 57.3976 227.546 58.0397 227.252C58.6819 226.958 59.3969 226.861 60.0943 226.973C60.7917 227.085 61.4402 227.401 61.9579 227.881C62.4757 228.362 62.8394 228.985 63.0032 229.672C63.1121 230.129 63.1298 230.603 63.0553 231.067C62.9808 231.531 62.8155 231.976 62.5689 232.376C62.3224 232.776 61.9994 233.123 61.6184 233.398C61.2374 233.673 60.806 233.87 60.3487 233.978Z" fill="white"/>
<path d="M168.581 265.302C168.69 265.768 168.659 266.255 168.491 266.703C168.324 267.151 168.028 267.539 167.64 267.819C167.252 268.098 166.79 268.257 166.312 268.274C165.834 268.291 165.362 268.167 164.955 267.916C164.548 267.665 164.224 267.299 164.025 266.864C163.826 266.43 163.76 265.946 163.835 265.474C163.911 265.001 164.124 264.562 164.449 264.211C164.774 263.861 165.196 263.614 165.661 263.502C165.971 263.427 166.293 263.413 166.608 263.463C166.923 263.513 167.225 263.625 167.497 263.792C167.768 263.96 168.004 264.179 168.19 264.439C168.376 264.698 168.509 264.991 168.581 265.302Z" fill="white"/>
<path d="M546.17 344.32C543.916 344.321 541.683 343.878 539.6 343.017C537.517 342.155 535.624 340.891 534.03 339.298C532.435 337.704 531.17 335.812 530.307 333.729C529.444 331.647 529 329.414 529 327.16C529 324.906 529.444 322.673 530.307 320.591C531.17 318.508 532.435 316.616 534.03 315.023C535.624 313.429 537.517 312.165 539.6 311.303C541.683 310.442 543.916 309.999 546.17 310C548.426 309.996 550.661 310.437 552.746 311.298C554.831 312.158 556.727 313.422 558.323 315.015C559.92 316.609 561.187 318.502 562.051 320.586C562.915 322.67 563.36 324.904 563.36 327.16C563.36 329.416 562.915 331.65 562.051 333.734C561.187 335.818 559.92 337.711 558.323 339.305C556.727 340.898 554.831 342.162 552.746 343.022C550.661 343.883 548.426 344.324 546.17 344.32Z" fill="#455A64"/>
<path d="M543.549 337.53H547.729V327.1H550.639L550.959 323.6H547.729V321.6C547.729 320.78 547.899 320.45 548.729 320.45H550.999V316.81H548.099C544.989 316.81 543.589 318.18 543.589 320.81V323.61H541.359V327.1H543.529L543.549 337.53Z" fill="white"/>
</g>
<defs>
<clipPath id="clip0_1_947">
<rect width="606" height="365.74" fill="white"/>
</clipPath>
</defs>
</svg>
