<svg width="29" height="28" viewBox="0 0 29 28" fill="none" xmlns="http://www.w3.org/2000/svg">
<path d="M0.421398 9.09909C0.654154 9.09909 0.842797 8.91045 0.842797 8.67769V6.40521H22.0711V13.0235C22.0711 13.2562 22.2597 13.4448 22.4925 13.4448C22.7252 13.4448 22.9139 13.2562 22.9139 13.0235V0.983281C22.9139 0.441122 22.4728 0 21.9306 0H0.983281C0.441066 5.61939e-05 0 0.441122 0 0.983281V8.67769C0 8.91045 0.188643 9.09909 0.421398 9.09909ZM0.983281 0.842797H21.9306C22.0081 0.842797 22.0711 0.90579 22.0711 0.983281V5.56247H0.842797V0.983281C0.842797 0.905846 0.90579 0.842797 0.983281 0.842797Z" fill="#0FB3AF"/>
<path d="M3.11469 4.00868C3.56852 4.00868 3.93642 3.64078 3.93642 3.18696C3.93642 2.73313 3.56852 2.36523 3.11469 2.36523C2.66087 2.36523 2.29297 2.73313 2.29297 3.18696C2.29297 3.64078 2.66087 4.00868 3.11469 4.00868Z" fill="#0FB3AF"/>
<path d="M5.61372 4.00868C6.06754 4.00868 6.43544 3.64078 6.43544 3.18696C6.43544 2.73313 6.06754 2.36523 5.61372 2.36523C5.15989 2.36523 4.79199 2.73313 4.79199 3.18696C4.79199 3.64078 5.15989 4.00868 5.61372 4.00868Z" fill="#0FB3AF"/>
<path d="M8.11274 4.00868C8.56657 4.00868 8.93446 3.64078 8.93446 3.18696C8.93446 2.73313 8.56657 2.36523 8.11274 2.36523C7.65891 2.36523 7.29102 2.73313 7.29102 3.18696C7.29102 3.64078 7.65891 4.00868 8.11274 4.00868Z" fill="#0FB3AF"/>
<path d="M16.2339 14.3081C16.2339 13.8816 16.0742 13.5709 15.9223 13.3721C16.0705 13.0775 16.1202 12.7441 16.0625 12.4115C15.9905 11.9969 15.7599 11.6372 15.4131 11.3984C15.162 11.2255 14.8685 11.1342 14.5638 11.1342C14.5624 11.1342 14.5608 11.1342 14.5593 11.1342C14.0022 11.1359 12.8991 11.139 12.3974 11.139H12.2089C12.2446 10.8809 12.2776 10.6337 12.3009 10.378C12.3613 9.71578 12.3626 8.94087 11.9147 8.21439C11.4135 7.40149 10.5954 7.10029 9.72627 7.40869C9.30397 7.55844 9.27498 7.89341 9.29521 8.0797C9.34617 8.54982 9.40321 9.10479 9.43957 9.6565C9.44631 9.75911 9.42721 9.84795 9.40535 9.89049C9.12011 10.445 8.13553 12.3154 7.93453 12.7014C7.22952 12.7016 6.94422 12.7006 6.59211 12.6955C6.34958 12.694 6.12047 12.7849 5.94768 12.9556C5.77482 13.1264 5.67969 13.3541 5.67969 13.5969V17.6796C5.67969 17.9223 5.77482 18.15 5.94768 18.3208C6.11778 18.4888 6.34216 18.5809 6.58154 18.5809C6.58154 18.5809 12.2932 18.583 13.6781 18.5692C14.0726 18.5653 14.4505 18.3913 14.7149 18.0921C14.9818 17.79 15.1091 17.3911 15.0642 16.9978C15.0615 16.9738 15.0581 16.9503 15.0542 16.9274C15.6546 16.5569 15.8054 15.9227 15.7316 15.3627C15.9533 15.174 16.2339 14.8316 16.2339 14.3081ZM15.1056 14.7801C14.9152 14.9015 14.822 15.1309 14.8737 15.351C14.9477 15.6654 14.9411 16.0805 14.4893 16.2728C14.2458 16.3765 14.1141 16.6472 14.1831 16.9023C14.2601 17.1264 14.2464 17.3516 14.0834 17.534C13.9751 17.6565 13.8283 17.7249 13.6698 17.7265C12.2696 17.7404 6.58126 17.7381 6.58098 17.7381C6.56126 17.7381 6.54783 17.7289 6.54002 17.7212C6.53204 17.7133 6.52254 17.6997 6.52254 17.6796V13.5969C6.52254 13.5767 6.53204 13.5631 6.54002 13.5552C6.54794 13.5474 6.56143 13.5382 6.58014 13.5382H6.58087C6.96715 13.5439 7.27262 13.5446 8.12221 13.5441C8.32243 13.5441 8.50399 13.4337 8.59598 13.2563C8.8234 12.818 9.86776 10.834 10.1548 10.276C10.2861 10.0209 10.29 9.74366 10.2806 9.60109C10.2476 9.10074 10.1985 8.60146 10.1517 8.16084C10.6831 8.03907 11.0115 8.3551 11.1974 8.65664C11.5154 9.17239 11.5094 9.77754 11.4617 10.3014C11.4374 10.5662 11.4008 10.8308 11.362 11.1108C11.3247 11.3432 11.2717 11.61 11.4529 11.7994C11.5544 11.9153 11.7008 11.9817 11.8546 11.9817L14.5618 11.9769C14.8897 11.9716 15.1815 12.2357 15.2322 12.5556C15.2649 12.744 15.2225 12.9325 15.1129 13.087C14.9434 13.3109 14.9767 13.6282 15.193 13.816C15.2845 13.906 15.3912 14.0635 15.3912 14.3081C15.3911 14.5605 15.2123 14.7122 15.1056 14.7801Z" fill="#0FB3AF"/>
<path d="M25.7589 21.9755C25.0379 21.9755 24.3755 22.2303 23.8564 22.6544L22.9138 21.7826V18.318C22.9138 18.0853 22.7252 17.8966 22.4924 17.8966C22.2597 17.8966 22.071 18.0853 22.071 18.318V21.0032L20.8888 19.9098C21.1596 19.5004 21.3178 19.0104 21.3178 18.4838C21.3178 18.046 21.2083 17.6333 21.0157 17.2713L24.3689 14.7199C24.7406 15.0458 25.2269 15.2441 25.7589 15.2441C26.9231 15.2441 27.8702 14.2969 27.8702 13.1328C27.8702 11.9687 26.9231 11.0215 25.7589 11.0215C24.5947 11.0215 23.6476 11.9687 23.6476 13.1328C23.6476 13.4613 23.7231 13.7725 23.8575 14.0501L20.5046 16.6013C20.0401 16.1623 19.4143 15.8923 18.7262 15.8923C17.2972 15.8923 16.1347 17.0549 16.1347 18.4839C16.1347 19.9129 17.2972 21.0755 18.7262 21.0755C19.3252 21.0755 19.8768 20.8707 20.3161 20.5283L22.0711 22.1513V22.2925C22.0711 22.3699 22.0081 22.433 21.9306 22.433H0.983281C0.90579 22.433 0.842797 22.37 0.842797 22.2925V10.8953C0.842797 10.6625 0.654154 10.4739 0.421398 10.4739C0.188643 10.4739 0 10.6625 0 10.8953V22.2925C0 22.8346 0.441066 23.2758 0.983281 23.2758H21.9306C22.2873 23.2758 22.5993 23.0842 22.7717 22.7992L23.2842 23.2733C22.9457 23.7603 22.7466 24.3512 22.7466 24.988C22.7466 26.649 24.0979 28.0004 25.759 28.0004C27.4201 28.0004 28.7713 26.6489 28.7713 24.9879C28.7713 23.3268 27.42 21.9755 25.7589 21.9755ZM25.7589 11.8643C26.4583 11.8643 27.0274 12.4333 27.0274 13.1328C27.0274 13.8322 26.4583 14.4012 25.7589 14.4012C25.0595 14.4012 24.4904 13.8322 24.4904 13.1328C24.4904 12.4333 25.0595 11.8643 25.7589 11.8643ZM16.9774 18.4838C16.9774 17.5195 17.7619 16.735 18.7262 16.735C19.6906 16.735 20.4751 17.5195 20.4751 18.4838C20.4751 19.4481 19.6906 20.2326 18.7262 20.2326C17.7619 20.2326 16.9774 19.4482 16.9774 18.4838ZM25.7589 27.1575C24.5626 27.1575 23.5893 26.1842 23.5893 24.9879C23.5893 23.7916 24.5626 22.8183 25.7589 22.8183C26.9552 22.8183 27.9285 23.7916 27.9285 24.9879C27.9285 26.1842 26.9552 27.1575 25.7589 27.1575Z" fill="#0FB3AF"/>
</svg>
