<svg width="21" height="28" viewBox="0 0 21 28" fill="none" xmlns="http://www.w3.org/2000/svg">
<path d="M7.12884 13.2247C6.62902 12.7248 6.26498 12.1334 6.04689 11.4666C5.97646 11.2513 5.74497 11.134 5.52957 11.2044C5.31427 11.2748 5.19686 11.5064 5.2673 11.7217C5.52585 12.512 5.95704 13.2129 6.5489 13.8048C7.57655 14.8321 8.92646 15.3458 10.2764 15.3458C11.6263 15.3458 12.9762 14.8321 14.004 13.8046C16.0588 11.7493 16.0588 8.40501 14.0039 6.34955C11.9486 4.29474 8.60431 4.2948 6.5489 6.3496C5.6589 7.23955 5.11636 8.4201 5.02121 9.67371C5.0041 9.89956 5.17329 10.0965 5.39914 10.1137C5.62488 10.1307 5.82197 9.96163 5.83914 9.73578C5.91942 8.67762 6.37746 7.68103 7.12884 6.92971C8.86439 5.19459 11.6883 5.19459 13.4238 6.92965C15.1589 8.6652 15.1589 11.4892 13.4239 13.2247C11.6884 14.9597 8.86439 14.9598 7.12884 13.2247Z" fill="#0FB3AF"/>
<path d="M10.2766 0C4.71995 0 0.199219 4.52068 0.199219 10.0774C0.199219 12.352 0.846639 14.833 2.12349 17.4516C2.22274 17.6552 2.46828 17.7398 2.67187 17.6405C2.87547 17.5412 2.96007 17.2957 2.86076 17.0921C1.63903 14.5865 1.0195 12.2264 1.0195 10.0774C1.0195 4.97298 5.17226 0.820281 10.2766 0.820281C15.381 0.820281 19.5338 4.97298 19.5338 10.0774C19.5338 12.087 18.9866 14.1114 18.185 15.9994L17.4629 15.2774C17.6453 14.9163 17.5865 14.4635 17.2852 14.1622L16.4991 13.3761C17.2909 11.8906 17.5278 10.1555 17.1271 8.45644C17.0751 8.23595 16.8544 8.09946 16.6338 8.15141C16.4133 8.20341 16.2767 8.42429 16.3287 8.64473C16.8276 10.7603 16.2091 12.9396 14.6743 14.4745C13.4617 15.687 11.8695 16.2932 10.2767 16.2931C8.68426 16.2929 7.09133 15.6867 5.87907 14.4745C3.45486 12.0497 3.45486 8.10443 5.87907 5.67974C8.30393 3.25488 12.2495 3.25493 14.6743 5.67974C15.0633 6.06871 15.3986 6.50598 15.6708 6.97939C15.7837 7.17577 16.0345 7.24341 16.2308 7.13049C16.4272 7.01762 16.4948 6.76688 16.3819 6.57051C16.0737 6.03459 15.6944 5.53974 15.2544 5.09974C12.5097 2.35508 8.04379 2.35508 5.29907 5.09974C2.55518 7.84424 2.55518 12.3099 5.29907 15.0545C6.6714 16.4268 8.47405 17.113 10.2767 17.113C11.4113 17.113 12.5458 16.8409 13.573 16.2973L14.3616 17.0859C14.5492 17.2735 14.7957 17.3673 15.0422 17.3673C15.1915 17.3673 15.3405 17.3323 15.4767 17.2635L16.8629 18.6497C16.1926 19.8244 15.4702 20.9008 14.7888 21.8301C12.8935 24.4153 10.9763 26.3465 10.2768 27.0231C9.32403 26.1009 6.11115 22.8484 3.74699 18.7547C3.63368 18.5586 3.38289 18.4914 3.18668 18.6047C2.99053 18.7179 2.92337 18.9688 3.03663 19.165C5.89093 24.1073 9.95914 27.8541 9.99988 27.8914C10.0782 27.963 10.1774 27.9988 10.2766 27.9988C10.3758 27.9988 10.475 27.963 10.5534 27.8914C10.5779 27.869 13.028 25.6162 15.4409 22.3278C16.8616 20.3916 17.9946 18.4773 18.8084 16.6381C19.834 14.3204 20.354 12.113 20.354 10.0773C20.3541 4.52068 15.8333 0 10.2766 0V0ZM15.0422 16.5475C15.0202 16.5475 14.9778 16.5421 14.9416 16.5059L14.294 15.8583C14.6318 15.6234 14.9534 15.3554 15.2543 15.0545C15.5537 14.7552 15.8215 14.4337 16.0581 14.0951L16.7052 14.7423C16.7415 14.7785 16.7469 14.8208 16.7469 14.8428C16.7469 14.8649 16.7415 14.9072 16.7052 14.9434L15.1428 16.5059C15.1065 16.5422 15.0641 16.5475 15.0422 16.5475ZM16.0909 16.7178L16.9171 15.8916L17.8263 16.8008C17.6504 17.1747 17.4658 17.542 17.2748 17.9017L16.0909 16.7178Z" fill="#0FB3AF"/>
</svg>
