<svg width="21" height="16" viewBox="0 0 21 16" fill="none" xmlns="http://www.w3.org/2000/svg">
<path d="M19.1101 0H1.84164C1.55818 0 1.29281 0.0696877 1.05273 0.184551L10.4349 9.56676L12.5378 7.54582C12.5378 7.54582 12.538 7.54561 12.538 7.54553C12.538 7.54545 12.5382 7.54537 12.5382 7.54537L19.8993 0.184715C19.6591 0.0697694 19.3936 0 19.1101 0Z" fill="#3C3C3B"/>
<path d="M20.767 1.05273L13.8398 7.97951L20.7667 14.9064C20.8816 14.6663 20.9513 14.401 20.9513 14.1175V1.84135C20.9513 1.55806 20.8818 1.29273 20.767 1.05273Z" fill="#3C3C3B"/>
<path d="M0.184551 1.05273C0.0696876 1.29281 0 1.55818 0 1.84164V14.1178C0 14.4011 0.0696057 14.6665 0.184388 14.9065L7.11153 7.97971L0.184551 1.05273Z" fill="#3C3C3B"/>
<path d="M12.9719 8.84774L10.8687 10.8689C10.7488 10.9888 10.5918 11.0488 10.4348 11.0488C10.2778 11.0488 10.1207 10.9888 10.0008 10.8689L7.97951 8.84766L1.05225 15.7745C1.29237 15.8894 1.5579 15.9592 1.84144 15.9592H19.1099C19.3933 15.9592 19.6587 15.8895 19.8988 15.7746L12.9719 8.84774Z" fill="#3C3C3B"/>
</svg>
