<svg width="64" height="64" viewBox="0 0 64 64" fill="none" xmlns="http://www.w3.org/2000/svg">
<g filter="url(#filter0_d_1_189)">
<circle cx="32" cy="27" r="20" fill="#3C3C3B"/>
<circle cx="32" cy="27" r="19.5" stroke="#3C3C3B"/>
</g>
<path d="M40.7435 27.6476L35.1392 33.2519C34.7973 33.5938 34.2428 33.5938 33.9008 33.2519C33.5588 32.9099 33.5588 32.3555 33.9008 32.0135L38.0102 27.9041H23.0431C22.5596 27.9041 22.1675 27.512 22.1675 27.0284C22.1675 26.5449 22.5596 26.1528 23.0431 26.1528H38.0102L33.901 22.0434C33.559 21.7014 33.559 21.147 33.901 20.805C34.0719 20.6342 34.2961 20.5485 34.5202 20.5485C34.7443 20.5485 34.9684 20.6342 35.1394 20.805L40.7435 26.4092C41.0854 26.7512 41.0854 27.3056 40.7435 27.6476Z" fill="white"/>
<defs>
<filter id="filter0_d_1_189" x="0" y="0" width="64" height="64" filterUnits="userSpaceOnUse" color-interpolation-filters="sRGB">
<feFlood flood-opacity="0" result="BackgroundImageFix"/>
<feColorMatrix in="SourceAlpha" type="matrix" values="0 0 0 0 0 0 0 0 0 0 0 0 0 0 0 0 0 0 127 0" result="hardAlpha"/>
<feMorphology radius="3" operator="erode" in="SourceAlpha" result="effect1_dropShadow_1_189"/>
<feOffset dy="5"/>
<feGaussianBlur stdDeviation="7.5"/>
<feColorMatrix type="matrix" values="0 0 0 0 0.235294 0 0 0 0 0.235294 0 0 0 0 0.231373 0 0 0 0.18 0"/>
<feBlend mode="normal" in2="BackgroundImageFix" result="effect1_dropShadow_1_189"/>
<feBlend mode="normal" in="SourceGraphic" in2="effect1_dropShadow_1_189" result="shape"/>
</filter>
</defs>
</svg>
