<svg width="19" height="13" viewBox="0 0 19 13" fill="none" xmlns="http://www.w3.org/2000/svg">
<path d="M18.5765 7.13933L12.9722 12.7436C12.6303 13.0855 12.0758 13.0855 11.7338 12.7436C11.3918 12.4016 11.3918 11.8472 11.7338 11.5052L15.8432 7.39579H0.876148C0.392574 7.39579 0.000488281 7.00371 0.000488281 6.52013C0.000488281 6.03663 0.392574 5.64447 0.876148 5.64447H15.8432L11.734 1.53511C11.392 1.19311 11.392 0.638709 11.734 0.296712C11.9049 0.125853 12.1291 0.0402489 12.3532 0.0402489C12.5773 0.0402489 12.8014 0.125853 12.9724 0.296712L18.5765 5.90094C18.9185 6.24293 18.9185 6.79733 18.5765 7.13933Z" fill="#3C3C3B"/>
</svg>
