<svg width="19" height="13" viewBox="0 0 19 13" fill="none" xmlns="http://www.w3.org/2000/svg">
<g opacity="0.4">
<path d="M0.256548 7.13933L5.86077 12.7436C6.2027 13.0855 6.75724 13.0855 7.09917 12.7436C7.44116 12.4016 7.44116 11.8472 7.09917 11.5052L2.9898 7.39579H17.9569C18.4404 7.39579 18.8325 7.00371 18.8325 6.52013C18.8325 6.03663 18.4404 5.64447 17.9569 5.64447H2.9898L7.09903 1.53511C7.44102 1.19311 7.44102 0.638709 7.09903 0.296712C6.9281 0.125853 6.70393 0.0402489 6.47983 0.0402489C6.25573 0.0402489 6.03163 0.125853 5.86063 0.296712L0.256548 5.90094C-0.0854492 6.24293 -0.0854492 6.79733 0.256548 7.13933Z" fill="#3C3C3B"/>
</g>
</svg>
