<svg width="16" height="15" viewBox="0 0 16 15" fill="none" xmlns="http://www.w3.org/2000/svg">
<path d="M7.31084 0.338938C7.41354 0.131508 7.62504 0 7.85619 0C8.08735 0 8.29919 0.131508 8.40155 0.338938L10.3576 4.30282C10.446 4.48212 10.6175 4.60651 10.8158 4.63532L15.1901 5.27083C15.4196 5.30404 15.6094 5.4647 15.6809 5.68467C15.7524 5.90464 15.6928 6.14664 15.527 6.30798L12.362 9.39367C12.2187 9.53331 12.1533 9.73464 12.1868 9.9319L12.9338 14.289C12.9725 14.5174 12.8793 14.7479 12.6915 14.8841C12.5041 15.0197 12.2563 15.0377 12.0509 14.9306L8.13819 12.8732C7.96127 12.78 7.74943 12.78 7.57216 12.8732L3.65946 14.9302C3.45474 15.0377 3.2063 15.02 3.01887 14.8841C2.83144 14.7482 2.73789 14.5174 2.77687 14.289L3.52389 9.9319C3.55778 9.73464 3.49203 9.53331 3.34866 9.39367L0.183651 6.30798C0.0179102 6.14631 -0.0417429 5.90464 0.029773 5.68467C0.101289 5.4647 0.291433 5.30404 0.520894 5.27083L4.89591 4.63532C5.09385 4.60651 5.26535 4.48212 5.35381 4.30248L7.31084 0.338938Z" fill="#0FB3AF"/>
</svg>
