<svg width="70" height="70" viewBox="0 0 70 70" fill="none" xmlns="http://www.w3.org/2000/svg">
<path d="M49.3278 28.6278C41.4539 28.6278 34.6109 33.0388 31.1329 39.524L23.9922 35.7689C25.3299 32.3587 25.1021 28.4545 23.26 25.175L34.3332 17.1173C40.6124 22.3997 50.2539 17.8987 50.2539 9.69599C50.2539 4.34952 45.9059 0 40.5616 0C33.3865 0 28.7624 7.51625 31.8199 13.8814L20.6927 21.9787C12.7243 14.8525 0 20.55 0 31.2434C0 38.0961 5.57276 43.6711 12.4226 43.6711C16.2085 43.6711 19.6035 41.9675 21.884 39.2871L29.5624 43.3255C28.9985 45.2056 28.6942 47.198 28.6942 49.2616C28.6942 53.2718 29.8394 57.0139 31.8189 60.1812C32.0544 58.8824 32.4351 57.6142 32.9598 56.388C33.8719 54.2569 35.1744 52.3484 36.8316 50.7153L37.4805 50.0758C37.1176 49.196 36.8555 48.2754 36.7038 47.3263C36.3301 44.9872 36.6284 42.5801 37.5666 40.3652C38.5021 38.1568 40.0175 36.2752 41.9485 34.9239C44.0347 33.4641 46.5205 32.6925 49.1371 32.6925C56.0786 32.6925 61.7258 38.3445 61.7258 45.2918C61.7258 46.895 61.4315 48.4469 60.8687 49.8885L61.5291 50.5197C63.2457 52.1601 64.5967 54.091 65.5446 56.2583C66.1148 57.5623 66.5208 58.9144 66.7621 60.3012C68.788 57.1088 69.9618 53.3222 69.9618 49.2614C69.9618 37.8659 60.7237 28.6278 49.3278 28.6278Z" fill="#3C3C3B"/>
<path d="M45.599 53.02C51.1938 55.5995 57.6303 51.4903 57.6303 45.292C57.6303 40.6029 53.8202 36.7881 49.1369 36.7881C41.6204 36.7881 37.8564 45.8516 43.0428 51.2068C43.0134 51.2218 44.1398 52.3478 45.599 53.02Z" fill="#0FB3AF"/>
<path d="M62.9847 63.4451C62.9847 63.9206 62.9601 64.3906 62.9122 64.8539C59.2843 68.0568 54.5196 69.9999 49.3011 69.9999C44.0813 69.9999 39.3165 68.0568 35.6886 64.8525C35.6408 64.3893 35.6162 63.9206 35.6162 63.4451C35.6162 59.6341 37.1753 56.1865 39.6896 53.7051C41.9975 56.3027 45.363 57.9397 49.1125 57.9397C52.955 57.9397 56.3957 56.2207 58.7077 53.5083C61.3422 56.0021 62.9847 59.5316 62.9847 63.4451Z" fill="#0FB3AF"/>
</svg>
