<svg width="70" height="70" viewBox="0 0 70 70" fill="none" xmlns="http://www.w3.org/2000/svg">
<path d="M22.7777 12.37C27.6609 11.9361 31.6302 11.4846 34.9659 10.9403C45.0966 9.28697 49.1906 6.47385 53.8557 0.738892C54.6342 -0.203413 56.0685 -0.244526 56.8879 0.616101L69.3228 13.1805C70.0206 13.8783 70.1384 14.9855 69.5739 15.795C68.0098 18.0387 66.2765 20.1077 64.3955 21.9709C60.6737 26.1463 56.8013 29.1214 53.1545 31.1382C50.8535 32.4107 48.2576 33.0537 45.6282 33.0537H33.4635C29.7449 33.0537 26.6048 30.577 25.6027 27.1833C25.2796 26.0891 26.0216 24.9344 27.1602 24.8628C27.2044 24.8601 27.2492 24.8586 27.2944 24.8586H45.1626C46.277 24.8586 47.225 23.9882 47.2577 22.8744C47.2922 21.6966 46.3787 20.761 45.2098 20.761H24.722C24.1072 20.761 23.5338 21.0478 23.1239 21.4986C22.5994 22.0412 20.1022 25.7466 15.3419 29.7527C12.2573 32.3487 4.84984 37.1513 2.04888 37.1513C0.286921 37.1513 -0.655384 35.0615 0.532775 33.7504L19.1084 13.2626C19.4364 12.8527 19.9691 12.6068 20.5015 12.5659C21.2817 12.5007 22.0401 12.4355 22.7777 12.37Z" fill="#3C3C3B"/>
<path d="M47.1541 57.6299C42.2709 58.0639 38.3016 58.5153 34.9659 59.0596C24.8352 60.7129 20.7411 63.5261 16.0761 69.261C15.2975 70.2033 13.8632 70.2444 13.0439 69.3838L0.608955 56.8194C-0.0888613 56.1216 -0.206598 55.0145 0.357911 54.2049C1.92195 51.9612 3.65523 49.8922 5.53629 48.029C9.25811 43.8536 13.1305 40.8785 16.7773 38.8617C19.0782 37.5893 21.6742 36.9462 24.3036 36.9462H36.4684C40.187 36.9462 43.3271 39.4229 44.3292 42.8167C44.6523 43.9109 43.9103 45.0655 42.7717 45.1371C42.7275 45.1398 42.6827 45.1413 42.6375 45.1413H24.7693C23.6549 45.1413 22.7069 46.0117 22.6742 47.1255C22.6397 48.3033 23.5532 49.2389 24.7221 49.2389H45.2099C45.8247 49.2389 46.3981 48.9521 46.808 48.5014C47.3325 47.9587 49.8297 44.2533 54.59 40.2472C57.6746 37.6513 65.0821 32.8486 67.883 32.8486C69.645 32.8486 70.5873 34.9384 69.3991 36.2495L50.8235 56.7373C50.4955 57.1472 49.9628 57.3931 49.4304 57.4341C48.6501 57.4992 47.8917 57.5644 47.1541 57.6299Z" fill="#0FB3AF"/>
</svg>
