<svg width="75" height="70" viewBox="0 0 75 70" fill="none" xmlns="http://www.w3.org/2000/svg">
<mask id="mask0_1_1222" style="mask-type:alpha" maskUnits="userSpaceOnUse" x="0" y="0" width="75" height="70">
<rect width="74.2424" height="70" fill="#C4C4C4"/>
</mask>
<g mask="url(#mask0_1_1222)">
<path d="M67.8856 43.6732C65.2836 46.7829 63.2262 49.3682 61.5937 51.6374C56.6358 58.5291 55.8867 62.5686 56.5124 68.6509C56.6082 69.6573 55.7934 70.5202 54.8109 70.4961L40.1905 70.4203C39.3743 70.4203 38.6579 69.8417 38.5146 69.0381C38.1171 66.8112 37.9208 64.5875 37.9312 62.3978C37.666 57.7792 38.1907 53.7746 39.144 50.4623C39.7455 48.3725 40.8876 46.4782 42.4254 44.9404L49.5398 37.826C51.7145 35.6513 54.9994 35.2633 57.5703 36.662C58.3991 37.113 58.6405 38.2222 58.0165 38.9299C57.9922 38.9574 57.9669 38.9845 57.9404 39.0109L47.4905 49.4608C46.8388 50.1126 46.7934 51.176 47.4257 51.8465C48.0943 52.5555 49.1757 52.5685 49.8593 51.8849L61.8413 39.9029C62.2008 39.5433 62.3684 39.0403 62.3445 38.5369C62.3339 37.9128 61.6273 34.2853 62.0684 29.1585C62.3542 25.8363 63.8776 18.6954 65.5157 17.0573C66.5461 16.0269 68.3194 16.6979 68.3913 18.1596L69.5096 41.0052C69.5575 41.4367 69.3898 41.8921 69.1024 42.2274C68.6841 42.7218 68.2786 43.2035 67.8856 43.6732Z" fill="#0FB3AF"/>
<path d="M5.70518 43.6732C8.30727 46.7829 10.3647 49.3682 11.9972 51.6374C16.955 58.5291 17.7041 62.5686 17.0784 68.6509C16.9826 69.6573 17.7974 70.5202 18.7799 70.4961L33.4003 70.4203C34.2165 70.4203 34.9329 69.8417 35.0762 69.0381C35.4737 66.8112 35.67 64.5875 35.6596 62.3978C35.9249 57.7792 35.4001 53.7746 34.4468 50.4623C33.8453 48.3725 32.7032 46.4782 31.1655 44.9404L24.051 37.826C21.8763 35.6513 18.5914 35.2633 16.0205 36.662C15.1917 37.113 14.9503 38.2222 15.5743 38.9299C15.5986 38.9574 15.6239 38.9845 15.6504 39.0109L26.1003 49.4608C26.752 50.1126 26.7975 51.176 26.1651 51.8465C25.4965 52.5555 24.4151 52.5685 23.7315 51.8849L11.7495 39.9029C11.39 39.5433 11.2224 39.0403 11.2463 38.5369C11.2569 37.9128 11.9635 34.2853 11.5224 29.1585C11.2366 25.8363 9.71324 18.6954 8.07514 17.0573C7.04469 16.0269 5.27144 16.6979 5.19954 18.1596L4.08122 41.0052C4.0333 41.4367 4.20105 41.8921 4.48845 42.2274C4.90671 42.7218 5.31217 43.2035 5.70518 43.6732Z" fill="#0FB3AF"/>
<path d="M36.6041 36.5148C46.6879 36.5148 54.8615 28.3413 54.8615 18.2574C54.8615 8.17432 46.6879 0 36.6041 0C26.521 0 18.3467 8.17432 18.3467 18.2574C18.3581 28.3367 26.5256 36.5042 36.6041 36.5148ZM34.0616 8.43939C34.0616 7.68533 34.6732 7.07446 35.4265 7.07446C36.1806 7.07446 36.7915 7.68533 36.7915 8.43939V18.6954H44.2407C44.994 18.6954 45.6056 19.307 45.6056 20.0603C45.6056 20.8144 44.994 21.4252 44.2407 21.4252H35.5134C34.7593 21.4252 34.0616 20.6483 34.0616 19.8943V8.43939Z" fill="#3C3C3B"/>
</g>
</svg>
