<svg width="69" height="70" viewBox="0 0 69 70" fill="none" xmlns="http://www.w3.org/2000/svg">
<path d="M46.2579 56.4816C41.4675 56.9558 37.5737 57.4492 34.3013 58.044C24.3632 59.8508 20.347 62.9251 15.7705 69.1924C15.0068 70.2222 13.5998 70.2671 12.796 69.3266L0.597382 55.5959C-0.0871725 54.8333 -0.202672 53.6234 0.351109 52.7387C1.88543 50.2867 3.58576 48.0256 5.43107 45.9895C9.08216 41.4265 12.8809 38.1752 16.4584 35.9711C18.7156 34.5806 21.2623 33.8778 23.8417 33.8778H35.7754C39.4232 33.8778 42.5037 36.5845 43.4868 40.2933C43.8036 41.489 43.0758 42.7509 41.9589 42.8291C41.9155 42.8321 41.8715 42.8337 41.8272 42.8337H24.2986C23.2054 42.8337 22.2754 43.7849 22.2433 45.0021C22.2094 46.2892 23.1056 47.3117 24.2522 47.3117H44.3507C44.9538 47.3117 45.5163 46.9982 45.9184 46.5057C46.4329 45.9126 48.8827 41.8632 53.5525 37.4853C56.5785 34.6484 63.8452 29.3999 66.5929 29.3999C68.3214 29.3999 69.2458 31.6837 68.0802 33.1165L49.8576 55.5062C49.5359 55.9541 49.0133 56.2228 48.491 56.2676C47.7255 56.3388 46.9815 56.41 46.2579 56.4816Z" fill="#0FB3AF"/>
<path d="M48.1727 36.4472L65.5461 18.8681C67.6036 16.7883 68.7525 13.9776 68.7411 11.0521C68.7231 6.65029 66.0758 2.6855 62.0169 0.98188C57.9581 -0.721742 53.2741 0.165776 50.1198 3.2361L49.1462 4.20967C48.8888 4.46926 48.5383 4.61528 48.1727 4.61528C47.807 4.61528 47.4566 4.46926 47.1991 4.20967L46.2392 3.24981C44.2253 1.17967 41.4622 0.00821684 38.5741 0C28.8658 0 23.9979 11.9434 30.8541 18.8544L48.1727 36.4472ZM38.5741 2.74246C39.1268 2.75284 39.6774 2.81249 40.2195 2.92072C40.9769 3.07975 41.4618 3.82259 41.3028 4.5799C41.1438 5.33721 40.4009 5.82221 39.6436 5.66317C39.2948 5.56433 38.9361 5.50454 38.5741 5.48491C37.8168 5.48491 37.2028 4.87099 37.2028 4.11368C37.2028 3.75001 37.3473 3.40123 37.6045 3.14408C37.8616 2.88692 38.2104 2.74246 38.5741 2.74246ZM32.7601 5.16953C33.1054 4.82171 33.6101 4.68456 34.084 4.80975C34.558 4.93494 34.9291 5.30345 35.0576 5.77647C35.1862 6.24948 35.0526 6.75514 34.7072 7.10296C32.7686 9.08349 32.5481 12.1761 34.1861 14.4116C34.5247 14.8 34.6169 15.3455 34.4248 15.8236C34.2328 16.3017 33.789 16.6318 33.2758 16.6782C32.7626 16.7246 32.2668 16.4793 31.9922 16.0434C29.5504 12.7199 29.8755 8.11689 32.7601 5.16953Z" fill="#3C3C3B"/>
</svg>
